  0
SECTION
  2
BLOCKS
  0
ENDSEC
  0
SECTION
  2
ENTITIES
  0
LINE
  8
0
 10
-20.59
 20
5.03749
 11
-17.4975
 21
5.03749
  0
LINE
  8
0
 10
-17.4975
 20
5.03749
 11
-17.4975
 21
-5.03749
  0
LINE
  8
0
 10
-17.4975
 20
-5.03749
 11
-20.59
 21
-5.03749
  0
LINE
  8
0
 10
-20.59
 20
-5.03749
 11
-20.59
 21
-15.5725
  0
LINE
  8
0
 10
-20.59
 20
-15.5725
 11
-17.4975
 21
-15.5725
  0
LINE
  8
0
 10
-17.4975
 20
-15.5725
 11
-17.4975
 21
-25.6475
  0
LINE
  8
0
 10
-17.4975
 20
-25.6475
 11
-20.59
 21
-25.6475
  0
LINE
  8
0
 10
-20.59
 20
-25.6475
 11
-20.59
 21
-30.915
  0
LINE
  8
0
 10
-20.59
 20
-30.915
 11
20.59
 21
-30.915
  0
LINE
  8
0
 10
20.59
 20
-30.915
 11
20.59
 21
-25.6475
  0
LINE
  8
0
 10
20.59
 20
-25.6475
 11
17.4975
 21
-25.6475
  0
LINE
  8
0
 10
17.4975
 20
-25.6475
 11
17.4975
 21
-15.5725
  0
LINE
  8
0
 10
17.4975
 20
-15.5725
 11
20.59
 21
-15.5725
  0
LINE
  8
0
 10
20.59
 20
-15.5725
 11
20.59
 21
-5.03749
  0
LINE
  8
0
 10
20.59
 20
-5.03749
 11
17.4975
 21
-5.03749
  0
LINE
  8
0
 10
17.4975
 20
-5.03749
 11
17.4975
 21
5.03749
  0
LINE
  8
0
 10
17.4975
 20
5.03749
 11
20.59
 21
5.03749
  0
LINE
  8
0
 10
20.59
 20
5.03749
 11
20.59
 21
15.5725
  0
LINE
  8
0
 10
20.59
 20
15.5725
 11
17.4975
 21
15.5725
  0
LINE
  8
0
 10
17.4975
 20
15.5725
 11
17.4975
 21
25.6475
  0
LINE
  8
0
 10
17.4975
 20
25.6475
 11
20.59
 21
25.6475
  0
LINE
  8
0
 10
20.59
 20
25.6475
 11
20.59
 21
30.915
  0
LINE
  8
0
 10
20.59
 20
30.915
 11
15.5575
 21
30.915
  0
LINE
  8
0
 10
15.5575
 20
30.915
 11
15.5575
 21
34.1225
  0
LINE
  8
0
 10
15.5575
 20
34.1225
 11
5.03249
 21
34.1225
  0
LINE
  8
0
 10
5.03249
 20
34.1225
 11
5.03249
 21
30.915
  0
LINE
  8
0
 10
5.03249
 20
30.915
 11
-5.03249
 21
30.915
  0
LINE
  8
0
 10
-5.03249
 20
30.915
 11
-5.03249
 21
34.1225
  0
LINE
  8
0
 10
-5.03249
 20
34.1225
 11
-15.5575
 21
34.1225
  0
LINE
  8
0
 10
-15.5575
 20
34.1225
 11
-15.5575
 21
30.915
  0
LINE
  8
0
 10
-15.5575
 20
30.915
 11
-20.59
 21
30.915
  0
LINE
  8
0
 10
-20.59
 20
30.915
 11
-20.59
 21
25.6475
  0
LINE
  8
0
 10
-20.59
 20
25.6475
 11
-17.4975
 21
25.6475
  0
LINE
  8
0
 10
-17.4975
 20
25.6475
 11
-17.4975
 21
15.5725
  0
LINE
  8
0
 10
-17.4975
 20
15.5725
 11
-20.59
 21
15.5725
  0
LINE
  8
0
 10
-20.59
 20
15.5725
 11
-20.59
 21
5.03749
  0
ENDSEC
  0
SECTION
  2
OBJECTS
  0
DICTIONARY
  0
ENDSEC
  0
EOF
