  0
SECTION
  2
BLOCKS
  0
ENDSEC
  0
SECTION
  2
ENTITIES
  0
LINE
  8
0
 10
19.115
 20
-29.1051
 11
19.4289
 21
-29.1051
  0
LINE
  8
0
 10
19.4289
 20
-29.1051
 11
20.0519
 21
-29.0264
  0
LINE
  8
0
 10
20.0519
 20
-29.0264
 11
20.6601
 21
-28.8703
  0
LINE
  8
0
 10
20.6601
 20
-28.8703
 11
21.2439
 21
-28.6391
  0
LINE
  8
0
 10
21.2439
 20
-28.6391
 11
21.7941
 21
-28.3366
  0
LINE
  8
0
 10
21.7941
 20
-28.3366
 11
22.3021
 21
-27.9676
  0
LINE
  8
0
 10
22.3021
 20
-27.9676
 11
22.7598
 21
-27.5377
  0
LINE
  8
0
 10
22.7598
 20
-27.5377
 11
23.1601
 21
-27.0539
  0
LINE
  8
0
 10
23.1601
 20
-27.0539
 11
23.4965
 21
-26.5238
  0
LINE
  8
0
 10
23.4965
 20
-26.5238
 11
23.7639
 21
-25.9556
  0
LINE
  8
0
 10
23.7639
 20
-25.9556
 11
23.9579
 21
-25.3584
  0
LINE
  8
0
 10
23.9579
 20
-25.3584
 11
24.0756
 21
-24.7417
  0
LINE
  8
0
 10
24.0756
 20
-24.7417
 11
24.115
 21
-24.115
  0
LINE
  8
0
 10
24.115
 20
-24.115
 11
24.115
 21
-18.8608
  0
LINE
  8
0
 10
24.115
 20
-18.8608
 11
27.3225
 21
-18.8608
  0
LINE
  8
0
 10
27.3225
 20
-18.8608
 11
27.3225
 21
-7.89249
  0
LINE
  8
0
 10
27.3225
 20
-7.89249
 11
24.115
 21
-7.89249
  0
LINE
  8
0
 10
24.115
 20
-7.89249
 11
24.115
 21
2.61583
  0
LINE
  8
0
 10
24.115
 20
2.61583
 11
27.3225
 21
2.61583
  0
LINE
  8
0
 10
27.3225
 20
2.61583
 11
27.3225
 21
13.5842
  0
LINE
  8
0
 10
27.3225
 20
13.5842
 11
24.115
 21
13.5842
  0
LINE
  8
0
 10
24.115
 20
13.5842
 11
24.115
 21
24.0925
  0
LINE
  8
0
 10
24.115
 20
24.0925
 11
27.3225
 21
24.0925
  0
LINE
  8
0
 10
27.3225
 20
24.0925
 11
27.3225
 21
35.0608
  0
LINE
  8
0
 10
27.3225
 20
35.0608
 11
24.115
 21
35.0608
  0
LINE
  8
0
 10
24.115
 20
35.0608
 11
24.115
 21
40.315
  0
LINE
  8
0
 10
24.115
 20
40.315
 11
20.2108
 21
40.315
  0
LINE
  8
0
 10
20.2108
 20
40.315
 11
20.2108
 21
43.5225
  0
LINE
  8
0
 10
20.2108
 20
43.5225
 11
11.9425
 21
43.5225
  0
LINE
  8
0
 10
11.9425
 20
43.5225
 11
11.9425
 21
40.315
  0
LINE
  8
0
 10
11.9425
 20
40.315
 11
4.13416
 21
40.315
  0
LINE
  8
0
 10
4.13416
 20
40.315
 11
4.13416
 21
43.5225
  0
LINE
  8
0
 10
4.13416
 20
43.5225
 11
-4.13416
 21
43.5225
  0
LINE
  8
0
 10
-4.13416
 20
43.5225
 11
-4.13416
 21
40.315
  0
LINE
  8
0
 10
-4.13416
 20
40.315
 11
-11.9425
 21
40.315
  0
LINE
  8
0
 10
-11.9425
 20
40.315
 11
-11.9425
 21
43.5225
  0
LINE
  8
0
 10
-11.9425
 20
43.5225
 11
-20.2108
 21
43.5225
  0
LINE
  8
0
 10
-20.2108
 20
43.5225
 11
-20.2108
 21
40.315
  0
LINE
  8
0
 10
-20.2108
 20
40.315
 11
-24.115
 21
40.315
  0
LINE
  8
0
 10
-24.115
 20
40.315
 11
-24.115
 21
35.0608
  0
LINE
  8
0
 10
-24.115
 20
35.0608
 11
-27.3225
 21
35.0608
  0
LINE
  8
0
 10
-27.3225
 20
35.0608
 11
-27.3225
 21
24.0925
  0
LINE
  8
0
 10
-27.3225
 20
24.0925
 11
-24.115
 21
24.0925
  0
LINE
  8
0
 10
-24.115
 20
24.0925
 11
-24.115
 21
13.5842
  0
LINE
  8
0
 10
-24.115
 20
13.5842
 11
-27.3225
 21
13.5842
  0
LINE
  8
0
 10
-27.3225
 20
13.5842
 11
-27.3225
 21
2.61583
  0
LINE
  8
0
 10
-27.3225
 20
2.61583
 11
-24.115
 21
2.61583
  0
LINE
  8
0
 10
-24.115
 20
2.61583
 11
-24.115
 21
-7.89249
  0
LINE
  8
0
 10
-24.115
 20
-7.89249
 11
-27.3225
 21
-7.89249
  0
LINE
  8
0
 10
-27.3225
 20
-7.89249
 11
-27.3225
 21
-18.8608
  0
LINE
  8
0
 10
-27.3225
 20
-18.8608
 11
-24.115
 21
-18.8608
  0
LINE
  8
0
 10
-24.115
 20
-18.8608
 11
-24.115
 21
-24.115
  0
LINE
  8
0
 10
-24.115
 20
-24.115
 11
-24.0756
 21
-24.7417
  0
LINE
  8
0
 10
-24.0756
 20
-24.7417
 11
-23.9579
 21
-25.3584
  0
LINE
  8
0
 10
-23.9579
 20
-25.3584
 11
-23.7639
 21
-25.9556
  0
LINE
  8
0
 10
-23.7639
 20
-25.9556
 11
-23.4965
 21
-26.5238
  0
LINE
  8
0
 10
-23.4965
 20
-26.5238
 11
-23.1601
 21
-27.0539
  0
LINE
  8
0
 10
-23.1601
 20
-27.0539
 11
-22.7598
 21
-27.5377
  0
LINE
  8
0
 10
-22.7598
 20
-27.5377
 11
-22.3021
 21
-27.9676
  0
LINE
  8
0
 10
-22.3021
 20
-27.9676
 11
-21.7941
 21
-28.3366
  0
LINE
  8
0
 10
-21.7941
 20
-28.3366
 11
-21.2439
 21
-28.6391
  0
LINE
  8
0
 10
-21.2439
 20
-28.6391
 11
-20.6601
 21
-28.8703
  0
LINE
  8
0
 10
-20.6601
 20
-28.8703
 11
-20.0519
 21
-29.0264
  0
LINE
  8
0
 10
-20.0519
 20
-29.0264
 11
-19.4289
 21
-29.1051
  0
LINE
  8
0
 10
-19.4289
 20
-29.1051
 11
-19.115
 21
-29.1051
  0
LINE
  8
0
 10
-19.115
 20
-29.1051
 11
-19.115
 21
-29.115
  0
LINE
  8
0
 10
-19.115
 20
-29.115
 11
19.115
 21
-29.115
  0
LINE
  8
0
 10
19.115
 20
-29.115
 11
19.115
 21
-29.1051
  0
LINE
  8
0
 10
-19.23
 20
34.8
 11
-19.23
 21
36.63
  0
LINE
  8
0
 10
-19.23
 20
36.63
 11
19.23
 21
36.63
  0
LINE
  8
0
 10
19.23
 20
36.63
 11
19.23
 21
34.8
  0
LINE
  8
0
 10
19.23
 20
34.8
 11
-19.23
 21
34.8
  0
LINE
  8
0
 10
-15.292
 20
-23.292
 11
-15.292
 21
-23.2841
  0
LINE
  8
0
 10
-15.292
 20
-23.2841
 11
-15.5432
 21
-23.2841
  0
LINE
  8
0
 10
-15.5432
 20
-23.2841
 11
-16.0415
 21
-23.2211
  0
LINE
  8
0
 10
-16.0415
 20
-23.2211
 11
-16.5281
 21
-23.0962
  0
LINE
  8
0
 10
-16.5281
 20
-23.0962
 11
-16.9951
 21
-22.9113
  0
LINE
  8
0
 10
-16.9951
 20
-22.9113
 11
-17.4353
 21
-22.6693
  0
LINE
  8
0
 10
-17.4353
 20
-22.6693
 11
-17.8417
 21
-22.374
  0
LINE
  8
0
 10
-17.8417
 20
-22.374
 11
-18.2079
 21
-22.0302
  0
LINE
  8
0
 10
-18.2079
 20
-22.0302
 11
-18.5281
 21
-21.6431
  0
LINE
  8
0
 10
-18.5281
 20
-21.6431
 11
-18.7972
 21
-21.219
  0
LINE
  8
0
 10
-18.7972
 20
-21.219
 11
-19.0111
 21
-20.7645
  0
LINE
  8
0
 10
-19.0111
 20
-20.7645
 11
-19.1663
 21
-20.2868
  0
LINE
  8
0
 10
-19.1663
 20
-20.2868
 11
-19.2605
 21
-19.7933
  0
LINE
  8
0
 10
-19.2605
 20
-19.7933
 11
-19.292
 21
-19.292
  0
LINE
  8
0
 10
-19.292
 20
-19.292
 11
-19.292
 21
19.292
  0
LINE
  8
0
 10
-19.292
 20
19.292
 11
-19.2605
 21
19.7933
  0
LINE
  8
0
 10
-19.2605
 20
19.7933
 11
-19.1663
 21
20.2868
  0
LINE
  8
0
 10
-19.1663
 20
20.2868
 11
-19.0111
 21
20.7645
  0
LINE
  8
0
 10
-19.0111
 20
20.7645
 11
-18.7972
 21
21.219
  0
LINE
  8
0
 10
-18.7972
 20
21.219
 11
-18.5281
 21
21.6431
  0
LINE
  8
0
 10
-18.5281
 20
21.6431
 11
-18.2079
 21
22.0302
  0
LINE
  8
0
 10
-18.2079
 20
22.0302
 11
-17.8417
 21
22.374
  0
LINE
  8
0
 10
-17.8417
 20
22.374
 11
-17.4353
 21
22.6693
  0
LINE
  8
0
 10
-17.4353
 20
22.6693
 11
-16.9951
 21
22.9113
  0
LINE
  8
0
 10
-16.9951
 20
22.9113
 11
-16.5281
 21
23.0962
  0
LINE
  8
0
 10
-16.5281
 20
23.0962
 11
-16.0415
 21
23.2211
  0
LINE
  8
0
 10
-16.0415
 20
23.2211
 11
-15.5432
 21
23.2841
  0
LINE
  8
0
 10
-15.5432
 20
23.2841
 11
-15.292
 21
23.2841
  0
LINE
  8
0
 10
-15.292
 20
23.2841
 11
-15.292
 21
23.292
  0
LINE
  8
0
 10
-15.292
 20
23.292
 11
15.292
 21
23.292
  0
LINE
  8
0
 10
15.292
 20
23.292
 11
15.292
 21
23.2841
  0
LINE
  8
0
 10
15.292
 20
23.2841
 11
15.5432
 21
23.2841
  0
LINE
  8
0
 10
15.5432
 20
23.2841
 11
16.0415
 21
23.2211
  0
LINE
  8
0
 10
16.0415
 20
23.2211
 11
16.5281
 21
23.0962
  0
LINE
  8
0
 10
16.5281
 20
23.0962
 11
16.9951
 21
22.9113
  0
LINE
  8
0
 10
16.9951
 20
22.9113
 11
17.4353
 21
22.6693
  0
LINE
  8
0
 10
17.4353
 20
22.6693
 11
17.8417
 21
22.374
  0
LINE
  8
0
 10
17.8417
 20
22.374
 11
18.2079
 21
22.0302
  0
LINE
  8
0
 10
18.2079
 20
22.0302
 11
18.5281
 21
21.6431
  0
LINE
  8
0
 10
18.5281
 20
21.6431
 11
18.7972
 21
21.219
  0
LINE
  8
0
 10
18.7972
 20
21.219
 11
19.0111
 21
20.7645
  0
LINE
  8
0
 10
19.0111
 20
20.7645
 11
19.1663
 21
20.2868
  0
LINE
  8
0
 10
19.1663
 20
20.2868
 11
19.2605
 21
19.7933
  0
LINE
  8
0
 10
19.2605
 20
19.7933
 11
19.292
 21
19.292
  0
LINE
  8
0
 10
19.292
 20
19.292
 11
19.292
 21
-19.292
  0
LINE
  8
0
 10
19.292
 20
-19.292
 11
19.2605
 21
-19.7933
  0
LINE
  8
0
 10
19.2605
 20
-19.7933
 11
19.1663
 21
-20.2868
  0
LINE
  8
0
 10
19.1663
 20
-20.2868
 11
19.0111
 21
-20.7645
  0
LINE
  8
0
 10
19.0111
 20
-20.7645
 11
18.7972
 21
-21.219
  0
LINE
  8
0
 10
18.7972
 20
-21.219
 11
18.5281
 21
-21.6431
  0
LINE
  8
0
 10
18.5281
 20
-21.6431
 11
18.2079
 21
-22.0302
  0
LINE
  8
0
 10
18.2079
 20
-22.0302
 11
17.8417
 21
-22.374
  0
LINE
  8
0
 10
17.8417
 20
-22.374
 11
17.4353
 21
-22.6693
  0
LINE
  8
0
 10
17.4353
 20
-22.6693
 11
16.9951
 21
-22.9113
  0
LINE
  8
0
 10
16.9951
 20
-22.9113
 11
16.5281
 21
-23.0962
  0
LINE
  8
0
 10
16.5281
 20
-23.0962
 11
16.0415
 21
-23.2211
  0
LINE
  8
0
 10
16.0415
 20
-23.2211
 11
15.5432
 21
-23.2841
  0
LINE
  8
0
 10
15.5432
 20
-23.2841
 11
15.292
 21
-23.2841
  0
LINE
  8
0
 10
15.292
 20
-23.2841
 11
15.292
 21
-23.292
  0
LINE
  8
0
 10
15.292
 20
-23.292
 11
-15.292
 21
-23.292
  0
ENDSEC
  0
SECTION
  2
OBJECTS
  0
DICTIONARY
  0
ENDSEC
  0
EOF
