  0
SECTION
  2
BLOCKS
  0
ENDSEC
  0
SECTION
  2
ENTITIES
  0
LINE
  8
0
 10
-23.9608
 20
-17.3825
 11
-14.1925
 21
-17.3825
  0
LINE
  8
0
 10
-14.1925
 20
-17.3825
 11
-14.1925
 21
-20.59
  0
LINE
  8
0
 10
-14.1925
 20
-20.59
 11
-4.88416
 21
-20.59
  0
LINE
  8
0
 10
-4.88416
 20
-20.59
 11
-4.88416
 21
-17.3825
  0
LINE
  8
0
 10
-4.88416
 20
-17.3825
 11
4.88416
 21
-17.3825
  0
LINE
  8
0
 10
4.88416
 20
-17.3825
 11
4.88416
 21
-20.59
  0
LINE
  8
0
 10
4.88416
 20
-20.59
 11
14.1925
 21
-20.59
  0
LINE
  8
0
 10
14.1925
 20
-20.59
 11
14.1925
 21
-17.3825
  0
LINE
  8
0
 10
14.1925
 20
-17.3825
 11
23.9608
 21
-17.3825
  0
LINE
  8
0
 10
23.9608
 20
-17.3825
 11
23.9608
 21
-20.59
  0
LINE
  8
0
 10
23.9608
 20
-20.59
 11
31.765
 21
-20.59
  0
LINE
  8
0
 10
31.765
 20
-20.59
 11
31.765
 21
-15.3275
  0
LINE
  8
0
 10
31.765
 20
-15.3275
 11
28.6725
 21
-15.3275
  0
LINE
  8
0
 10
28.6725
 20
-15.3275
 11
28.6725
 21
-5.2625
  0
LINE
  8
0
 10
28.6725
 20
-5.2625
 11
31.765
 21
-5.2625
  0
LINE
  8
0
 10
31.765
 20
-5.2625
 11
31.765
 21
5.2625
  0
LINE
  8
0
 10
31.765
 20
5.2625
 11
28.6725
 21
5.2625
  0
LINE
  8
0
 10
28.6725
 20
5.2625
 11
28.6725
 21
15.3275
  0
LINE
  8
0
 10
28.6725
 20
15.3275
 11
31.765
 21
15.3275
  0
LINE
  8
0
 10
31.765
 20
15.3275
 11
31.765
 21
20.59
  0
LINE
  8
0
 10
31.765
 20
20.59
 11
23.9608
 21
20.59
  0
LINE
  8
0
 10
23.9608
 20
20.59
 11
23.9608
 21
17.3825
  0
LINE
  8
0
 10
23.9608
 20
17.3825
 11
14.1925
 21
17.3825
  0
LINE
  8
0
 10
14.1925
 20
17.3825
 11
14.1925
 21
20.59
  0
LINE
  8
0
 10
14.1925
 20
20.59
 11
4.88416
 21
20.59
  0
LINE
  8
0
 10
4.88416
 20
20.59
 11
4.88416
 21
17.3825
  0
LINE
  8
0
 10
4.88416
 20
17.3825
 11
-4.88416
 21
17.3825
  0
LINE
  8
0
 10
-4.88416
 20
17.3825
 11
-4.88416
 21
20.59
  0
LINE
  8
0
 10
-4.88416
 20
20.59
 11
-14.1925
 21
20.59
  0
LINE
  8
0
 10
-14.1925
 20
20.59
 11
-14.1925
 21
17.3825
  0
LINE
  8
0
 10
-14.1925
 20
17.3825
 11
-23.9608
 21
17.3825
  0
LINE
  8
0
 10
-23.9608
 20
17.3825
 11
-23.9608
 21
20.59
  0
LINE
  8
0
 10
-23.9608
 20
20.59
 11
-31.765
 21
20.59
  0
LINE
  8
0
 10
-31.765
 20
20.59
 11
-31.765
 21
15.3275
  0
LINE
  8
0
 10
-31.765
 20
15.3275
 11
-28.6725
 21
15.3275
  0
LINE
  8
0
 10
-28.6725
 20
15.3275
 11
-28.6725
 21
5.2625
  0
LINE
  8
0
 10
-28.6725
 20
5.2625
 11
-31.765
 21
5.2625
  0
LINE
  8
0
 10
-31.765
 20
5.2625
 11
-31.765
 21
-5.2625
  0
LINE
  8
0
 10
-31.765
 20
-5.2625
 11
-28.6725
 21
-5.2625
  0
LINE
  8
0
 10
-28.6725
 20
-5.2625
 11
-28.6725
 21
-15.3275
  0
LINE
  8
0
 10
-28.6725
 20
-15.3275
 11
-31.765
 21
-15.3275
  0
LINE
  8
0
 10
-31.765
 20
-15.3275
 11
-31.765
 21
-20.59
  0
LINE
  8
0
 10
-31.765
 20
-20.59
 11
-23.9608
 21
-20.59
  0
LINE
  8
0
 10
-23.9608
 20
-20.59
 11
-23.9608
 21
-17.3825
  0
ENDSEC
  0
SECTION
  2
OBJECTS
  0
DICTIONARY
  0
ENDSEC
  0
EOF
