  0
SECTION
  2
BLOCKS
  0
ENDSEC
  0
SECTION
  2
ENTITIES
  0
LINE
  8
0
 10
20.59
 20
-26.7308
 11
17.4975
 21
-26.7308
  0
LINE
  8
0
 10
17.4975
 20
-26.7308
 11
17.4975
 21
-16.2225
  0
LINE
  8
0
 10
17.4975
 20
-16.2225
 11
20.59
 21
-16.2225
  0
LINE
  8
0
 10
20.59
 20
-16.2225
 11
20.59
 21
-5.25417
  0
LINE
  8
0
 10
20.59
 20
-5.25417
 11
17.4975
 21
-5.25417
  0
LINE
  8
0
 10
17.4975
 20
-5.25417
 11
17.4975
 21
5.25417
  0
LINE
  8
0
 10
17.4975
 20
5.25417
 11
20.59
 21
5.25417
  0
LINE
  8
0
 10
20.59
 20
5.25417
 11
20.59
 21
16.2225
  0
LINE
  8
0
 10
20.59
 20
16.2225
 11
17.4975
 21
16.2225
  0
LINE
  8
0
 10
17.4975
 20
16.2225
 11
17.4975
 21
26.7308
  0
LINE
  8
0
 10
17.4975
 20
26.7308
 11
20.59
 21
26.7308
  0
LINE
  8
0
 10
20.59
 20
26.7308
 11
20.59
 21
32.215
  0
LINE
  8
0
 10
20.59
 20
32.215
 11
15.5575
 21
32.215
  0
LINE
  8
0
 10
15.5575
 20
32.215
 11
15.5575
 21
35.4225
  0
LINE
  8
0
 10
15.5575
 20
35.4225
 11
5.03249
 21
35.4225
  0
LINE
  8
0
 10
5.03249
 20
35.4225
 11
5.03249
 21
32.215
  0
LINE
  8
0
 10
5.03249
 20
32.215
 11
-5.03249
 21
32.215
  0
LINE
  8
0
 10
-5.03249
 20
32.215
 11
-5.03249
 21
35.4225
  0
LINE
  8
0
 10
-5.03249
 20
35.4225
 11
-15.5575
 21
35.4225
  0
LINE
  8
0
 10
-15.5575
 20
35.4225
 11
-15.5575
 21
32.215
  0
LINE
  8
0
 10
-15.5575
 20
32.215
 11
-20.59
 21
32.215
  0
LINE
  8
0
 10
-20.59
 20
32.215
 11
-20.59
 21
26.7308
  0
LINE
  8
0
 10
-20.59
 20
26.7308
 11
-17.4975
 21
26.7308
  0
LINE
  8
0
 10
-17.4975
 20
26.7308
 11
-17.4975
 21
16.2225
  0
LINE
  8
0
 10
-17.4975
 20
16.2225
 11
-20.59
 21
16.2225
  0
LINE
  8
0
 10
-20.59
 20
16.2225
 11
-20.59
 21
5.25417
  0
LINE
  8
0
 10
-20.59
 20
5.25417
 11
-17.4975
 21
5.25417
  0
LINE
  8
0
 10
-17.4975
 20
5.25417
 11
-17.4975
 21
-5.25417
  0
LINE
  8
0
 10
-17.4975
 20
-5.25417
 11
-20.59
 21
-5.25417
  0
LINE
  8
0
 10
-20.59
 20
-5.25417
 11
-20.59
 21
-16.2225
  0
LINE
  8
0
 10
-20.59
 20
-16.2225
 11
-17.4975
 21
-16.2225
  0
LINE
  8
0
 10
-17.4975
 20
-16.2225
 11
-17.4975
 21
-26.7308
  0
LINE
  8
0
 10
-17.4975
 20
-26.7308
 11
-20.59
 21
-26.7308
  0
LINE
  8
0
 10
-20.59
 20
-26.7308
 11
-20.59
 21
-32.215
  0
LINE
  8
0
 10
-20.59
 20
-32.215
 11
20.59
 21
-32.215
  0
LINE
  8
0
 10
20.59
 20
-32.215
 11
20.59
 21
-26.7308
  0
ENDSEC
  0
SECTION
  2
OBJECTS
  0
DICTIONARY
  0
ENDSEC
  0
EOF
