  0
SECTION
  2
BLOCKS
  0
ENDSEC
  0
SECTION
  2
ENTITIES
  0
LINE
  8
0
 10
370.725
 20
-29.1051
 11
371.039
 21
-29.1051
  0
LINE
  8
0
 10
371.039
 20
-29.1051
 11
371.662
 21
-29.0264
  0
LINE
  8
0
 10
371.662
 20
-29.0264
 11
372.27
 21
-28.8703
  0
LINE
  8
0
 10
372.27
 20
-28.8703
 11
372.854
 21
-28.6391
  0
LINE
  8
0
 10
372.854
 20
-28.6391
 11
373.404
 21
-28.3366
  0
LINE
  8
0
 10
373.404
 20
-28.3366
 11
373.912
 21
-27.9676
  0
LINE
  8
0
 10
373.912
 20
-27.9676
 11
374.37
 21
-27.5377
  0
LINE
  8
0
 10
374.37
 20
-27.5377
 11
374.77
 21
-27.0539
  0
LINE
  8
0
 10
374.77
 20
-27.0539
 11
375.107
 21
-26.5238
  0
LINE
  8
0
 10
375.107
 20
-26.5238
 11
375.374
 21
-25.9556
  0
LINE
  8
0
 10
375.374
 20
-25.9556
 11
375.568
 21
-25.3584
  0
LINE
  8
0
 10
375.568
 20
-25.3584
 11
375.686
 21
-24.7417
  0
LINE
  8
0
 10
375.686
 20
-24.7417
 11
375.725
 21
-24.115
  0
LINE
  8
0
 10
375.725
 20
-24.115
 11
375.725
 21
24.115
  0
LINE
  8
0
 10
375.725
 20
24.115
 11
375.686
 21
24.7417
  0
LINE
  8
0
 10
375.686
 20
24.7417
 11
375.568
 21
25.3584
  0
LINE
  8
0
 10
375.568
 20
25.3584
 11
375.374
 21
25.9556
  0
LINE
  8
0
 10
375.374
 20
25.9556
 11
375.107
 21
26.5238
  0
LINE
  8
0
 10
375.107
 20
26.5238
 11
374.77
 21
27.0539
  0
LINE
  8
0
 10
374.77
 20
27.0539
 11
374.37
 21
27.5377
  0
LINE
  8
0
 10
374.37
 20
27.5377
 11
373.912
 21
27.9676
  0
LINE
  8
0
 10
373.912
 20
27.9676
 11
373.404
 21
28.3366
  0
LINE
  8
0
 10
373.404
 20
28.3366
 11
372.854
 21
28.6391
  0
LINE
  8
0
 10
372.854
 20
28.6391
 11
372.27
 21
28.8703
  0
LINE
  8
0
 10
372.27
 20
28.8703
 11
371.662
 21
29.0264
  0
LINE
  8
0
 10
371.662
 20
29.0264
 11
371.039
 21
29.1051
  0
LINE
  8
0
 10
371.039
 20
29.1051
 11
370.725
 21
29.1051
  0
LINE
  8
0
 10
370.725
 20
29.1051
 11
370.725
 21
29.115
  0
LINE
  8
0
 10
370.725
 20
29.115
 11
360.181
 21
29.115
  0
LINE
  8
0
 10
360.181
 20
29.115
 11
360.217
 21
29.1355
  0
LINE
  8
0
 10
360.217
 20
29.1355
 11
357.931
 21
33.0945
  0
LINE
  8
0
 10
357.931
 20
33.0945
 11
357.896
 21
33.074
  0
LINE
  8
0
 10
357.896
 20
33.074
 11
357.896
 21
33.115
  0
LINE
  8
0
 10
357.896
 20
33.115
 11
353.324
 21
33.115
  0
LINE
  8
0
 10
353.324
 20
33.115
 11
353.324
 21
33.074
  0
LINE
  8
0
 10
353.324
 20
33.074
 11
353.289
 21
33.0945
  0
LINE
  8
0
 10
353.289
 20
33.0945
 11
351.003
 21
29.1355
  0
LINE
  8
0
 10
351.003
 20
29.1355
 11
351.039
 21
29.115
  0
LINE
  8
0
 10
351.039
 20
29.115
 11
332.495
 21
29.115
  0
LINE
  8
0
 10
332.495
 20
29.115
 11
332.495
 21
29.1051
  0
LINE
  8
0
 10
332.495
 20
29.1051
 11
332.181
 21
29.1051
  0
LINE
  8
0
 10
332.181
 20
29.1051
 11
331.558
 21
29.0264
  0
LINE
  8
0
 10
331.558
 20
29.0264
 11
330.95
 21
28.8703
  0
LINE
  8
0
 10
330.95
 20
28.8703
 11
330.366
 21
28.6391
  0
LINE
  8
0
 10
330.366
 20
28.6391
 11
329.816
 21
28.3366
  0
LINE
  8
0
 10
329.816
 20
28.3366
 11
329.308
 21
27.9676
  0
LINE
  8
0
 10
329.308
 20
27.9676
 11
328.85
 21
27.5377
  0
LINE
  8
0
 10
328.85
 20
27.5377
 11
328.45
 21
27.0539
  0
LINE
  8
0
 10
328.45
 20
27.0539
 11
328.113
 21
26.5238
  0
LINE
  8
0
 10
328.113
 20
26.5238
 11
327.846
 21
25.9556
  0
LINE
  8
0
 10
327.846
 20
25.9556
 11
327.652
 21
25.3584
  0
LINE
  8
0
 10
327.652
 20
25.3584
 11
327.534
 21
24.7417
  0
LINE
  8
0
 10
327.534
 20
24.7417
 11
327.495
 21
24.115
  0
LINE
  8
0
 10
327.495
 20
24.115
 11
327.495
 21
-24.115
  0
LINE
  8
0
 10
327.495
 20
-24.115
 11
327.534
 21
-24.7417
  0
LINE
  8
0
 10
327.534
 20
-24.7417
 11
327.652
 21
-25.3584
  0
LINE
  8
0
 10
327.652
 20
-25.3584
 11
327.846
 21
-25.9556
  0
LINE
  8
0
 10
327.846
 20
-25.9556
 11
328.113
 21
-26.5238
  0
LINE
  8
0
 10
328.113
 20
-26.5238
 11
328.45
 21
-27.0539
  0
LINE
  8
0
 10
328.45
 20
-27.0539
 11
328.85
 21
-27.5377
  0
LINE
  8
0
 10
328.85
 20
-27.5377
 11
329.308
 21
-27.9676
  0
LINE
  8
0
 10
329.308
 20
-27.9676
 11
329.816
 21
-28.3366
  0
LINE
  8
0
 10
329.816
 20
-28.3366
 11
330.366
 21
-28.6391
  0
LINE
  8
0
 10
330.366
 20
-28.6391
 11
330.95
 21
-28.8703
  0
LINE
  8
0
 10
330.95
 20
-28.8703
 11
331.558
 21
-29.0264
  0
LINE
  8
0
 10
331.558
 20
-29.0264
 11
332.181
 21
-29.1051
  0
LINE
  8
0
 10
332.181
 20
-29.1051
 11
332.495
 21
-29.1051
  0
LINE
  8
0
 10
332.495
 20
-29.1051
 11
332.495
 21
-29.115
  0
LINE
  8
0
 10
332.495
 20
-29.115
 11
370.725
 21
-29.115
  0
LINE
  8
0
 10
370.725
 20
-29.115
 11
370.725
 21
-29.1051
  0
LINE
  8
0
 10
349.864
 20
-19.0625
 11
348.469
 21
-18.9079
  0
LINE
  8
0
 10
348.469
 20
-18.9079
 11
347.167
 21
-18.6502
  0
LINE
  8
0
 10
347.167
 20
-18.6502
 11
345.957
 21
-18.2895
  0
LINE
  8
0
 10
345.957
 20
-18.2895
 11
344.839
 21
-17.8257
  0
LINE
  8
0
 10
344.839
 20
-17.8257
 11
343.812
 21
-17.2589
  0
LINE
  8
0
 10
343.812
 20
-17.2589
 11
342.878
 21
-16.589
  0
LINE
  8
0
 10
342.878
 20
-16.589
 11
342.054
 21
-15.8313
  0
LINE
  8
0
 10
342.054
 20
-15.8313
 11
341.356
 21
-15.001
  0
LINE
  8
0
 10
341.356
 20
-15.001
 11
340.785
 21
-14.0981
  0
LINE
  8
0
 10
340.785
 20
-14.0981
 11
340.341
 21
-13.1227
  0
LINE
  8
0
 10
340.341
 20
-13.1227
 11
340.024
 21
-12.0747
  0
LINE
  8
0
 10
340.024
 20
-12.0747
 11
339.834
 21
-10.9541
  0
LINE
  8
0
 10
339.834
 20
-10.9541
 11
339.77
 21
-9.76099
  0
LINE
  8
0
 10
339.77
 20
-9.76099
 11
339.806
 21
-8.88644
  0
LINE
  8
0
 10
339.806
 20
-8.88644
 11
339.911
 21
-8.04451
  0
LINE
  8
0
 10
339.911
 20
-8.04451
 11
340.088
 21
-7.23517
  0
LINE
  8
0
 10
340.088
 20
-7.23517
 11
340.335
 21
-6.45847
  0
LINE
  8
0
 10
340.335
 20
-6.45847
 11
340.652
 21
-5.71436
  0
LINE
  8
0
 10
340.652
 20
-5.71436
 11
341.04
 21
-5.00287
  0
LINE
  8
0
 10
341.04
 20
-5.00287
 11
341.498
 21
-4.32399
  0
LINE
  8
0
 10
341.498
 20
-4.32399
 11
342.018
 21
-3.6969
  0
LINE
  8
0
 10
342.018
 20
-3.6969
 11
342.589
 21
-3.14023
  0
LINE
  8
0
 10
342.589
 20
-3.14023
 11
343.212
 21
-2.65396
  0
LINE
  8
0
 10
343.212
 20
-2.65396
 11
343.886
 21
-2.2381
  0
LINE
  8
0
 10
343.886
 20
-2.2381
 11
344.612
 21
-1.89265
  0
LINE
  8
0
 10
344.612
 20
-1.89265
 11
345.389
 21
-1.61761
  0
LINE
  8
0
 10
345.389
 20
-1.61761
 11
346.218
 21
-1.41298
  0
LINE
  8
0
 10
346.218
 20
-1.41298
 11
346.218
 21
-1.30998
  0
LINE
  8
0
 10
346.218
 20
-1.30998
 11
345.255
 21
-1.11086
  0
LINE
  8
0
 10
345.255
 20
-1.11086
 11
344.355
 21
-0.837494
  0
LINE
  8
0
 10
344.355
 20
-0.837494
 11
343.518
 21
-0.489868
  0
LINE
  8
0
 10
343.518
 20
-0.489868
 11
342.744
 21
-0.0680237
  0
LINE
  8
0
 10
342.744
 20
-0.0680237
 11
342.034
 21
0.42804
  0
LINE
  8
0
 10
342.034
 20
0.42804
 11
341.387
 21
0.998383
  0
LINE
  8
0
 10
341.387
 20
0.998383
 11
340.802
 21
1.64297
  0
LINE
  8
0
 10
340.802
 20
1.64297
 11
340.289
 21
2.34888
  0
LINE
  8
0
 10
340.289
 20
2.34888
 11
339.855
 21
3.10371
  0
LINE
  8
0
 10
339.855
 20
3.10371
 11
339.499
 21
3.90749
  0
LINE
  8
0
 10
339.499
 20
3.90749
 11
339.223
 21
4.76022
  0
LINE
  8
0
 10
339.223
 20
4.76022
 11
339.025
 21
5.66187
  0
LINE
  8
0
 10
339.025
 20
5.66187
 11
338.907
 21
6.61246
  0
LINE
  8
0
 10
338.907
 20
6.61246
 11
338.867
 21
7.61198
  0
LINE
  8
0
 10
338.867
 20
7.61198
 11
338.933
 21
9.00359
  0
LINE
  8
0
 10
338.933
 20
9.00359
 11
339.128
 21
10.3046
  0
LINE
  8
0
 10
339.128
 20
10.3046
 11
339.455
 21
11.5152
  0
LINE
  8
0
 10
339.455
 20
11.5152
 11
339.912
 21
12.6352
  0
LINE
  8
0
 10
339.912
 20
12.6352
 11
340.499
 21
13.6646
  0
LINE
  8
0
 10
340.499
 20
13.6646
 11
341.217
 21
14.6036
  0
LINE
  8
0
 10
341.217
 20
14.6036
 11
342.065
 21
15.452
  0
LINE
  8
0
 10
342.065
 20
15.452
 11
343.036
 21
16.1975
  0
LINE
  8
0
 10
343.036
 20
16.1975
 11
344.12
 21
16.8283
  0
LINE
  8
0
 10
344.12
 20
16.8283
 11
345.318
 21
17.3444
  0
LINE
  8
0
 10
345.318
 20
17.3444
 11
346.63
 21
17.7459
  0
LINE
  8
0
 10
346.63
 20
17.7459
 11
348.055
 21
18.0326
  0
LINE
  8
0
 10
348.055
 20
18.0326
 11
349.595
 21
18.2047
  0
LINE
  8
0
 10
349.595
 20
18.2047
 11
351.247
 21
18.262
  0
LINE
  8
0
 10
351.247
 20
18.262
 11
352.861
 21
18.2057
  0
LINE
  8
0
 10
352.861
 20
18.2057
 11
354.371
 21
18.0368
  0
LINE
  8
0
 10
354.371
 20
18.0368
 11
355.777
 21
17.7552
  0
LINE
  8
0
 10
355.777
 20
17.7552
 11
357.08
 21
17.3611
  0
LINE
  8
0
 10
357.08
 20
17.3611
 11
358.279
 21
16.8543
  0
LINE
  8
0
 10
358.279
 20
16.8543
 11
359.374
 21
16.235
  0
LINE
  8
0
 10
359.374
 20
16.235
 11
360.365
 21
15.503
  0
LINE
  8
0
 10
360.365
 20
15.503
 11
361.238
 21
14.6673
  0
LINE
  8
0
 10
361.238
 20
14.6673
 11
361.976
 21
13.737
  0
LINE
  8
0
 10
361.976
 20
13.737
 11
362.58
 21
12.7118
  0
LINE
  8
0
 10
362.58
 20
12.7118
 11
363.049
 21
11.592
  0
LINE
  8
0
 10
363.049
 20
11.592
 11
363.385
 21
10.3774
  0
LINE
  8
0
 10
363.385
 20
10.3774
 11
363.586
 21
9.06805
  0
LINE
  8
0
 10
363.586
 20
9.06805
 11
363.653
 21
7.66397
  0
LINE
  8
0
 10
363.653
 20
7.66397
 11
363.612
 21
6.6703
  0
LINE
  8
0
 10
363.612
 20
6.6703
 11
363.487
 21
5.72301
  0
LINE
  8
0
 10
363.487
 20
5.72301
 11
363.279
 21
4.82207
  0
LINE
  8
0
 10
363.279
 20
4.82207
 11
362.988
 21
3.96748
  0
LINE
  8
0
 10
362.988
 20
3.96748
 11
362.614
 21
3.15929
  0
LINE
  8
0
 10
362.614
 20
3.15929
 11
362.157
 21
2.39745
  0
LINE
  8
0
 10
362.157
 20
2.39745
 11
361.616
 21
1.68198
  0
LINE
  8
0
 10
361.616
 20
1.68198
 11
361.011
 21
1.02835
  0
LINE
  8
0
 10
361.011
 20
1.02835
 11
360.359
 21
0.452591
  0
LINE
  8
0
 10
360.359
 20
0.452591
 11
359.661
 21
-0.0452423
  0
LINE
  8
0
 10
359.661
 20
-0.0452423
 11
358.917
 21
-0.46524
  0
LINE
  8
0
 10
358.917
 20
-0.46524
 11
358.126
 21
-0.807358
  0
LINE
  8
0
 10
358.126
 20
-0.807358
 11
357.289
 21
-1.07161
  0
LINE
  8
0
 10
357.289
 20
-1.07161
 11
356.405
 21
-1.25798
  0
LINE
  8
0
 10
356.405
 20
-1.25798
 11
356.405
 21
-1.36098
  0
LINE
  8
0
 10
356.405
 20
-1.36098
 11
357.227
 21
-1.59296
  0
LINE
  8
0
 10
357.227
 20
-1.59296
 11
357.998
 21
-1.89117
  0
LINE
  8
0
 10
357.998
 20
-1.89117
 11
358.718
 21
-2.25565
  0
LINE
  8
0
 10
358.718
 20
-2.25565
 11
359.387
 21
-2.68637
  0
LINE
  8
0
 10
359.387
 20
-2.68637
 11
360.004
 21
-3.18332
  0
LINE
  8
0
 10
360.004
 20
-3.18332
 11
360.571
 21
-3.74652
  0
LINE
  8
0
 10
360.571
 20
-3.74652
 11
361.086
 21
-4.37599
  0
LINE
  8
0
 10
361.086
 20
-4.37599
 11
361.541
 21
-5.05486
  0
LINE
  8
0
 10
361.541
 20
-5.05486
 11
361.926
 21
-5.76628
  0
LINE
  8
0
 10
361.926
 20
-5.76628
 11
362.241
 21
-6.51028
  0
LINE
  8
0
 10
362.241
 20
-6.51028
 11
362.486
 21
-7.28685
  0
LINE
  8
0
 10
362.486
 20
-7.28685
 11
362.661
 21
-8.09599
  0
LINE
  8
0
 10
362.661
 20
-8.09599
 11
362.766
 21
-8.93771
  0
LINE
  8
0
 10
362.766
 20
-8.93771
 11
362.801
 21
-9.812
  0
LINE
  8
0
 10
362.801
 20
-9.812
 11
362.738
 21
-10.9653
  0
LINE
  8
0
 10
362.738
 20
-10.9653
 11
362.548
 21
-12.0544
  0
LINE
  8
0
 10
362.548
 20
-12.0544
 11
362.23
 21
-13.0794
  0
LINE
  8
0
 10
362.23
 20
-13.0794
 11
361.786
 21
-14.0401
  0
LINE
  8
0
 10
361.786
 20
-14.0401
 11
361.216
 21
-14.9366
  0
LINE
  8
0
 10
361.216
 20
-14.9366
 11
360.518
 21
-15.7689
  0
LINE
  8
0
 10
360.518
 20
-15.7689
 11
359.693
 21
-16.537
  0
LINE
  8
0
 10
359.693
 20
-16.537
 11
358.762
 21
-17.2207
  0
LINE
  8
0
 10
358.762
 20
-17.2207
 11
357.744
 21
-17.7992
  0
LINE
  8
0
 10
357.744
 20
-17.7992
 11
356.639
 21
-18.2725
  0
LINE
  8
0
 10
356.639
 20
-18.2725
 11
355.447
 21
-18.6407
  0
LINE
  8
0
 10
355.447
 20
-18.6407
 11
354.168
 21
-18.9036
  0
LINE
  8
0
 10
354.168
 20
-18.9036
 11
352.803
 21
-19.0614
  0
LINE
  8
0
 10
352.803
 20
-19.0614
 11
351.35
 21
-19.114
  0
LINE
  8
0
 10
351.35
 20
-19.114
 11
349.864
 21
-19.0625
  0
LINE
  8
0
 10
352.329
 20
0.40361
 11
353.244
 21
0.51651
  0
LINE
  8
0
 10
353.244
 20
0.51651
 11
354.096
 21
0.704666
  0
LINE
  8
0
 10
354.096
 20
0.704666
 11
354.885
 21
0.968094
  0
LINE
  8
0
 10
354.885
 20
0.968094
 11
355.611
 21
1.30679
  0
LINE
  8
0
 10
355.611
 20
1.30679
 11
356.273
 21
1.72075
  0
LINE
  8
0
 10
356.273
 20
1.72075
 11
356.872
 21
2.20998
  0
LINE
  8
0
 10
356.872
 20
2.20998
 11
357.399
 21
2.76498
  0
LINE
  8
0
 10
357.399
 20
2.76498
 11
357.845
 21
3.37627
  0
LINE
  8
0
 10
357.845
 20
3.37627
 11
358.21
 21
4.04384
  0
LINE
  8
0
 10
358.21
 20
4.04384
 11
358.494
 21
4.7677
  0
LINE
  8
0
 10
358.494
 20
4.7677
 11
358.696
 21
5.54785
  0
LINE
  8
0
 10
358.696
 20
5.54785
 11
358.818
 21
6.38428
  0
LINE
  8
0
 10
358.818
 20
6.38428
 11
358.858
 21
7.27699
  0
LINE
  8
0
 10
358.858
 20
7.27699
 11
358.702
 21
9.26811
  0
LINE
  8
0
 10
358.702
 20
9.26811
 11
358.233
 21
10.9529
  0
LINE
  8
0
 10
358.233
 20
10.9529
 11
357.451
 21
12.3314
  0
LINE
  8
0
 10
357.451
 20
12.3314
 11
356.356
 21
13.4035
  0
LINE
  8
0
 10
356.356
 20
13.4035
 11
354.949
 21
14.1693
  0
LINE
  8
0
 10
354.949
 20
14.1693
 11
353.229
 21
14.6288
  0
LINE
  8
0
 10
353.229
 20
14.6288
 11
351.196
 21
14.782
  0
LINE
  8
0
 10
351.196
 20
14.782
 11
350.152
 21
14.7449
  0
LINE
  8
0
 10
350.152
 20
14.7449
 11
349.187
 21
14.6336
  0
LINE
  8
0
 10
349.187
 20
14.6336
 11
348.301
 21
14.4481
  0
LINE
  8
0
 10
348.301
 20
14.4481
 11
347.494
 21
14.1884
  0
LINE
  8
0
 10
347.494
 20
14.1884
 11
346.766
 21
13.8544
  0
LINE
  8
0
 10
346.766
 20
13.8544
 11
346.116
 21
13.4463
  0
LINE
  8
0
 10
346.116
 20
13.4463
 11
345.546
 21
12.964
  0
LINE
  8
0
 10
345.546
 20
12.964
 11
345.053
 21
12.4006
  0
LINE
  8
0
 10
345.053
 20
12.4006
 11
344.636
 21
11.7493
  0
LINE
  8
0
 10
344.636
 20
11.7493
 11
344.295
 21
11.0101
  0
LINE
  8
0
 10
344.295
 20
11.0101
 11
344.03
 21
10.1829
  0
LINE
  8
0
 10
344.03
 20
10.1829
 11
343.84
 21
9.26787
  0
LINE
  8
0
 10
343.84
 20
9.26787
 11
343.726
 21
8.26489
  0
LINE
  8
0
 10
343.726
 20
8.26489
 11
343.688
 21
7.17398
  0
LINE
  8
0
 10
343.688
 20
7.17398
 11
343.729
 21
6.24277
  0
LINE
  8
0
 10
343.729
 20
6.24277
 11
343.853
 21
5.37944
  0
LINE
  8
0
 10
343.853
 20
5.37944
 11
344.058
 21
4.584
  0
LINE
  8
0
 10
344.058
 20
4.584
 11
344.346
 21
3.85643
  0
LINE
  8
0
 10
344.346
 20
3.85643
 11
344.715
 21
3.19673
  0
LINE
  8
0
 10
344.715
 20
3.19673
 11
345.167
 21
2.60492
  0
LINE
  8
0
 10
345.167
 20
2.60492
 11
345.701
 21
2.08098
  0
LINE
  8
0
 10
345.701
 20
2.08098
 11
346.309
 21
1.62598
  0
LINE
  8
0
 10
346.309
 20
1.62598
 11
346.984
 21
1.24098
  0
LINE
  8
0
 10
346.984
 20
1.24098
 11
347.724
 21
0.92598
  0
LINE
  8
0
 10
347.724
 20
0.92598
 11
348.531
 21
0.680984
  0
LINE
  8
0
 10
348.531
 20
0.680984
 11
349.405
 21
0.505981
  0
LINE
  8
0
 10
349.405
 20
0.505981
 11
350.344
 21
0.40097
  0
LINE
  8
0
 10
350.344
 20
0.40097
 11
351.35
 21
0.365982
  0
LINE
  8
0
 10
351.35
 20
0.365982
 11
352.329
 21
0.40361
  0
LINE
  8
0
 10
352.255
 20
-15.6274
 11
353.095
 21
-15.5328
  0
LINE
  8
0
 10
353.095
 20
-15.5328
 11
353.872
 21
-15.375
  0
LINE
  8
0
 10
353.872
 20
-15.375
 11
354.585
 21
-15.1542
  0
LINE
  8
0
 10
354.585
 20
-15.1542
 11
355.234
 21
-14.8702
  0
LINE
  8
0
 10
355.234
 20
-14.8702
 11
355.82
 21
-14.5232
  0
LINE
  8
0
 10
355.82
 20
-14.5232
 11
356.342
 21
-14.113
  0
LINE
  8
0
 10
356.342
 20
-14.113
 11
356.797
 21
-13.6405
  0
LINE
  8
0
 10
356.797
 20
-13.6405
 11
357.182
 21
-13.106
  0
LINE
  8
0
 10
357.182
 20
-13.106
 11
357.497
 21
-12.5093
  0
LINE
  8
0
 10
357.497
 20
-12.5093
 11
357.742
 21
-11.8506
  0
LINE
  8
0
 10
357.742
 20
-11.8506
 11
357.917
 21
-11.1298
  0
LINE
  8
0
 10
357.917
 20
-11.1298
 11
358.022
 21
-10.347
  0
LINE
  8
0
 10
358.022
 20
-10.347
 11
358.057
 21
-9.502
  0
LINE
  8
0
 10
358.057
 20
-9.502
 11
358.021
 21
-8.64165
  0
LINE
  8
0
 10
358.021
 20
-8.64165
 11
357.913
 21
-7.84175
  0
LINE
  8
0
 10
357.913
 20
-7.84175
 11
357.733
 21
-7.10229
  0
LINE
  8
0
 10
357.733
 20
-7.10229
 11
357.48
 21
-6.42329
  0
LINE
  8
0
 10
357.48
 20
-6.42329
 11
357.156
 21
-5.80475
  0
LINE
  8
0
 10
357.156
 20
-5.80475
 11
356.759
 21
-5.24664
  0
LINE
  8
0
 10
356.759
 20
-5.24664
 11
356.29
 21
-4.74899
  0
LINE
  8
0
 10
356.29
 20
-4.74899
 11
355.756
 21
-4.31522
  0
LINE
  8
0
 10
355.756
 20
-4.31522
 11
355.162
 21
-3.94817
  0
LINE
  8
0
 10
355.162
 20
-3.94817
 11
354.508
 21
-3.64786
  0
LINE
  8
0
 10
354.508
 20
-3.64786
 11
353.795
 21
-3.41428
  0
LINE
  8
0
 10
353.795
 20
-3.41428
 11
353.022
 21
-3.24745
  0
LINE
  8
0
 10
353.022
 20
-3.24745
 11
352.19
 21
-3.14734
  0
LINE
  8
0
 10
352.19
 20
-3.14734
 11
351.298
 21
-3.11398
  0
LINE
  8
0
 10
351.298
 20
-3.11398
 11
350.394
 21
-3.14473
  0
LINE
  8
0
 10
350.394
 20
-3.14473
 11
349.554
 21
-3.237
  0
LINE
  8
0
 10
349.554
 20
-3.237
 11
348.777
 21
-3.39078
  0
LINE
  8
0
 10
348.777
 20
-3.39078
 11
348.064
 21
-3.60606
  0
LINE
  8
0
 10
348.064
 20
-3.60606
 11
347.415
 21
-3.88286
  0
LINE
  8
0
 10
347.415
 20
-3.88286
 11
346.829
 21
-4.22118
  0
LINE
  8
0
 10
346.829
 20
-4.22118
 11
346.307
 21
-4.62099
  0
LINE
  8
0
 10
346.307
 20
-4.62099
 11
345.852
 21
-5.08966
  0
LINE
  8
0
 10
345.852
 20
-5.08966
 11
345.467
 21
-5.63454
  0
LINE
  8
0
 10
345.467
 20
-5.63454
 11
345.152
 21
-6.25563
  0
LINE
  8
0
 10
345.152
 20
-6.25563
 11
344.907
 21
-6.95291
  0
LINE
  8
0
 10
344.907
 20
-6.95291
 11
344.731
 21
-7.72639
  0
LINE
  8
0
 10
344.731
 20
-7.72639
 11
344.626
 21
-8.5761
  0
LINE
  8
0
 10
344.626
 20
-8.5761
 11
344.591
 21
-9.502
  0
LINE
  8
0
 10
344.591
 20
-9.502
 11
344.729
 21
-11.1355
  0
LINE
  8
0
 10
344.729
 20
-11.1355
 11
345.143
 21
-12.5177
  0
LINE
  8
0
 10
345.143
 20
-12.5177
 11
345.833
 21
-13.6485
  0
LINE
  8
0
 10
345.833
 20
-13.6485
 11
346.798
 21
-14.5281
  0
LINE
  8
0
 10
346.798
 20
-14.5281
 11
348.04
 21
-15.1564
  0
LINE
  8
0
 10
348.04
 20
-15.1564
 11
349.557
 21
-15.5333
  0
LINE
  8
0
 10
349.557
 20
-15.5333
 11
351.35
 21
-15.659
  0
LINE
  8
0
 10
351.35
 20
-15.659
 11
352.255
 21
-15.6274
  0
LINE
  8
0
 10
19.115
 20
-29.1051
 11
19.4289
 21
-29.1051
  0
LINE
  8
0
 10
19.4289
 20
-29.1051
 11
20.0519
 21
-29.0264
  0
LINE
  8
0
 10
20.0519
 20
-29.0264
 11
20.6601
 21
-28.8703
  0
LINE
  8
0
 10
20.6601
 20
-28.8703
 11
21.2439
 21
-28.6391
  0
LINE
  8
0
 10
21.2439
 20
-28.6391
 11
21.7941
 21
-28.3366
  0
LINE
  8
0
 10
21.7941
 20
-28.3366
 11
22.3021
 21
-27.9676
  0
LINE
  8
0
 10
22.3021
 20
-27.9676
 11
22.7598
 21
-27.5377
  0
LINE
  8
0
 10
22.7598
 20
-27.5377
 11
23.1601
 21
-27.0539
  0
LINE
  8
0
 10
23.1601
 20
-27.0539
 11
23.4965
 21
-26.5238
  0
LINE
  8
0
 10
23.4965
 20
-26.5238
 11
23.7639
 21
-25.9556
  0
LINE
  8
0
 10
23.7639
 20
-25.9556
 11
23.9579
 21
-25.3584
  0
LINE
  8
0
 10
23.9579
 20
-25.3584
 11
24.0756
 21
-24.7417
  0
LINE
  8
0
 10
24.0756
 20
-24.7417
 11
24.115
 21
-24.115
  0
LINE
  8
0
 10
24.115
 20
-24.115
 11
24.115
 21
24.115
  0
LINE
  8
0
 10
24.115
 20
24.115
 11
24.0756
 21
24.7417
  0
LINE
  8
0
 10
24.0756
 20
24.7417
 11
23.9579
 21
25.3584
  0
LINE
  8
0
 10
23.9579
 20
25.3584
 11
23.7639
 21
25.9556
  0
LINE
  8
0
 10
23.7639
 20
25.9556
 11
23.4965
 21
26.5238
  0
LINE
  8
0
 10
23.4965
 20
26.5238
 11
23.1601
 21
27.0539
  0
LINE
  8
0
 10
23.1601
 20
27.0539
 11
22.7598
 21
27.5377
  0
LINE
  8
0
 10
22.7598
 20
27.5377
 11
22.3021
 21
27.9676
  0
LINE
  8
0
 10
22.3021
 20
27.9676
 11
21.7941
 21
28.3366
  0
LINE
  8
0
 10
21.7941
 20
28.3366
 11
21.2439
 21
28.6391
  0
LINE
  8
0
 10
21.2439
 20
28.6391
 11
20.6601
 21
28.8703
  0
LINE
  8
0
 10
20.6601
 20
28.8703
 11
20.0519
 21
29.0264
  0
LINE
  8
0
 10
20.0519
 20
29.0264
 11
19.4289
 21
29.1051
  0
LINE
  8
0
 10
19.4289
 20
29.1051
 11
19.115
 21
29.1051
  0
LINE
  8
0
 10
19.115
 20
29.1051
 11
19.115
 21
29.115
  0
LINE
  8
0
 10
19.115
 20
29.115
 11
0.571426
 21
29.115
  0
LINE
  8
0
 10
0.571426
 20
29.115
 11
0.606949
 21
29.1355
  0
LINE
  8
0
 10
0.606949
 20
29.1355
 11
-1.67874
 21
33.0945
  0
LINE
  8
0
 10
-1.67874
 20
33.0945
 11
-1.71428
 21
33.074
  0
LINE
  8
0
 10
-1.71428
 20
33.074
 11
-1.71428
 21
33.115
  0
LINE
  8
0
 10
-1.71428
 20
33.115
 11
-6.28571
 21
33.115
  0
LINE
  8
0
 10
-6.28571
 20
33.115
 11
-6.28571
 21
33.074
  0
LINE
  8
0
 10
-6.28571
 20
33.074
 11
-6.32124
 21
33.0945
  0
LINE
  8
0
 10
-6.32124
 20
33.0945
 11
-8.60695
 21
29.1355
  0
LINE
  8
0
 10
-8.60695
 20
29.1355
 11
-8.57143
 21
29.115
  0
LINE
  8
0
 10
-8.57143
 20
29.115
 11
-19.115
 21
29.115
  0
LINE
  8
0
 10
-19.115
 20
29.115
 11
-19.115
 21
29.1051
  0
LINE
  8
0
 10
-19.115
 20
29.1051
 11
-19.4289
 21
29.1051
  0
LINE
  8
0
 10
-19.4289
 20
29.1051
 11
-20.0519
 21
29.0264
  0
LINE
  8
0
 10
-20.0519
 20
29.0264
 11
-20.6601
 21
28.8703
  0
LINE
  8
0
 10
-20.6601
 20
28.8703
 11
-21.2439
 21
28.6391
  0
LINE
  8
0
 10
-21.2439
 20
28.6391
 11
-21.7941
 21
28.3366
  0
LINE
  8
0
 10
-21.7941
 20
28.3366
 11
-22.3021
 21
27.9676
  0
LINE
  8
0
 10
-22.3021
 20
27.9676
 11
-22.7598
 21
27.5377
  0
LINE
  8
0
 10
-22.7598
 20
27.5377
 11
-23.1601
 21
27.0539
  0
LINE
  8
0
 10
-23.1601
 20
27.0539
 11
-23.4965
 21
26.5238
  0
LINE
  8
0
 10
-23.4965
 20
26.5238
 11
-23.7639
 21
25.9556
  0
LINE
  8
0
 10
-23.7639
 20
25.9556
 11
-23.9579
 21
25.3584
  0
LINE
  8
0
 10
-23.9579
 20
25.3584
 11
-24.0756
 21
24.7417
  0
LINE
  8
0
 10
-24.0756
 20
24.7417
 11
-24.115
 21
24.115
  0
LINE
  8
0
 10
-24.115
 20
24.115
 11
-24.115
 21
-24.115
  0
LINE
  8
0
 10
-24.115
 20
-24.115
 11
-24.0756
 21
-24.7417
  0
LINE
  8
0
 10
-24.0756
 20
-24.7417
 11
-23.9579
 21
-25.3584
  0
LINE
  8
0
 10
-23.9579
 20
-25.3584
 11
-23.7639
 21
-25.9556
  0
LINE
  8
0
 10
-23.7639
 20
-25.9556
 11
-23.4965
 21
-26.5238
  0
LINE
  8
0
 10
-23.4965
 20
-26.5238
 11
-23.1601
 21
-27.0539
  0
LINE
  8
0
 10
-23.1601
 20
-27.0539
 11
-22.7598
 21
-27.5377
  0
LINE
  8
0
 10
-22.7598
 20
-27.5377
 11
-22.3021
 21
-27.9676
  0
LINE
  8
0
 10
-22.3021
 20
-27.9676
 11
-21.7941
 21
-28.3366
  0
LINE
  8
0
 10
-21.7941
 20
-28.3366
 11
-21.2439
 21
-28.6391
  0
LINE
  8
0
 10
-21.2439
 20
-28.6391
 11
-20.6601
 21
-28.8703
  0
LINE
  8
0
 10
-20.6601
 20
-28.8703
 11
-20.0519
 21
-29.0264
  0
LINE
  8
0
 10
-20.0519
 20
-29.0264
 11
-19.4289
 21
-29.1051
  0
LINE
  8
0
 10
-19.4289
 20
-29.1051
 11
-19.115
 21
-29.1051
  0
LINE
  8
0
 10
-19.115
 20
-29.1051
 11
-19.115
 21
-29.115
  0
LINE
  8
0
 10
-19.115
 20
-29.115
 11
19.115
 21
-29.115
  0
LINE
  8
0
 10
19.115
 20
-29.115
 11
19.115
 21
-29.1051
  0
LINE
  8
0
 10
-3.6106
 20
-18.602
 11
-3.6106
 21
13.805
  0
LINE
  8
0
 10
-3.6106
 20
13.805
 11
-12.4536
 21
13.805
  0
LINE
  8
0
 10
-12.4536
 20
13.805
 11
-12.4536
 21
17.75
  0
LINE
  8
0
 10
-12.4536
 20
17.75
 11
10.3114
 21
17.75
  0
LINE
  8
0
 10
10.3114
 20
17.75
 11
10.3114
 21
13.805
  0
LINE
  8
0
 10
10.3114
 20
13.805
 11
1.05635
 21
13.805
  0
LINE
  8
0
 10
1.05635
 20
13.805
 11
1.05635
 21
-14.167
  0
LINE
  8
0
 10
1.05635
 20
-14.167
 11
9.25436
 21
-8.29799
  0
LINE
  8
0
 10
9.25436
 20
-8.29799
 11
9.25436
 21
-12.681
  0
LINE
  8
0
 10
9.25436
 20
-12.681
 11
0.669357
 21
-18.602
  0
LINE
  8
0
 10
0.669357
 20
-18.602
 11
-3.6106
 21
-18.602
  0
LINE
  8
0
 10
320.495
 20
-29.1051
 11
320.809
 21
-29.1051
  0
LINE
  8
0
 10
320.809
 20
-29.1051
 11
321.432
 21
-29.0264
  0
LINE
  8
0
 10
321.432
 20
-29.0264
 11
322.04
 21
-28.8703
  0
LINE
  8
0
 10
322.04
 20
-28.8703
 11
322.624
 21
-28.6391
  0
LINE
  8
0
 10
322.624
 20
-28.6391
 11
323.174
 21
-28.3366
  0
LINE
  8
0
 10
323.174
 20
-28.3366
 11
323.682
 21
-27.9676
  0
LINE
  8
0
 10
323.682
 20
-27.9676
 11
324.14
 21
-27.5377
  0
LINE
  8
0
 10
324.14
 20
-27.5377
 11
324.54
 21
-27.0539
  0
LINE
  8
0
 10
324.54
 20
-27.0539
 11
324.877
 21
-26.5238
  0
LINE
  8
0
 10
324.877
 20
-26.5238
 11
325.144
 21
-25.9556
  0
LINE
  8
0
 10
325.144
 20
-25.9556
 11
325.338
 21
-25.3584
  0
LINE
  8
0
 10
325.338
 20
-25.3584
 11
325.456
 21
-24.7417
  0
LINE
  8
0
 10
325.456
 20
-24.7417
 11
325.495
 21
-24.115
  0
LINE
  8
0
 10
325.495
 20
-24.115
 11
325.495
 21
24.115
  0
LINE
  8
0
 10
325.495
 20
24.115
 11
325.456
 21
24.7417
  0
LINE
  8
0
 10
325.456
 20
24.7417
 11
325.338
 21
25.3584
  0
LINE
  8
0
 10
325.338
 20
25.3584
 11
325.144
 21
25.9556
  0
LINE
  8
0
 10
325.144
 20
25.9556
 11
324.877
 21
26.5238
  0
LINE
  8
0
 10
324.877
 20
26.5238
 11
324.54
 21
27.0539
  0
LINE
  8
0
 10
324.54
 20
27.0539
 11
324.14
 21
27.5377
  0
LINE
  8
0
 10
324.14
 20
27.5377
 11
323.682
 21
27.9676
  0
LINE
  8
0
 10
323.682
 20
27.9676
 11
323.174
 21
28.3366
  0
LINE
  8
0
 10
323.174
 20
28.3366
 11
322.624
 21
28.6391
  0
LINE
  8
0
 10
322.624
 20
28.6391
 11
322.04
 21
28.8703
  0
LINE
  8
0
 10
322.04
 20
28.8703
 11
321.432
 21
29.0264
  0
LINE
  8
0
 10
321.432
 20
29.0264
 11
320.809
 21
29.1051
  0
LINE
  8
0
 10
320.809
 20
29.1051
 11
320.495
 21
29.1051
  0
LINE
  8
0
 10
320.495
 20
29.1051
 11
320.495
 21
29.115
  0
LINE
  8
0
 10
320.495
 20
29.115
 11
301.951
 21
29.115
  0
LINE
  8
0
 10
301.951
 20
29.115
 11
301.987
 21
29.1355
  0
LINE
  8
0
 10
301.987
 20
29.1355
 11
299.701
 21
33.0945
  0
LINE
  8
0
 10
299.701
 20
33.0945
 11
299.666
 21
33.074
  0
LINE
  8
0
 10
299.666
 20
33.074
 11
299.666
 21
33.115
  0
LINE
  8
0
 10
299.666
 20
33.115
 11
295.094
 21
33.115
  0
LINE
  8
0
 10
295.094
 20
33.115
 11
295.094
 21
33.074
  0
LINE
  8
0
 10
295.094
 20
33.074
 11
295.059
 21
33.0945
  0
LINE
  8
0
 10
295.059
 20
33.0945
 11
292.773
 21
29.1355
  0
LINE
  8
0
 10
292.773
 20
29.1355
 11
292.809
 21
29.115
  0
LINE
  8
0
 10
292.809
 20
29.115
 11
282.265
 21
29.115
  0
LINE
  8
0
 10
282.265
 20
29.115
 11
282.265
 21
29.1051
  0
LINE
  8
0
 10
282.265
 20
29.1051
 11
281.951
 21
29.1051
  0
LINE
  8
0
 10
281.951
 20
29.1051
 11
281.328
 21
29.0264
  0
LINE
  8
0
 10
281.328
 20
29.0264
 11
280.72
 21
28.8703
  0
LINE
  8
0
 10
280.72
 20
28.8703
 11
280.136
 21
28.6391
  0
LINE
  8
0
 10
280.136
 20
28.6391
 11
279.586
 21
28.3366
  0
LINE
  8
0
 10
279.586
 20
28.3366
 11
279.078
 21
27.9676
  0
LINE
  8
0
 10
279.078
 20
27.9676
 11
278.62
 21
27.5377
  0
LINE
  8
0
 10
278.62
 20
27.5377
 11
278.22
 21
27.0539
  0
LINE
  8
0
 10
278.22
 20
27.0539
 11
277.883
 21
26.5238
  0
LINE
  8
0
 10
277.883
 20
26.5238
 11
277.616
 21
25.9556
  0
LINE
  8
0
 10
277.616
 20
25.9556
 11
277.422
 21
25.3584
  0
LINE
  8
0
 10
277.422
 20
25.3584
 11
277.304
 21
24.7417
  0
LINE
  8
0
 10
277.304
 20
24.7417
 11
277.265
 21
24.115
  0
LINE
  8
0
 10
277.265
 20
24.115
 11
277.265
 21
-24.115
  0
LINE
  8
0
 10
277.265
 20
-24.115
 11
277.304
 21
-24.7417
  0
LINE
  8
0
 10
277.304
 20
-24.7417
 11
277.422
 21
-25.3584
  0
LINE
  8
0
 10
277.422
 20
-25.3584
 11
277.616
 21
-25.9556
  0
LINE
  8
0
 10
277.616
 20
-25.9556
 11
277.883
 21
-26.5238
  0
LINE
  8
0
 10
277.883
 20
-26.5238
 11
278.22
 21
-27.0539
  0
LINE
  8
0
 10
278.22
 20
-27.0539
 11
278.62
 21
-27.5377
  0
LINE
  8
0
 10
278.62
 20
-27.5377
 11
279.078
 21
-27.9676
  0
LINE
  8
0
 10
279.078
 20
-27.9676
 11
279.586
 21
-28.3366
  0
LINE
  8
0
 10
279.586
 20
-28.3366
 11
280.136
 21
-28.6391
  0
LINE
  8
0
 10
280.136
 20
-28.6391
 11
280.72
 21
-28.8703
  0
LINE
  8
0
 10
280.72
 20
-28.8703
 11
281.328
 21
-29.0264
  0
LINE
  8
0
 10
281.328
 20
-29.0264
 11
281.951
 21
-29.1051
  0
LINE
  8
0
 10
281.951
 20
-29.1051
 11
282.265
 21
-29.1051
  0
LINE
  8
0
 10
282.265
 20
-29.1051
 11
282.265
 21
-29.115
  0
LINE
  8
0
 10
282.265
 20
-29.115
 11
320.495
 21
-29.115
  0
LINE
  8
0
 10
320.495
 20
-29.115
 11
320.495
 21
-29.1051
  0
LINE
  8
0
 10
288.998
 20
-18.602
 11
288.998
 21
-14.838
  0
LINE
  8
0
 10
288.998
 20
-14.838
 11
290.524
 21
-12.4804
  0
LINE
  8
0
 10
290.524
 20
-12.4804
 11
291.915
 21
-10.2735
  0
LINE
  8
0
 10
291.915
 20
-10.2735
 11
293.173
 21
-8.21718
  0
LINE
  8
0
 10
293.173
 20
-8.21718
 11
294.297
 21
-6.31146
  0
LINE
  8
0
 10
294.297
 20
-6.31146
 11
295.287
 21
-4.55637
  0
LINE
  8
0
 10
295.287
 20
-4.55637
 11
296.144
 21
-2.95186
  0
LINE
  8
0
 10
296.144
 20
-2.95186
 11
296.866
 21
-1.49797
  0
LINE
  8
0
 10
296.866
 20
-1.49797
 11
297.499
 21
-0.12204
  0
LINE
  8
0
 10
297.499
 20
-0.12204
 11
298.084
 21
1.2486
  0
LINE
  8
0
 10
298.084
 20
1.2486
 11
298.623
 21
2.614
  0
LINE
  8
0
 10
298.623
 20
2.614
 11
299.115
 21
3.97414
  0
LINE
  8
0
 10
299.115
 20
3.97414
 11
299.56
 21
5.32903
  0
LINE
  8
0
 10
299.56
 20
5.32903
 11
299.958
 21
6.67865
  0
LINE
  8
0
 10
299.958
 20
6.67865
 11
300.309
 21
8.02299
  0
LINE
  8
0
 10
300.309
 20
8.02299
 11
300.614
 21
9.37154
  0
LINE
  8
0
 10
300.614
 20
9.37154
 11
300.872
 21
10.7338
  0
LINE
  8
0
 10
300.872
 20
10.7338
 11
301.083
 21
12.1097
  0
LINE
  8
0
 10
301.083
 20
12.1097
 11
301.247
 21
13.4992
  0
LINE
  8
0
 10
301.247
 20
13.4992
 11
301.364
 21
14.9025
  0
LINE
  8
0
 10
301.364
 20
14.9025
 11
301.434
 21
16.3194
  0
LINE
  8
0
 10
301.434
 20
16.3194
 11
301.457
 21
17.75
  0
LINE
  8
0
 10
301.457
 20
17.75
 11
306.304
 21
17.75
  0
LINE
  8
0
 10
306.304
 20
17.75
 11
306.244
 21
15.7447
  0
LINE
  8
0
 10
306.244
 20
15.7447
 11
306.063
 21
13.7093
  0
LINE
  8
0
 10
306.063
 20
13.7093
 11
305.762
 21
11.644
  0
LINE
  8
0
 10
305.762
 20
11.644
 11
305.34
 21
9.54852
  0
LINE
  8
0
 10
305.34
 20
9.54852
 11
304.798
 21
7.42303
  0
LINE
  8
0
 10
304.798
 20
7.42303
 11
304.135
 21
5.26755
  0
LINE
  8
0
 10
304.135
 20
5.26755
 11
303.351
 21
3.08197
  0
LINE
  8
0
 10
303.351
 20
3.08197
 11
302.427
 21
0.833755
  0
LINE
  8
0
 10
302.427
 20
0.833755
 11
301.34
 21
-1.50974
  0
LINE
  8
0
 10
301.34
 20
-1.50974
 11
300.092
 21
-3.94856
  0
LINE
  8
0
 10
300.092
 20
-3.94856
 11
298.683
 21
-6.48273
  0
LINE
  8
0
 10
298.683
 20
-6.48273
 11
297.111
 21
-9.11218
  0
LINE
  8
0
 10
297.111
 20
-9.11218
 11
295.379
 21
-11.8369
  0
LINE
  8
0
 10
295.379
 20
-11.8369
 11
293.484
 21
-14.657
  0
LINE
  8
0
 10
293.484
 20
-14.657
 11
313.01
 21
-14.657
  0
LINE
  8
0
 10
313.01
 20
-14.657
 11
313.01
 21
-18.602
  0
LINE
  8
0
 10
313.01
 20
-18.602
 11
288.998
 21
-18.602
  0
LINE
  8
0
 10
270.265
 20
-29.1051
 11
270.579
 21
-29.1051
  0
LINE
  8
0
 10
270.579
 20
-29.1051
 11
271.202
 21
-29.0264
  0
LINE
  8
0
 10
271.202
 20
-29.0264
 11
271.81
 21
-28.8703
  0
LINE
  8
0
 10
271.81
 20
-28.8703
 11
272.394
 21
-28.6391
  0
LINE
  8
0
 10
272.394
 20
-28.6391
 11
272.944
 21
-28.3366
  0
LINE
  8
0
 10
272.944
 20
-28.3366
 11
273.452
 21
-27.9676
  0
LINE
  8
0
 10
273.452
 20
-27.9676
 11
273.91
 21
-27.5377
  0
LINE
  8
0
 10
273.91
 20
-27.5377
 11
274.31
 21
-27.0539
  0
LINE
  8
0
 10
274.31
 20
-27.0539
 11
274.647
 21
-26.5238
  0
LINE
  8
0
 10
274.647
 20
-26.5238
 11
274.914
 21
-25.9556
  0
LINE
  8
0
 10
274.914
 20
-25.9556
 11
275.108
 21
-25.3584
  0
LINE
  8
0
 10
275.108
 20
-25.3584
 11
275.226
 21
-24.7417
  0
LINE
  8
0
 10
275.226
 20
-24.7417
 11
275.265
 21
-24.115
  0
LINE
  8
0
 10
275.265
 20
-24.115
 11
275.265
 21
24.115
  0
LINE
  8
0
 10
275.265
 20
24.115
 11
275.226
 21
24.7417
  0
LINE
  8
0
 10
275.226
 20
24.7417
 11
275.108
 21
25.3584
  0
LINE
  8
0
 10
275.108
 20
25.3584
 11
274.914
 21
25.9556
  0
LINE
  8
0
 10
274.914
 20
25.9556
 11
274.647
 21
26.5238
  0
LINE
  8
0
 10
274.647
 20
26.5238
 11
274.31
 21
27.0539
  0
LINE
  8
0
 10
274.31
 20
27.0539
 11
273.91
 21
27.5377
  0
LINE
  8
0
 10
273.91
 20
27.5377
 11
273.452
 21
27.9676
  0
LINE
  8
0
 10
273.452
 20
27.9676
 11
272.944
 21
28.3366
  0
LINE
  8
0
 10
272.944
 20
28.3366
 11
272.394
 21
28.6391
  0
LINE
  8
0
 10
272.394
 20
28.6391
 11
271.81
 21
28.8703
  0
LINE
  8
0
 10
271.81
 20
28.8703
 11
271.202
 21
29.0264
  0
LINE
  8
0
 10
271.202
 20
29.0264
 11
270.579
 21
29.1051
  0
LINE
  8
0
 10
270.579
 20
29.1051
 11
270.265
 21
29.1051
  0
LINE
  8
0
 10
270.265
 20
29.1051
 11
270.265
 21
29.115
  0
LINE
  8
0
 10
270.265
 20
29.115
 11
259.721
 21
29.115
  0
LINE
  8
0
 10
259.721
 20
29.115
 11
259.757
 21
29.1355
  0
LINE
  8
0
 10
259.757
 20
29.1355
 11
257.471
 21
33.0945
  0
LINE
  8
0
 10
257.471
 20
33.0945
 11
257.436
 21
33.074
  0
LINE
  8
0
 10
257.436
 20
33.074
 11
257.436
 21
33.115
  0
LINE
  8
0
 10
257.436
 20
33.115
 11
252.864
 21
33.115
  0
LINE
  8
0
 10
252.864
 20
33.115
 11
252.864
 21
33.074
  0
LINE
  8
0
 10
252.864
 20
33.074
 11
252.829
 21
33.0945
  0
LINE
  8
0
 10
252.829
 20
33.0945
 11
250.543
 21
29.1355
  0
LINE
  8
0
 10
250.543
 20
29.1355
 11
250.579
 21
29.115
  0
LINE
  8
0
 10
250.579
 20
29.115
 11
232.035
 21
29.115
  0
LINE
  8
0
 10
232.035
 20
29.115
 11
232.035
 21
29.1051
  0
LINE
  8
0
 10
232.035
 20
29.1051
 11
231.721
 21
29.1051
  0
LINE
  8
0
 10
231.721
 20
29.1051
 11
231.098
 21
29.0264
  0
LINE
  8
0
 10
231.098
 20
29.0264
 11
230.49
 21
28.8703
  0
LINE
  8
0
 10
230.49
 20
28.8703
 11
229.906
 21
28.6391
  0
LINE
  8
0
 10
229.906
 20
28.6391
 11
229.356
 21
28.3366
  0
LINE
  8
0
 10
229.356
 20
28.3366
 11
228.848
 21
27.9676
  0
LINE
  8
0
 10
228.848
 20
27.9676
 11
228.39
 21
27.5377
  0
LINE
  8
0
 10
228.39
 20
27.5377
 11
227.99
 21
27.0539
  0
LINE
  8
0
 10
227.99
 20
27.0539
 11
227.653
 21
26.5238
  0
LINE
  8
0
 10
227.653
 20
26.5238
 11
227.386
 21
25.9556
  0
LINE
  8
0
 10
227.386
 20
25.9556
 11
227.192
 21
25.3584
  0
LINE
  8
0
 10
227.192
 20
25.3584
 11
227.074
 21
24.7417
  0
LINE
  8
0
 10
227.074
 20
24.7417
 11
227.035
 21
24.115
  0
LINE
  8
0
 10
227.035
 20
24.115
 11
227.035
 21
-24.115
  0
LINE
  8
0
 10
227.035
 20
-24.115
 11
227.074
 21
-24.7417
  0
LINE
  8
0
 10
227.074
 20
-24.7417
 11
227.192
 21
-25.3584
  0
LINE
  8
0
 10
227.192
 20
-25.3584
 11
227.386
 21
-25.9556
  0
LINE
  8
0
 10
227.386
 20
-25.9556
 11
227.653
 21
-26.5238
  0
LINE
  8
0
 10
227.653
 20
-26.5238
 11
227.99
 21
-27.0539
  0
LINE
  8
0
 10
227.99
 20
-27.0539
 11
228.39
 21
-27.5377
  0
LINE
  8
0
 10
228.39
 20
-27.5377
 11
228.848
 21
-27.9676
  0
LINE
  8
0
 10
228.848
 20
-27.9676
 11
229.356
 21
-28.3366
  0
LINE
  8
0
 10
229.356
 20
-28.3366
 11
229.906
 21
-28.6391
  0
LINE
  8
0
 10
229.906
 20
-28.6391
 11
230.49
 21
-28.8703
  0
LINE
  8
0
 10
230.49
 20
-28.8703
 11
231.098
 21
-29.0264
  0
LINE
  8
0
 10
231.098
 20
-29.0264
 11
231.721
 21
-29.1051
  0
LINE
  8
0
 10
231.721
 20
-29.1051
 11
232.035
 21
-29.1051
  0
LINE
  8
0
 10
232.035
 20
-29.1051
 11
232.035
 21
-29.115
  0
LINE
  8
0
 10
232.035
 20
-29.115
 11
270.265
 21
-29.115
  0
LINE
  8
0
 10
270.265
 20
-29.115
 11
270.265
 21
-29.1051
  0
LINE
  8
0
 10
247.581
 20
-18.963
 11
245.603
 21
-18.51
  0
LINE
  8
0
 10
245.603
 20
-18.51
 11
243.874
 21
-17.755
  0
LINE
  8
0
 10
243.874
 20
-17.755
 11
242.392
 21
-16.698
  0
LINE
  8
0
 10
242.392
 20
-16.698
 11
241.16
 21
-15.339
  0
LINE
  8
0
 10
241.16
 20
-15.339
 11
240.175
 21
-13.678
  0
LINE
  8
0
 10
240.175
 20
-13.678
 11
239.439
 21
-11.715
  0
LINE
  8
0
 10
239.439
 20
-11.715
 11
243.873
 21
-10.916
  0
LINE
  8
0
 10
243.873
 20
-10.916
 11
244.33
 21
-12.0924
  0
LINE
  8
0
 10
244.33
 20
-12.0924
 11
244.92
 21
-13.0878
  0
LINE
  8
0
 10
244.92
 20
-13.0878
 11
245.642
 21
-13.9022
  0
LINE
  8
0
 10
245.642
 20
-13.9022
 11
246.497
 21
-14.5356
  0
LINE
  8
0
 10
246.497
 20
-14.5356
 11
247.485
 21
-14.988
  0
LINE
  8
0
 10
247.485
 20
-14.988
 11
248.605
 21
-15.2595
  0
LINE
  8
0
 10
248.605
 20
-15.2595
 11
249.858
 21
-15.35
  0
LINE
  8
0
 10
249.858
 20
-15.35
 11
250.957
 21
-15.2745
  0
LINE
  8
0
 10
250.957
 20
-15.2745
 11
251.982
 21
-15.048
  0
LINE
  8
0
 10
251.982
 20
-15.048
 11
252.934
 21
-14.6706
  0
LINE
  8
0
 10
252.934
 20
-14.6706
 11
253.813
 21
-14.1422
  0
LINE
  8
0
 10
253.813
 20
-14.1422
 11
254.619
 21
-13.4628
  0
LINE
  8
0
 10
254.619
 20
-13.4628
 11
255.352
 21
-12.6324
  0
LINE
  8
0
 10
255.352
 20
-12.6324
 11
256.011
 21
-11.651
  0
LINE
  8
0
 10
256.011
 20
-11.651
 11
256.59
 21
-10.5268
  0
LINE
  8
0
 10
256.59
 20
-10.5268
 11
257.079
 21
-9.2674
  0
LINE
  8
0
 10
257.079
 20
-9.2674
 11
257.48
 21
-7.87277
  0
LINE
  8
0
 10
257.48
 20
-7.87277
 11
257.791
 21
-6.34291
  0
LINE
  8
0
 10
257.791
 20
-6.34291
 11
258.013
 21
-4.67783
  0
LINE
  8
0
 10
258.013
 20
-4.67783
 11
258.147
 21
-2.8775
  0
LINE
  8
0
 10
258.147
 20
-2.8775
 11
258.191
 21
-0.941971
  0
LINE
  8
0
 10
258.191
 20
-0.941971
 11
257.809
 21
-1.58939
  0
LINE
  8
0
 10
257.809
 20
-1.58939
 11
257.385
 21
-2.19104
  0
LINE
  8
0
 10
257.385
 20
-2.19104
 11
256.919
 21
-2.74693
  0
LINE
  8
0
 10
256.919
 20
-2.74693
 11
256.41
 21
-3.25708
  0
LINE
  8
0
 10
256.41
 20
-3.25708
 11
255.86
 21
-3.72147
  0
LINE
  8
0
 10
255.86
 20
-3.72147
 11
255.267
 21
-4.14012
  0
LINE
  8
0
 10
255.267
 20
-4.14012
 11
254.632
 21
-4.51299
  0
LINE
  8
0
 10
254.632
 20
-4.51299
 11
253.963
 21
-4.838
  0
LINE
  8
0
 10
253.963
 20
-4.838
 11
253.266
 21
-5.11299
  0
LINE
  8
0
 10
253.266
 20
-5.11299
 11
252.541
 21
-5.338
  0
LINE
  8
0
 10
252.541
 20
-5.338
 11
251.79
 21
-5.51299
  0
LINE
  8
0
 10
251.79
 20
-5.51299
 11
251.011
 21
-5.63799
  0
LINE
  8
0
 10
251.011
 20
-5.63799
 11
250.204
 21
-5.713
  0
LINE
  8
0
 10
250.204
 20
-5.713
 11
249.37
 21
-5.73799
  0
LINE
  8
0
 10
249.37
 20
-5.73799
 11
247.976
 21
-5.67381
  0
LINE
  8
0
 10
247.976
 20
-5.67381
 11
246.666
 21
-5.48126
  0
LINE
  8
0
 10
246.666
 20
-5.48126
 11
245.44
 21
-5.16034
  0
LINE
  8
0
 10
245.44
 20
-5.16034
 11
244.3
 21
-4.71106
  0
LINE
  8
0
 10
244.3
 20
-4.71106
 11
243.244
 21
-4.13341
  0
LINE
  8
0
 10
243.244
 20
-4.13341
 11
242.273
 21
-3.42737
  0
LINE
  8
0
 10
242.273
 20
-3.42737
 11
241.387
 21
-2.59297
  0
LINE
  8
0
 10
241.387
 20
-2.59297
 11
240.604
 21
-1.65022
  0
LINE
  8
0
 10
240.604
 20
-1.65022
 11
239.941
 21
-0.619095
  0
LINE
  8
0
 10
239.941
 20
-0.619095
 11
239.398
 21
0.500351
  0
LINE
  8
0
 10
239.398
 20
0.500351
 11
238.976
 21
1.70821
  0
LINE
  8
0
 10
238.976
 20
1.70821
 11
238.675
 21
3.00443
  0
LINE
  8
0
 10
238.675
 20
3.00443
 11
238.494
 21
4.38902
  0
LINE
  8
0
 10
238.494
 20
4.38902
 11
238.433
 21
5.86198
  0
LINE
  8
0
 10
238.433
 20
5.86198
 11
238.497
 21
7.45511
  0
LINE
  8
0
 10
238.497
 20
7.45511
 11
238.688
 21
8.94934
  0
LINE
  8
0
 10
238.688
 20
8.94934
 11
239.007
 21
10.3447
  0
LINE
  8
0
 10
239.007
 20
10.3447
 11
239.452
 21
11.6411
  0
LINE
  8
0
 10
239.452
 20
11.6411
 11
240.026
 21
12.8386
  0
LINE
  8
0
 10
240.026
 20
12.8386
 11
240.726
 21
13.9373
  0
LINE
  8
0
 10
240.726
 20
13.9373
 11
241.554
 21
14.937
  0
LINE
  8
0
 10
241.554
 20
14.937
 11
242.495
 21
15.8191
  0
LINE
  8
0
 10
242.495
 20
15.8191
 11
243.531
 21
16.5656
  0
LINE
  8
0
 10
243.531
 20
16.5656
 11
244.665
 21
17.1763
  0
LINE
  8
0
 10
244.665
 20
17.1763
 11
245.896
 21
17.6513
  0
LINE
  8
0
 10
245.896
 20
17.6513
 11
247.223
 21
17.9906
  0
LINE
  8
0
 10
247.223
 20
17.9906
 11
248.647
 21
18.1941
  0
LINE
  8
0
 10
248.647
 20
18.1941
 11
250.168
 21
18.262
  0
LINE
  8
0
 10
250.168
 20
18.262
 11
251.863
 21
18.1689
  0
LINE
  8
0
 10
251.863
 20
18.1689
 11
253.441
 21
17.8896
  0
LINE
  8
0
 10
253.441
 20
17.8896
 11
254.9
 21
17.4241
  0
LINE
  8
0
 10
254.9
 20
17.4241
 11
256.241
 21
16.7724
  0
LINE
  8
0
 10
256.241
 20
16.7724
 11
257.464
 21
15.9344
  0
LINE
  8
0
 10
257.464
 20
15.9344
 11
258.57
 21
14.9103
  0
LINE
  8
0
 10
258.57
 20
14.9103
 11
259.557
 21
13.7
  0
LINE
  8
0
 10
259.557
 20
13.7
 11
260.419
 21
12.3116
  0
LINE
  8
0
 10
260.419
 20
12.3116
 11
261.149
 21
10.7539
  0
LINE
  8
0
 10
261.149
 20
10.7539
 11
261.745
 21
9.02679
  0
LINE
  8
0
 10
261.745
 20
9.02679
 11
262.21
 21
7.13034
  0
LINE
  8
0
 10
262.21
 20
7.13034
 11
262.541
 21
5.06458
  0
LINE
  8
0
 10
262.541
 20
5.06458
 11
262.74
 21
2.82945
  0
LINE
  8
0
 10
262.74
 20
2.82945
 11
262.806
 21
0.424973
  0
LINE
  8
0
 10
262.806
 20
0.424973
 11
262.737
 21
-2.18124
  0
LINE
  8
0
 10
262.737
 20
-2.18124
 11
262.531
 21
-4.60863
  0
LINE
  8
0
 10
262.531
 20
-4.60863
 11
262.186
 21
-6.8571
  0
LINE
  8
0
 10
262.186
 20
-6.8571
 11
261.703
 21
-8.92667
  0
LINE
  8
0
 10
261.703
 20
-8.92667
 11
261.083
 21
-10.8173
  0
LINE
  8
0
 10
261.083
 20
-10.8173
 11
260.325
 21
-12.5291
  0
LINE
  8
0
 10
260.325
 20
-12.5291
 11
259.428
 21
-14.062
  0
LINE
  8
0
 10
259.428
 20
-14.062
 11
258.404
 21
-15.4023
  0
LINE
  8
0
 10
258.404
 20
-15.4023
 11
257.264
 21
-16.5364
  0
LINE
  8
0
 10
257.264
 20
-16.5364
 11
256.006
 21
-17.4644
  0
LINE
  8
0
 10
256.006
 20
-17.4644
 11
254.632
 21
-18.1861
  0
LINE
  8
0
 10
254.632
 20
-18.1861
 11
253.14
 21
-18.7016
  0
LINE
  8
0
 10
253.14
 20
-18.7016
 11
251.532
 21
-19.0109
  0
LINE
  8
0
 10
251.532
 20
-19.0109
 11
249.807
 21
-19.114
  0
LINE
  8
0
 10
249.807
 20
-19.114
 11
247.581
 21
-18.963
  0
LINE
  8
0
 10
251.381
 20
-2.11531
 11
252.233
 21
-1.99928
  0
LINE
  8
0
 10
252.233
 20
-1.99928
 11
253.034
 21
-1.80592
  0
LINE
  8
0
 10
253.034
 20
-1.80592
 11
253.784
 21
-1.5352
  0
LINE
  8
0
 10
253.784
 20
-1.5352
 11
254.483
 21
-1.18713
  0
LINE
  8
0
 10
254.483
 20
-1.18713
 11
255.131
 21
-0.761734
  0
LINE
  8
0
 10
255.131
 20
-0.761734
 11
255.728
 21
-0.258972
  0
LINE
  8
0
 10
255.728
 20
-0.258972
 11
256.259
 21
0.31134
  0
LINE
  8
0
 10
256.259
 20
0.31134
 11
256.707
 21
0.940155
  0
LINE
  8
0
 10
256.707
 20
0.940155
 11
257.075
 21
1.62743
  0
LINE
  8
0
 10
257.075
 20
1.62743
 11
257.36
 21
2.37314
  0
LINE
  8
0
 10
257.36
 20
2.37314
 11
257.564
 21
3.17731
  0
LINE
  8
0
 10
257.564
 20
3.17731
 11
257.687
 21
4.03993
  0
LINE
  8
0
 10
257.687
 20
4.03993
 11
257.727
 21
4.961
  0
LINE
  8
0
 10
257.727
 20
4.961
 11
257.685
 21
6.13026
  0
LINE
  8
0
 10
257.685
 20
6.13026
 11
257.558
 21
7.23749
  0
LINE
  8
0
 10
257.558
 20
7.23749
 11
257.346
 21
8.28267
  0
LINE
  8
0
 10
257.346
 20
8.28267
 11
257.049
 21
9.26581
  0
LINE
  8
0
 10
257.049
 20
9.26581
 11
256.668
 21
10.1869
  0
LINE
  8
0
 10
256.668
 20
10.1869
 11
256.201
 21
11.046
  0
LINE
  8
0
 10
256.201
 20
11.046
 11
255.65
 21
11.843
  0
LINE
  8
0
 10
255.65
 20
11.843
 11
255.033
 21
12.5543
  0
LINE
  8
0
 10
255.033
 20
12.5543
 11
254.368
 21
13.1561
  0
LINE
  8
0
 10
254.368
 20
13.1561
 11
253.655
 21
13.6486
  0
LINE
  8
0
 10
253.655
 20
13.6486
 11
252.894
 21
14.0316
  0
LINE
  8
0
 10
252.894
 20
14.0316
 11
252.085
 21
14.3051
  0
LINE
  8
0
 10
252.085
 20
14.3051
 11
251.228
 21
14.4693
  0
LINE
  8
0
 10
251.228
 20
14.4693
 11
250.323
 21
14.524
  0
LINE
  8
0
 10
250.323
 20
14.524
 11
249.395
 21
14.478
  0
LINE
  8
0
 10
249.395
 20
14.478
 11
248.525
 21
14.3399
  0
LINE
  8
0
 10
248.525
 20
14.3399
 11
247.714
 21
14.1098
  0
LINE
  8
0
 10
247.714
 20
14.1098
 11
246.962
 21
13.7877
  0
LINE
  8
0
 10
246.962
 20
13.7877
 11
246.269
 21
13.3735
  0
LINE
  8
0
 10
246.269
 20
13.3735
 11
245.635
 21
12.8673
  0
LINE
  8
0
 10
245.635
 20
12.8673
 11
245.06
 21
12.269
  0
LINE
  8
0
 10
245.06
 20
12.269
 11
244.554
 21
11.59
  0
LINE
  8
0
 10
244.554
 20
11.59
 11
244.125
 21
10.8421
  0
LINE
  8
0
 10
244.125
 20
10.8421
 11
243.775
 21
10.0252
  0
LINE
  8
0
 10
243.775
 20
10.0252
 11
243.502
 21
9.13953
  0
LINE
  8
0
 10
243.502
 20
9.13953
 11
243.307
 21
8.18491
  0
LINE
  8
0
 10
243.307
 20
8.18491
 11
243.19
 21
7.16139
  0
LINE
  8
0
 10
243.19
 20
7.16139
 11
243.151
 21
6.06897
  0
LINE
  8
0
 10
243.151
 20
6.06897
 11
243.191
 21
4.97896
  0
LINE
  8
0
 10
243.191
 20
4.97896
 11
243.309
 21
3.96262
  0
LINE
  8
0
 10
243.309
 20
3.96262
 11
243.507
 21
3.01994
  0
LINE
  8
0
 10
243.507
 20
3.01994
 11
243.783
 21
2.15094
  0
LINE
  8
0
 10
243.783
 20
2.15094
 11
244.139
 21
1.35561
  0
LINE
  8
0
 10
244.139
 20
1.35561
 11
244.573
 21
0.633957
  0
LINE
  8
0
 10
244.573
 20
0.633957
 11
245.086
 21
-0.0139771
  0
LINE
  8
0
 10
245.086
 20
-0.0139771
 11
245.67
 21
-0.581726
  0
LINE
  8
0
 10
245.67
 20
-0.581726
 11
246.316
 21
-1.06213
  0
LINE
  8
0
 10
246.316
 20
-1.06213
 11
247.025
 21
-1.4552
  0
LINE
  8
0
 10
247.025
 20
-1.4552
 11
247.795
 21
-1.76091
  0
LINE
  8
0
 10
247.795
 20
-1.76091
 11
248.627
 21
-1.97928
  0
LINE
  8
0
 10
248.627
 20
-1.97928
 11
249.522
 21
-2.11031
  0
LINE
  8
0
 10
249.522
 20
-2.11031
 11
250.478
 21
-2.15398
  0
LINE
  8
0
 10
250.478
 20
-2.15398
 11
251.381
 21
-2.11531
  0
LINE
  8
0
 10
420.955
 20
-29.1051
 11
421.269
 21
-29.1051
  0
LINE
  8
0
 10
421.269
 20
-29.1051
 11
421.892
 21
-29.0264
  0
LINE
  8
0
 10
421.892
 20
-29.0264
 11
422.5
 21
-28.8703
  0
LINE
  8
0
 10
422.5
 20
-28.8703
 11
423.084
 21
-28.6391
  0
LINE
  8
0
 10
423.084
 20
-28.6391
 11
423.634
 21
-28.3366
  0
LINE
  8
0
 10
423.634
 20
-28.3366
 11
424.142
 21
-27.9676
  0
LINE
  8
0
 10
424.142
 20
-27.9676
 11
424.6
 21
-27.5377
  0
LINE
  8
0
 10
424.6
 20
-27.5377
 11
425
 21
-27.0539
  0
LINE
  8
0
 10
425
 20
-27.0539
 11
425.337
 21
-26.5238
  0
LINE
  8
0
 10
425.337
 20
-26.5238
 11
425.604
 21
-25.9556
  0
LINE
  8
0
 10
425.604
 20
-25.9556
 11
425.798
 21
-25.3584
  0
LINE
  8
0
 10
425.798
 20
-25.3584
 11
425.916
 21
-24.7417
  0
LINE
  8
0
 10
425.916
 20
-24.7417
 11
425.955
 21
-24.115
  0
LINE
  8
0
 10
425.955
 20
-24.115
 11
425.955
 21
24.115
  0
LINE
  8
0
 10
425.955
 20
24.115
 11
425.916
 21
24.7417
  0
LINE
  8
0
 10
425.916
 20
24.7417
 11
425.798
 21
25.3584
  0
LINE
  8
0
 10
425.798
 20
25.3584
 11
425.604
 21
25.9556
  0
LINE
  8
0
 10
425.604
 20
25.9556
 11
425.337
 21
26.5238
  0
LINE
  8
0
 10
425.337
 20
26.5238
 11
425
 21
27.0539
  0
LINE
  8
0
 10
425
 20
27.0539
 11
424.6
 21
27.5377
  0
LINE
  8
0
 10
424.6
 20
27.5377
 11
424.142
 21
27.9676
  0
LINE
  8
0
 10
424.142
 20
27.9676
 11
423.634
 21
28.3366
  0
LINE
  8
0
 10
423.634
 20
28.3366
 11
423.084
 21
28.6391
  0
LINE
  8
0
 10
423.084
 20
28.6391
 11
422.5
 21
28.8703
  0
LINE
  8
0
 10
422.5
 20
28.8703
 11
421.892
 21
29.0264
  0
LINE
  8
0
 10
421.892
 20
29.0264
 11
421.269
 21
29.1051
  0
LINE
  8
0
 10
421.269
 20
29.1051
 11
420.955
 21
29.1051
  0
LINE
  8
0
 10
420.955
 20
29.1051
 11
420.955
 21
29.115
  0
LINE
  8
0
 10
420.955
 20
29.115
 11
402.411
 21
29.115
  0
LINE
  8
0
 10
402.411
 20
29.115
 11
402.447
 21
29.1355
  0
LINE
  8
0
 10
402.447
 20
29.1355
 11
400.161
 21
33.0945
  0
LINE
  8
0
 10
400.161
 20
33.0945
 11
400.126
 21
33.074
  0
LINE
  8
0
 10
400.126
 20
33.074
 11
400.126
 21
33.115
  0
LINE
  8
0
 10
400.126
 20
33.115
 11
395.554
 21
33.115
  0
LINE
  8
0
 10
395.554
 20
33.115
 11
395.554
 21
33.074
  0
LINE
  8
0
 10
395.554
 20
33.074
 11
395.519
 21
33.0945
  0
LINE
  8
0
 10
395.519
 20
33.0945
 11
393.233
 21
29.1355
  0
LINE
  8
0
 10
393.233
 20
29.1355
 11
393.269
 21
29.115
  0
LINE
  8
0
 10
393.269
 20
29.115
 11
382.725
 21
29.115
  0
LINE
  8
0
 10
382.725
 20
29.115
 11
382.725
 21
29.1051
  0
LINE
  8
0
 10
382.725
 20
29.1051
 11
382.411
 21
29.1051
  0
LINE
  8
0
 10
382.411
 20
29.1051
 11
381.788
 21
29.0264
  0
LINE
  8
0
 10
381.788
 20
29.0264
 11
381.18
 21
28.8703
  0
LINE
  8
0
 10
381.18
 20
28.8703
 11
380.596
 21
28.6391
  0
LINE
  8
0
 10
380.596
 20
28.6391
 11
380.046
 21
28.3366
  0
LINE
  8
0
 10
380.046
 20
28.3366
 11
379.538
 21
27.9676
  0
LINE
  8
0
 10
379.538
 20
27.9676
 11
379.08
 21
27.5377
  0
LINE
  8
0
 10
379.08
 20
27.5377
 11
378.68
 21
27.0539
  0
LINE
  8
0
 10
378.68
 20
27.0539
 11
378.343
 21
26.5238
  0
LINE
  8
0
 10
378.343
 20
26.5238
 11
378.076
 21
25.9556
  0
LINE
  8
0
 10
378.076
 20
25.9556
 11
377.882
 21
25.3584
  0
LINE
  8
0
 10
377.882
 20
25.3584
 11
377.764
 21
24.7417
  0
LINE
  8
0
 10
377.764
 20
24.7417
 11
377.725
 21
24.115
  0
LINE
  8
0
 10
377.725
 20
24.115
 11
377.725
 21
-24.115
  0
LINE
  8
0
 10
377.725
 20
-24.115
 11
377.764
 21
-24.7417
  0
LINE
  8
0
 10
377.764
 20
-24.7417
 11
377.882
 21
-25.3584
  0
LINE
  8
0
 10
377.882
 20
-25.3584
 11
378.076
 21
-25.9556
  0
LINE
  8
0
 10
378.076
 20
-25.9556
 11
378.343
 21
-26.5238
  0
LINE
  8
0
 10
378.343
 20
-26.5238
 11
378.68
 21
-27.0539
  0
LINE
  8
0
 10
378.68
 20
-27.0539
 11
379.08
 21
-27.5377
  0
LINE
  8
0
 10
379.08
 20
-27.5377
 11
379.538
 21
-27.9676
  0
LINE
  8
0
 10
379.538
 20
-27.9676
 11
380.046
 21
-28.3366
  0
LINE
  8
0
 10
380.046
 20
-28.3366
 11
380.596
 21
-28.6391
  0
LINE
  8
0
 10
380.596
 20
-28.6391
 11
381.18
 21
-28.8703
  0
LINE
  8
0
 10
381.18
 20
-28.8703
 11
381.788
 21
-29.0264
  0
LINE
  8
0
 10
381.788
 20
-29.0264
 11
382.411
 21
-29.1051
  0
LINE
  8
0
 10
382.411
 20
-29.1051
 11
382.725
 21
-29.1051
  0
LINE
  8
0
 10
382.725
 20
-29.1051
 11
382.725
 21
-29.115
  0
LINE
  8
0
 10
382.725
 20
-29.115
 11
420.955
 21
-29.115
  0
LINE
  8
0
 10
420.955
 20
-29.115
 11
420.955
 21
-29.1051
  0
LINE
  8
0
 10
399.935
 20
-19.0225
 11
398.383
 21
-18.7479
  0
LINE
  8
0
 10
398.383
 20
-18.7479
 11
396.951
 21
-18.2902
  0
LINE
  8
0
 10
396.951
 20
-18.2902
 11
395.64
 21
-17.6495
  0
LINE
  8
0
 10
395.64
 20
-17.6495
 11
394.448
 21
-16.8257
  0
LINE
  8
0
 10
394.448
 20
-16.8257
 11
393.377
 21
-15.8189
  0
LINE
  8
0
 10
393.377
 20
-15.8189
 11
392.425
 21
-14.629
  0
LINE
  8
0
 10
392.425
 20
-14.629
 11
391.597
 21
-13.2555
  0
LINE
  8
0
 10
391.597
 20
-13.2555
 11
390.897
 21
-11.6979
  0
LINE
  8
0
 10
390.897
 20
-11.6979
 11
390.323
 21
-9.95616
  0
LINE
  8
0
 10
390.323
 20
-9.95616
 11
389.878
 21
-8.0303
  0
LINE
  8
0
 10
389.878
 20
-8.0303
 11
389.559
 21
-5.92032
  0
LINE
  8
0
 10
389.559
 20
-5.92032
 11
389.368
 21
-3.62621
  0
LINE
  8
0
 10
389.368
 20
-3.62621
 11
389.304
 21
-1.14798
  0
LINE
  8
0
 10
389.304
 20
-1.14798
 11
389.374
 21
1.43704
  0
LINE
  8
0
 10
389.374
 20
1.43704
 11
389.583
 21
3.84537
  0
LINE
  8
0
 10
389.583
 20
3.84537
 11
389.932
 21
6.07695
  0
LINE
  8
0
 10
389.932
 20
6.07695
 11
390.42
 21
8.13184
  0
LINE
  8
0
 10
390.42
 20
8.13184
 11
391.048
 21
10.0099
  0
LINE
  8
0
 10
391.048
 20
10.0099
 11
391.816
 21
11.7113
  0
LINE
  8
0
 10
391.816
 20
11.7113
 11
392.722
 21
13.236
  0
LINE
  8
0
 10
392.722
 20
13.236
 11
393.758
 21
14.5694
  0
LINE
  8
0
 10
393.758
 20
14.5694
 11
394.912
 21
15.6977
  0
LINE
  8
0
 10
394.912
 20
15.6977
 11
396.184
 21
16.6208
  0
LINE
  8
0
 10
396.184
 20
16.6208
 11
397.575
 21
17.3389
  0
LINE
  8
0
 10
397.575
 20
17.3389
 11
399.084
 21
17.8517
  0
LINE
  8
0
 10
399.084
 20
17.8517
 11
400.711
 21
18.1594
  0
LINE
  8
0
 10
400.711
 20
18.1594
 11
402.457
 21
18.262
  0
LINE
  8
0
 10
402.457
 20
18.262
 11
403.639
 21
18.2254
  0
LINE
  8
0
 10
403.639
 20
18.2254
 11
404.751
 21
18.1157
  0
LINE
  8
0
 10
404.751
 20
18.1157
 11
405.795
 21
17.9328
  0
LINE
  8
0
 10
405.795
 20
17.9328
 11
406.77
 21
17.6768
  0
LINE
  8
0
 10
406.77
 20
17.6768
 11
407.675
 21
17.3477
  0
LINE
  8
0
 10
407.675
 20
17.3477
 11
408.512
 21
16.9454
  0
LINE
  8
0
 10
408.512
 20
16.9454
 11
409.279
 21
16.47
  0
LINE
  8
0
 10
409.279
 20
16.47
 11
409.983
 21
15.913
  0
LINE
  8
0
 10
409.983
 20
15.913
 11
410.627
 21
15.2661
  0
LINE
  8
0
 10
410.627
 20
15.2661
 11
411.211
 21
14.5292
  0
LINE
  8
0
 10
411.211
 20
14.5292
 11
411.736
 21
13.7023
  0
LINE
  8
0
 10
411.736
 20
13.7023
 11
412.202
 21
12.7855
  0
LINE
  8
0
 10
412.202
 20
12.7855
 11
412.608
 21
11.7787
  0
LINE
  8
0
 10
412.608
 20
11.7787
 11
412.954
 21
10.682
  0
LINE
  8
0
 10
412.954
 20
10.682
 11
408.52
 21
9.98599
  0
LINE
  8
0
 10
408.52
 20
9.98599
 11
408.054
 21
11.19
  0
LINE
  8
0
 10
408.054
 20
11.19
 11
407.451
 21
12.2087
  0
LINE
  8
0
 10
407.451
 20
12.2087
 11
406.71
 21
13.0422
  0
LINE
  8
0
 10
406.71
 20
13.0422
 11
405.833
 21
13.6905
  0
LINE
  8
0
 10
405.833
 20
13.6905
 11
404.819
 21
14.1535
  0
LINE
  8
0
 10
404.819
 20
14.1535
 11
403.668
 21
14.4314
  0
LINE
  8
0
 10
403.668
 20
14.4314
 11
402.38
 21
14.524
  0
LINE
  8
0
 10
402.38
 20
14.524
 11
401.275
 21
14.4482
  0
LINE
  8
0
 10
401.275
 20
14.4482
 11
400.243
 21
14.2207
  0
LINE
  8
0
 10
400.243
 20
14.2207
 11
399.285
 21
13.8416
  0
LINE
  8
0
 10
399.285
 20
13.8416
 11
398.401
 21
13.3109
  0
LINE
  8
0
 10
398.401
 20
13.3109
 11
397.59
 21
12.6286
  0
LINE
  8
0
 10
397.59
 20
12.6286
 11
396.853
 21
11.7946
  0
LINE
  8
0
 10
396.853
 20
11.7946
 11
396.189
 21
10.809
  0
LINE
  8
0
 10
396.189
 20
10.809
 11
395.605
 21
9.68253
  0
LINE
  8
0
 10
395.605
 20
9.68253
 11
395.107
 21
8.42654
  0
LINE
  8
0
 10
395.107
 20
8.42654
 11
394.694
 21
7.04103
  0
LINE
  8
0
 10
394.694
 20
7.04103
 11
394.366
 21
5.52603
  0
LINE
  8
0
 10
394.366
 20
5.52603
 11
394.123
 21
3.88153
  0
LINE
  8
0
 10
394.123
 20
3.88153
 11
393.965
 21
2.10751
  0
LINE
  8
0
 10
393.965
 20
2.10751
 11
393.893
 21
0.203979
  0
LINE
  8
0
 10
393.893
 20
0.203979
 11
394.218
 21
0.84816
  0
LINE
  8
0
 10
394.218
 20
0.84816
 11
394.603
 21
1.455
  0
LINE
  8
0
 10
394.603
 20
1.455
 11
395.048
 21
2.02449
  0
LINE
  8
0
 10
395.048
 20
2.02449
 11
395.553
 21
2.55663
  0
LINE
  8
0
 10
395.553
 20
2.55663
 11
396.118
 21
3.05142
  0
LINE
  8
0
 10
396.118
 20
3.05142
 11
396.743
 21
3.50888
  0
LINE
  8
0
 10
396.743
 20
3.50888
 11
397.427
 21
3.92897
  0
LINE
  8
0
 10
397.427
 20
3.92897
 11
398.152
 21
4.30173
  0
LINE
  8
0
 10
398.152
 20
4.30173
 11
398.897
 21
4.61714
  0
LINE
  8
0
 10
398.897
 20
4.61714
 11
399.662
 21
4.8752
  0
LINE
  8
0
 10
399.662
 20
4.8752
 11
400.447
 21
5.07591
  0
LINE
  8
0
 10
400.447
 20
5.07591
 11
401.252
 21
5.21928
  0
LINE
  8
0
 10
401.252
 20
5.21928
 11
402.076
 21
5.3053
  0
LINE
  8
0
 10
402.076
 20
5.3053
 11
402.921
 21
5.33398
  0
LINE
  8
0
 10
402.921
 20
5.33398
 11
404.281
 21
5.26562
  0
LINE
  8
0
 10
404.281
 20
5.26562
 11
405.561
 21
5.06059
  0
LINE
  8
0
 10
405.561
 20
5.06059
 11
406.762
 21
4.71886
  0
LINE
  8
0
 10
406.762
 20
4.71886
 11
407.882
 21
4.24043
  0
LINE
  8
0
 10
407.882
 20
4.24043
 11
408.922
 21
3.62531
  0
LINE
  8
0
 10
408.922
 20
3.62531
 11
409.882
 21
2.87349
  0
LINE
  8
0
 10
409.882
 20
2.87349
 11
410.762
 21
1.98497
  0
LINE
  8
0
 10
410.762
 20
1.98497
 11
411.542
 21
0.983429
  0
LINE
  8
0
 10
411.542
 20
0.983429
 11
412.202
 21
-0.107468
  0
LINE
  8
0
 10
412.202
 20
-0.107468
 11
412.742
 21
-1.2878
  0
LINE
  8
0
 10
412.742
 20
-1.2878
 11
413.162
 21
-2.55751
  0
LINE
  8
0
 10
413.162
 20
-2.55751
 11
413.462
 21
-3.91661
  0
LINE
  8
0
 10
413.462
 20
-3.91661
 11
413.642
 21
-5.36511
  0
LINE
  8
0
 10
413.642
 20
-5.36511
 11
413.702
 21
-6.903
  0
LINE
  8
0
 10
413.702
 20
-6.903
 11
413.637
 21
-8.47989
  0
LINE
  8
0
 10
413.637
 20
-8.47989
 11
413.441
 21
-9.95744
  0
LINE
  8
0
 10
413.441
 20
-9.95744
 11
413.115
 21
-11.3356
  0
LINE
  8
0
 10
413.115
 20
-11.3356
 11
412.658
 21
-12.6145
  0
LINE
  8
0
 10
412.658
 20
-12.6145
 11
412.071
 21
-13.794
  0
LINE
  8
0
 10
412.071
 20
-13.794
 11
411.353
 21
-14.8742
  0
LINE
  8
0
 10
411.353
 20
-14.8742
 11
410.504
 21
-15.855
  0
LINE
  8
0
 10
410.504
 20
-15.855
 11
409.54
 21
-16.7196
  0
LINE
  8
0
 10
409.54
 20
-16.7196
 11
408.473
 21
-17.4512
  0
LINE
  8
0
 10
408.473
 20
-17.4512
 11
407.304
 21
-18.0498
  0
LINE
  8
0
 10
407.304
 20
-18.0498
 11
406.033
 21
-18.5154
  0
LINE
  8
0
 10
406.033
 20
-18.5154
 11
404.659
 21
-18.8479
  0
LINE
  8
0
 10
404.659
 20
-18.8479
 11
403.184
 21
-19.0475
  0
LINE
  8
0
 10
403.184
 20
-19.0475
 11
401.606
 21
-19.114
  0
LINE
  8
0
 10
401.606
 20
-19.114
 11
399.935
 21
-19.0225
  0
LINE
  8
0
 10
402.69
 20
-15.3035
 11
403.562
 21
-15.164
  0
LINE
  8
0
 10
403.562
 20
-15.164
 11
404.375
 21
-14.9314
  0
LINE
  8
0
 10
404.375
 20
-14.9314
 11
405.13
 21
-14.6058
  0
LINE
  8
0
 10
405.13
 20
-14.6058
 11
405.828
 21
-14.1872
  0
LINE
  8
0
 10
405.828
 20
-14.1872
 11
406.468
 21
-13.6756
  0
LINE
  8
0
 10
406.468
 20
-13.6756
 11
407.049
 21
-13.071
  0
LINE
  8
0
 10
407.049
 20
-13.071
 11
407.563
 21
-12.387
  0
LINE
  8
0
 10
407.563
 20
-12.387
 11
407.997
 21
-11.6373
  0
LINE
  8
0
 10
407.997
 20
-11.6373
 11
408.353
 21
-10.8219
  0
LINE
  8
0
 10
408.353
 20
-10.8219
 11
408.629
 21
-9.9407
  0
LINE
  8
0
 10
408.629
 20
-9.9407
 11
408.826
 21
-8.99385
  0
LINE
  8
0
 10
408.826
 20
-8.99385
 11
408.945
 21
-7.98128
  0
LINE
  8
0
 10
408.945
 20
-7.98128
 11
408.984
 21
-6.903
  0
LINE
  8
0
 10
408.984
 20
-6.903
 11
408.945
 21
-5.80374
  0
LINE
  8
0
 10
408.945
 20
-5.80374
 11
408.826
 21
-4.77229
  0
LINE
  8
0
 10
408.826
 20
-4.77229
 11
408.629
 21
-3.80862
  0
LINE
  8
0
 10
408.629
 20
-3.80862
 11
408.353
 21
-2.91277
  0
LINE
  8
0
 10
408.353
 20
-2.91277
 11
407.997
 21
-2.08472
  0
LINE
  8
0
 10
407.997
 20
-2.08472
 11
407.563
 21
-1.32445
  0
LINE
  8
0
 10
407.563
 20
-1.32445
 11
407.049
 21
-0.631973
  0
LINE
  8
0
 10
407.049
 20
-0.631973
 11
406.469
 21
-0.0204468
  0
LINE
  8
0
 10
406.469
 20
-0.0204468
 11
405.832
 21
0.496964
  0
LINE
  8
0
 10
405.832
 20
0.496964
 11
405.14
 21
0.920319
  0
LINE
  8
0
 10
405.14
 20
0.920319
 11
404.392
 21
1.2496
  0
LINE
  8
0
 10
404.392
 20
1.2496
 11
403.588
 21
1.48482
  0
LINE
  8
0
 10
403.588
 20
1.48482
 11
402.728
 21
1.62593
  0
LINE
  8
0
 10
402.728
 20
1.62593
 11
401.812
 21
1.67297
  0
LINE
  8
0
 10
401.812
 20
1.67297
 11
401.243
 21
1.65433
  0
LINE
  8
0
 10
401.243
 20
1.65433
 11
400.686
 21
1.59836
  0
LINE
  8
0
 10
400.686
 20
1.59836
 11
400.14
 21
1.5051
  0
LINE
  8
0
 10
400.14
 20
1.5051
 11
399.606
 21
1.37453
  0
LINE
  8
0
 10
399.606
 20
1.37453
 11
399.083
 21
1.20665
  0
LINE
  8
0
 10
399.083
 20
1.20665
 11
398.572
 21
1.00146
  0
LINE
  8
0
 10
398.572
 20
1.00146
 11
398.072
 21
0.758972
  0
LINE
  8
0
 10
398.072
 20
0.758972
 11
397.593
 21
0.48233
  0
LINE
  8
0
 10
397.593
 20
0.48233
 11
397.144
 21
0.174652
  0
LINE
  8
0
 10
397.144
 20
0.174652
 11
396.726
 21
-0.164001
  0
LINE
  8
0
 10
396.726
 20
-0.164001
 11
396.337
 21
-0.533707
  0
LINE
  8
0
 10
396.337
 20
-0.533707
 11
395.978
 21
-0.934448
  0
LINE
  8
0
 10
395.978
 20
-0.934448
 11
395.649
 21
-1.3662
  0
LINE
  8
0
 10
395.649
 20
-1.3662
 11
395.35
 21
-1.82898
  0
LINE
  8
0
 10
395.35
 20
-1.82898
 11
395.087
 21
-2.31673
  0
LINE
  8
0
 10
395.087
 20
-2.31673
 11
394.864
 21
-2.82343
  0
LINE
  8
0
 10
394.864
 20
-2.82343
 11
394.682
 21
-3.34906
  0
LINE
  8
0
 10
394.682
 20
-3.34906
 11
394.54
 21
-3.89363
  0
LINE
  8
0
 10
394.54
 20
-3.89363
 11
394.438
 21
-4.45715
  0
LINE
  8
0
 10
394.438
 20
-4.45715
 11
394.378
 21
-5.03961
  0
LINE
  8
0
 10
394.378
 20
-5.03961
 11
394.357
 21
-5.64099
  0
LINE
  8
0
 10
394.357
 20
-5.64099
 11
394.398
 21
-6.85689
  0
LINE
  8
0
 10
394.398
 20
-6.85689
 11
394.522
 21
-8.00287
  0
LINE
  8
0
 10
394.522
 20
-8.00287
 11
394.727
 21
-9.07893
  0
LINE
  8
0
 10
394.727
 20
-9.07893
 11
395.014
 21
-10.0851
  0
LINE
  8
0
 10
395.014
 20
-10.0851
 11
395.384
 21
-11.0213
  0
LINE
  8
0
 10
395.384
 20
-11.0213
 11
395.836
 21
-11.8876
  0
LINE
  8
0
 10
395.836
 20
-11.8876
 11
396.369
 21
-12.684
  0
LINE
  8
0
 10
396.369
 20
-12.684
 11
396.972
 21
-13.3913
  0
LINE
  8
0
 10
396.972
 20
-13.3913
 11
397.631
 21
-13.9898
  0
LINE
  8
0
 10
397.631
 20
-13.9898
 11
398.345
 21
-14.4795
  0
LINE
  8
0
 10
398.345
 20
-14.4795
 11
399.116
 21
-14.8603
  0
LINE
  8
0
 10
399.116
 20
-14.8603
 11
399.942
 21
-15.1324
  0
LINE
  8
0
 10
399.942
 20
-15.1324
 11
400.824
 21
-15.2956
  0
LINE
  8
0
 10
400.824
 20
-15.2956
 11
401.761
 21
-15.35
  0
LINE
  8
0
 10
401.761
 20
-15.35
 11
402.69
 21
-15.3035
  0
LINE
  8
0
 10
220.035
 20
-29.1051
 11
220.349
 21
-29.1051
  0
LINE
  8
0
 10
220.349
 20
-29.1051
 11
220.972
 21
-29.0264
  0
LINE
  8
0
 10
220.972
 20
-29.0264
 11
221.58
 21
-28.8703
  0
LINE
  8
0
 10
221.58
 20
-28.8703
 11
222.164
 21
-28.6391
  0
LINE
  8
0
 10
222.164
 20
-28.6391
 11
222.714
 21
-28.3366
  0
LINE
  8
0
 10
222.714
 20
-28.3366
 11
223.222
 21
-27.9676
  0
LINE
  8
0
 10
223.222
 20
-27.9676
 11
223.68
 21
-27.5377
  0
LINE
  8
0
 10
223.68
 20
-27.5377
 11
224.08
 21
-27.0539
  0
LINE
  8
0
 10
224.08
 20
-27.0539
 11
224.417
 21
-26.5238
  0
LINE
  8
0
 10
224.417
 20
-26.5238
 11
224.684
 21
-25.9556
  0
LINE
  8
0
 10
224.684
 20
-25.9556
 11
224.878
 21
-25.3584
  0
LINE
  8
0
 10
224.878
 20
-25.3584
 11
224.996
 21
-24.7417
  0
LINE
  8
0
 10
224.996
 20
-24.7417
 11
225.035
 21
-24.115
  0
LINE
  8
0
 10
225.035
 20
-24.115
 11
225.035
 21
24.115
  0
LINE
  8
0
 10
225.035
 20
24.115
 11
224.996
 21
24.7417
  0
LINE
  8
0
 10
224.996
 20
24.7417
 11
224.878
 21
25.3584
  0
LINE
  8
0
 10
224.878
 20
25.3584
 11
224.684
 21
25.9556
  0
LINE
  8
0
 10
224.684
 20
25.9556
 11
224.417
 21
26.5238
  0
LINE
  8
0
 10
224.417
 20
26.5238
 11
224.08
 21
27.0539
  0
LINE
  8
0
 10
224.08
 20
27.0539
 11
223.68
 21
27.5377
  0
LINE
  8
0
 10
223.68
 20
27.5377
 11
223.222
 21
27.9676
  0
LINE
  8
0
 10
223.222
 20
27.9676
 11
222.714
 21
28.3366
  0
LINE
  8
0
 10
222.714
 20
28.3366
 11
222.164
 21
28.6391
  0
LINE
  8
0
 10
222.164
 20
28.6391
 11
221.58
 21
28.8703
  0
LINE
  8
0
 10
221.58
 20
28.8703
 11
220.972
 21
29.0264
  0
LINE
  8
0
 10
220.972
 20
29.0264
 11
220.349
 21
29.1051
  0
LINE
  8
0
 10
220.349
 20
29.1051
 11
220.035
 21
29.1051
  0
LINE
  8
0
 10
220.035
 20
29.1051
 11
220.035
 21
29.115
  0
LINE
  8
0
 10
220.035
 20
29.115
 11
201.491
 21
29.115
  0
LINE
  8
0
 10
201.491
 20
29.115
 11
201.527
 21
29.1355
  0
LINE
  8
0
 10
201.527
 20
29.1355
 11
199.241
 21
33.0945
  0
LINE
  8
0
 10
199.241
 20
33.0945
 11
199.206
 21
33.074
  0
LINE
  8
0
 10
199.206
 20
33.074
 11
199.206
 21
33.115
  0
LINE
  8
0
 10
199.206
 20
33.115
 11
194.634
 21
33.115
  0
LINE
  8
0
 10
194.634
 20
33.115
 11
194.634
 21
33.074
  0
LINE
  8
0
 10
194.634
 20
33.074
 11
194.599
 21
33.0945
  0
LINE
  8
0
 10
194.599
 20
33.0945
 11
192.313
 21
29.1355
  0
LINE
  8
0
 10
192.313
 20
29.1355
 11
192.349
 21
29.115
  0
LINE
  8
0
 10
192.349
 20
29.115
 11
181.805
 21
29.115
  0
LINE
  8
0
 10
181.805
 20
29.115
 11
181.805
 21
29.1051
  0
LINE
  8
0
 10
181.805
 20
29.1051
 11
181.491
 21
29.1051
  0
LINE
  8
0
 10
181.491
 20
29.1051
 11
180.868
 21
29.0264
  0
LINE
  8
0
 10
180.868
 20
29.0264
 11
180.26
 21
28.8703
  0
LINE
  8
0
 10
180.26
 20
28.8703
 11
179.676
 21
28.6391
  0
LINE
  8
0
 10
179.676
 20
28.6391
 11
179.126
 21
28.3366
  0
LINE
  8
0
 10
179.126
 20
28.3366
 11
178.618
 21
27.9676
  0
LINE
  8
0
 10
178.618
 20
27.9676
 11
178.16
 21
27.5377
  0
LINE
  8
0
 10
178.16
 20
27.5377
 11
177.76
 21
27.0539
  0
LINE
  8
0
 10
177.76
 20
27.0539
 11
177.423
 21
26.5238
  0
LINE
  8
0
 10
177.423
 20
26.5238
 11
177.156
 21
25.9556
  0
LINE
  8
0
 10
177.156
 20
25.9556
 11
176.962
 21
25.3584
  0
LINE
  8
0
 10
176.962
 20
25.3584
 11
176.844
 21
24.7417
  0
LINE
  8
0
 10
176.844
 20
24.7417
 11
176.805
 21
24.115
  0
LINE
  8
0
 10
176.805
 20
24.115
 11
176.805
 21
-24.115
  0
LINE
  8
0
 10
176.805
 20
-24.115
 11
176.844
 21
-24.7417
  0
LINE
  8
0
 10
176.844
 20
-24.7417
 11
176.962
 21
-25.3584
  0
LINE
  8
0
 10
176.962
 20
-25.3584
 11
177.156
 21
-25.9556
  0
LINE
  8
0
 10
177.156
 20
-25.9556
 11
177.423
 21
-26.5238
  0
LINE
  8
0
 10
177.423
 20
-26.5238
 11
177.76
 21
-27.0539
  0
LINE
  8
0
 10
177.76
 20
-27.0539
 11
178.16
 21
-27.5377
  0
LINE
  8
0
 10
178.16
 20
-27.5377
 11
178.618
 21
-27.9676
  0
LINE
  8
0
 10
178.618
 20
-27.9676
 11
179.126
 21
-28.3366
  0
LINE
  8
0
 10
179.126
 20
-28.3366
 11
179.676
 21
-28.6391
  0
LINE
  8
0
 10
179.676
 20
-28.6391
 11
180.26
 21
-28.8703
  0
LINE
  8
0
 10
180.26
 20
-28.8703
 11
180.868
 21
-29.0264
  0
LINE
  8
0
 10
180.868
 20
-29.0264
 11
181.491
 21
-29.1051
  0
LINE
  8
0
 10
181.491
 20
-29.1051
 11
181.805
 21
-29.1051
  0
LINE
  8
0
 10
181.805
 20
-29.1051
 11
181.805
 21
-29.115
  0
LINE
  8
0
 10
181.805
 20
-29.115
 11
220.035
 21
-29.115
  0
LINE
  8
0
 10
220.035
 20
-29.115
 11
220.035
 21
-29.1051
  0
LINE
  8
0
 10
190.215
 20
-18.852
 11
190.215
 21
-14.907
  0
LINE
  8
0
 10
190.215
 20
-14.907
 11
206.646
 21
-14.907
  0
LINE
  8
0
 10
206.646
 20
-14.907
 11
207.342
 21
-3.34798
  0
LINE
  8
0
 10
207.342
 20
-3.34798
 11
206.45
 21
-3.96349
  0
LINE
  8
0
 10
206.45
 20
-3.96349
 11
205.498
 21
-4.48431
  0
LINE
  8
0
 10
205.498
 20
-4.48431
 11
204.486
 21
-4.91045
  0
LINE
  8
0
 10
204.486
 20
-4.91045
 11
203.413
 21
-5.24187
  0
LINE
  8
0
 10
203.413
 20
-5.24187
 11
202.281
 21
-5.47861
  0
LINE
  8
0
 10
202.281
 20
-5.47861
 11
201.089
 21
-5.62065
  0
LINE
  8
0
 10
201.089
 20
-5.62065
 11
199.836
 21
-5.668
  0
LINE
  8
0
 10
199.836
 20
-5.668
 11
198.348
 21
-5.60384
  0
LINE
  8
0
 10
198.348
 20
-5.60384
 11
196.949
 21
-5.41135
  0
LINE
  8
0
 10
196.949
 20
-5.41135
 11
195.638
 21
-5.09053
  0
LINE
  8
0
 10
195.638
 20
-5.09053
 11
194.417
 21
-4.64137
  0
LINE
  8
0
 10
194.417
 20
-4.64137
 11
193.284
 21
-4.0639
  0
LINE
  8
0
 10
193.284
 20
-4.0639
 11
192.241
 21
-3.35809
  0
LINE
  8
0
 10
192.241
 20
-3.35809
 11
191.286
 21
-2.52397
  0
LINE
  8
0
 10
191.286
 20
-2.52397
 11
190.441
 21
-1.58704
  0
LINE
  8
0
 10
190.441
 20
-1.58704
 11
189.726
 21
-0.57222
  0
LINE
  8
0
 10
189.726
 20
-0.57222
 11
189.141
 21
0.520432
  0
LINE
  8
0
 10
189.141
 20
0.520432
 11
188.686
 21
1.69099
  0
LINE
  8
0
 10
188.686
 20
1.69099
 11
188.36
 21
2.93945
  0
LINE
  8
0
 10
188.36
 20
2.93945
 11
188.165
 21
4.26578
  0
LINE
  8
0
 10
188.165
 20
4.26578
 11
188.1
 21
5.67
  0
LINE
  8
0
 10
188.1
 20
5.67
 11
188.17
 21
7.26175
  0
LINE
  8
0
 10
188.17
 20
7.26175
 11
188.379
 21
8.75359
  0
LINE
  8
0
 10
188.379
 20
8.75359
 11
188.728
 21
10.1455
  0
LINE
  8
0
 10
188.728
 20
10.1455
 11
189.216
 21
11.4375
  0
LINE
  8
0
 10
189.216
 20
11.4375
 11
189.844
 21
12.6296
  0
LINE
  8
0
 10
189.844
 20
12.6296
 11
190.612
 21
13.7217
  0
LINE
  8
0
 10
190.612
 20
13.7217
 11
191.518
 21
14.714
  0
LINE
  8
0
 10
191.518
 20
14.714
 11
192.549
 21
15.589
  0
LINE
  8
0
 10
192.549
 20
15.589
 11
193.687
 21
16.3293
  0
LINE
  8
0
 10
193.687
 20
16.3293
 11
194.933
 21
16.9351
  0
LINE
  8
0
 10
194.933
 20
16.9351
 11
196.287
 21
17.4062
  0
LINE
  8
0
 10
196.287
 20
17.4062
 11
197.748
 21
17.7428
  0
LINE
  8
0
 10
197.748
 20
17.7428
 11
199.318
 21
17.9447
  0
LINE
  8
0
 10
199.318
 20
17.9447
 11
200.995
 21
18.012
  0
LINE
  8
0
 10
200.995
 20
18.012
 11
202.407
 21
17.9668
  0
LINE
  8
0
 10
202.407
 20
17.9668
 11
203.739
 21
17.831
  0
LINE
  8
0
 10
203.739
 20
17.831
 11
204.99
 21
17.6048
  0
LINE
  8
0
 10
204.99
 20
17.6048
 11
206.162
 21
17.2881
  0
LINE
  8
0
 10
206.162
 20
17.2881
 11
207.254
 21
16.8809
  0
LINE
  8
0
 10
207.254
 20
16.8809
 11
208.266
 21
16.3832
  0
LINE
  8
0
 10
208.266
 20
16.3832
 11
209.197
 21
15.795
  0
LINE
  8
0
 10
209.197
 20
15.795
 11
210.042
 21
15.1208
  0
LINE
  8
0
 10
210.042
 20
15.1208
 11
210.793
 21
14.3655
  0
LINE
  8
0
 10
210.793
 20
14.3655
 11
211.451
 21
13.5293
  0
LINE
  8
0
 10
211.451
 20
13.5293
 11
212.015
 21
12.612
  0
LINE
  8
0
 10
212.015
 20
12.612
 11
212.485
 21
11.6137
  0
LINE
  8
0
 10
212.485
 20
11.6137
 11
212.861
 21
10.5343
  0
LINE
  8
0
 10
212.861
 20
10.5343
 11
213.143
 21
9.37399
  0
LINE
  8
0
 10
213.143
 20
9.37399
 11
208.451
 21
8.83299
  0
LINE
  8
0
 10
208.451
 20
8.83299
 11
207.937
 21
10.2627
  0
LINE
  8
0
 10
207.937
 20
10.2627
 11
207.234
 21
11.4725
  0
LINE
  8
0
 10
207.234
 20
11.4725
 11
206.343
 21
12.4623
  0
LINE
  8
0
 10
206.343
 20
12.4623
 11
205.263
 21
13.2322
  0
LINE
  8
0
 10
205.263
 20
13.2322
 11
203.995
 21
13.7821
  0
LINE
  8
0
 10
203.995
 20
13.7821
 11
202.538
 21
14.112
  0
LINE
  8
0
 10
202.538
 20
14.112
 11
200.892
 21
14.222
  0
LINE
  8
0
 10
200.892
 20
14.222
 11
199.857
 21
14.176
  0
LINE
  8
0
 10
199.857
 20
14.176
 11
198.888
 21
14.038
  0
LINE
  8
0
 10
198.888
 20
14.038
 11
197.985
 21
13.808
  0
LINE
  8
0
 10
197.985
 20
13.808
 11
197.149
 21
13.486
  0
LINE
  8
0
 10
197.149
 20
13.486
 11
196.379
 21
13.072
  0
LINE
  8
0
 10
196.379
 20
13.072
 11
195.675
 21
12.566
  0
LINE
  8
0
 10
195.675
 20
12.566
 11
195.037
 21
11.968
  0
LINE
  8
0
 10
195.037
 20
11.968
 11
194.476
 21
11.2896
  0
LINE
  8
0
 10
194.476
 20
11.2896
 11
194.001
 21
10.5423
  0
LINE
  8
0
 10
194.001
 20
10.5423
 11
193.612
 21
9.72614
  0
LINE
  8
0
 10
193.612
 20
9.72614
 11
193.31
 21
8.84114
  0
LINE
  8
0
 10
193.31
 20
8.84114
 11
193.094
 21
7.88727
  0
LINE
  8
0
 10
193.094
 20
7.88727
 11
192.965
 21
6.86455
  0
LINE
  8
0
 10
192.965
 20
6.86455
 11
192.921
 21
5.77298
  0
LINE
  8
0
 10
192.921
 20
5.77298
 11
192.965
 21
4.82095
  0
LINE
  8
0
 10
192.965
 20
4.82095
 11
193.095
 21
3.92253
  0
LINE
  8
0
 10
193.095
 20
3.92253
 11
193.312
 21
3.07776
  0
LINE
  8
0
 10
193.312
 20
3.07776
 11
193.617
 21
2.28661
  0
LINE
  8
0
 10
193.617
 20
2.28661
 11
194.008
 21
1.5491
  0
LINE
  8
0
 10
194.008
 20
1.5491
 11
194.486
 21
0.865219
  0
LINE
  8
0
 10
194.486
 20
0.865219
 11
195.05
 21
0.23497
  0
LINE
  8
0
 10
195.05
 20
0.23497
 11
195.689
 21
-0.325562
  0
LINE
  8
0
 10
195.689
 20
-0.325562
 11
196.387
 21
-0.799911
  0
LINE
  8
0
 10
196.387
 20
-0.799911
 11
197.147
 21
-1.18802
  0
LINE
  8
0
 10
197.147
 20
-1.18802
 11
197.967
 21
-1.48987
  0
LINE
  8
0
 10
197.967
 20
-1.48987
 11
198.847
 21
-1.70549
  0
LINE
  8
0
 10
198.847
 20
-1.70549
 11
199.788
 21
-1.83485
  0
LINE
  8
0
 10
199.788
 20
-1.83485
 11
200.789
 21
-1.87798
  0
LINE
  8
0
 10
200.789
 20
-1.87798
 11
201.322
 21
-1.86588
  0
LINE
  8
0
 10
201.322
 20
-1.86588
 11
201.844
 21
-1.82957
  0
LINE
  8
0
 10
201.844
 20
-1.82957
 11
202.356
 21
-1.76906
  0
LINE
  8
0
 10
202.356
 20
-1.76906
 11
202.857
 21
-1.68434
  0
LINE
  8
0
 10
202.857
 20
-1.68434
 11
203.348
 21
-1.57542
  0
LINE
  8
0
 10
203.348
 20
-1.57542
 11
203.829
 21
-1.44231
  0
LINE
  8
0
 10
203.829
 20
-1.44231
 11
204.298
 21
-1.28497
  0
LINE
  8
0
 10
204.298
 20
-1.28497
 11
204.763
 21
-1.09871
  0
LINE
  8
0
 10
204.763
 20
-1.09871
 11
205.227
 21
-0.878769
  0
LINE
  8
0
 10
205.227
 20
-0.878769
 11
205.691
 21
-0.625168
  0
LINE
  8
0
 10
205.691
 20
-0.625168
 11
206.156
 21
-0.337875
  0
LINE
  8
0
 10
206.156
 20
-0.337875
 11
206.62
 21
-0.016922
  0
LINE
  8
0
 10
206.62
 20
-0.016922
 11
207.084
 21
0.337677
  0
LINE
  8
0
 10
207.084
 20
0.337677
 11
207.548
 21
0.725983
  0
LINE
  8
0
 10
207.548
 20
0.725983
 11
212.086
 21
0.725983
  0
LINE
  8
0
 10
212.086
 20
0.725983
 11
210.874
 21
-18.852
  0
LINE
  8
0
 10
210.874
 20
-18.852
 11
190.215
 21
-18.852
  0
LINE
  8
0
 10
69.345
 20
-29.1051
 11
69.6589
 21
-29.1051
  0
LINE
  8
0
 10
69.6589
 20
-29.1051
 11
70.2819
 21
-29.0264
  0
LINE
  8
0
 10
70.2819
 20
-29.0264
 11
70.8901
 21
-28.8703
  0
LINE
  8
0
 10
70.8901
 20
-28.8703
 11
71.4739
 21
-28.6391
  0
LINE
  8
0
 10
71.4739
 20
-28.6391
 11
72.0241
 21
-28.3366
  0
LINE
  8
0
 10
72.0241
 20
-28.3366
 11
72.5321
 21
-27.9676
  0
LINE
  8
0
 10
72.5321
 20
-27.9676
 11
72.9898
 21
-27.5377
  0
LINE
  8
0
 10
72.9898
 20
-27.5377
 11
73.3901
 21
-27.0539
  0
LINE
  8
0
 10
73.3901
 20
-27.0539
 11
73.7265
 21
-26.5238
  0
LINE
  8
0
 10
73.7265
 20
-26.5238
 11
73.9939
 21
-25.9556
  0
LINE
  8
0
 10
73.9939
 20
-25.9556
 11
74.1879
 21
-25.3584
  0
LINE
  8
0
 10
74.1879
 20
-25.3584
 11
74.3056
 21
-24.7417
  0
LINE
  8
0
 10
74.3056
 20
-24.7417
 11
74.345
 21
-24.115
  0
LINE
  8
0
 10
74.345
 20
-24.115
 11
74.345
 21
24.115
  0
LINE
  8
0
 10
74.345
 20
24.115
 11
74.3056
 21
24.7417
  0
LINE
  8
0
 10
74.3056
 20
24.7417
 11
74.1879
 21
25.3584
  0
LINE
  8
0
 10
74.1879
 20
25.3584
 11
73.9939
 21
25.9556
  0
LINE
  8
0
 10
73.9939
 20
25.9556
 11
73.7265
 21
26.5238
  0
LINE
  8
0
 10
73.7265
 20
26.5238
 11
73.3901
 21
27.0539
  0
LINE
  8
0
 10
73.3901
 20
27.0539
 11
72.9898
 21
27.5377
  0
LINE
  8
0
 10
72.9898
 20
27.5377
 11
72.5321
 21
27.9676
  0
LINE
  8
0
 10
72.5321
 20
27.9676
 11
72.0241
 21
28.3366
  0
LINE
  8
0
 10
72.0241
 20
28.3366
 11
71.4739
 21
28.6391
  0
LINE
  8
0
 10
71.4739
 20
28.6391
 11
70.8901
 21
28.8703
  0
LINE
  8
0
 10
70.8901
 20
28.8703
 11
70.2819
 21
29.0264
  0
LINE
  8
0
 10
70.2819
 20
29.0264
 11
69.6589
 21
29.1051
  0
LINE
  8
0
 10
69.6589
 20
29.1051
 11
69.345
 21
29.1051
  0
LINE
  8
0
 10
69.345
 20
29.1051
 11
69.345
 21
29.115
  0
LINE
  8
0
 10
69.345
 20
29.115
 11
58.8014
 21
29.115
  0
LINE
  8
0
 10
58.8014
 20
29.115
 11
58.8369
 21
29.1355
  0
LINE
  8
0
 10
58.8369
 20
29.1355
 11
56.5512
 21
33.0945
  0
LINE
  8
0
 10
56.5512
 20
33.0945
 11
56.5157
 21
33.074
  0
LINE
  8
0
 10
56.5157
 20
33.074
 11
56.5157
 21
33.115
  0
LINE
  8
0
 10
56.5157
 20
33.115
 11
51.9443
 21
33.115
  0
LINE
  8
0
 10
51.9443
 20
33.115
 11
51.9443
 21
33.074
  0
LINE
  8
0
 10
51.9443
 20
33.074
 11
51.9087
 21
33.0945
  0
LINE
  8
0
 10
51.9087
 20
33.0945
 11
49.623
 21
29.1355
  0
LINE
  8
0
 10
49.623
 20
29.1355
 11
49.6586
 21
29.115
  0
LINE
  8
0
 10
49.6586
 20
29.115
 11
31.115
 21
29.115
  0
LINE
  8
0
 10
31.115
 20
29.115
 11
31.115
 21
29.1051
  0
LINE
  8
0
 10
31.115
 20
29.1051
 11
30.8011
 21
29.1051
  0
LINE
  8
0
 10
30.8011
 20
29.1051
 11
30.1781
 21
29.0264
  0
LINE
  8
0
 10
30.1781
 20
29.0264
 11
29.5699
 21
28.8703
  0
LINE
  8
0
 10
29.5699
 20
28.8703
 11
28.9861
 21
28.6391
  0
LINE
  8
0
 10
28.9861
 20
28.6391
 11
28.4359
 21
28.3366
  0
LINE
  8
0
 10
28.4359
 20
28.3366
 11
27.9279
 21
27.9676
  0
LINE
  8
0
 10
27.9279
 20
27.9676
 11
27.4702
 21
27.5377
  0
LINE
  8
0
 10
27.4702
 20
27.5377
 11
27.0699
 21
27.0539
  0
LINE
  8
0
 10
27.0699
 20
27.0539
 11
26.7335
 21
26.5238
  0
LINE
  8
0
 10
26.7335
 20
26.5238
 11
26.4661
 21
25.9556
  0
LINE
  8
0
 10
26.4661
 20
25.9556
 11
26.2721
 21
25.3584
  0
LINE
  8
0
 10
26.2721
 20
25.3584
 11
26.1544
 21
24.7417
  0
LINE
  8
0
 10
26.1544
 20
24.7417
 11
26.115
 21
24.115
  0
LINE
  8
0
 10
26.115
 20
24.115
 11
26.115
 21
-24.115
  0
LINE
  8
0
 10
26.115
 20
-24.115
 11
26.1544
 21
-24.7417
  0
LINE
  8
0
 10
26.1544
 20
-24.7417
 11
26.2721
 21
-25.3584
  0
LINE
  8
0
 10
26.2721
 20
-25.3584
 11
26.4661
 21
-25.9556
  0
LINE
  8
0
 10
26.4661
 20
-25.9556
 11
26.7335
 21
-26.5238
  0
LINE
  8
0
 10
26.7335
 20
-26.5238
 11
27.0699
 21
-27.0539
  0
LINE
  8
0
 10
27.0699
 20
-27.0539
 11
27.4702
 21
-27.5377
  0
LINE
  8
0
 10
27.4702
 20
-27.5377
 11
27.9279
 21
-27.9676
  0
LINE
  8
0
 10
27.9279
 20
-27.9676
 11
28.4359
 21
-28.3366
  0
LINE
  8
0
 10
28.4359
 20
-28.3366
 11
28.9861
 21
-28.6391
  0
LINE
  8
0
 10
28.9861
 20
-28.6391
 11
29.5699
 21
-28.8703
  0
LINE
  8
0
 10
29.5699
 20
-28.8703
 11
30.1781
 21
-29.0264
  0
LINE
  8
0
 10
30.1781
 20
-29.0264
 11
30.8011
 21
-29.1051
  0
LINE
  8
0
 10
30.8011
 20
-29.1051
 11
31.115
 21
-29.1051
  0
LINE
  8
0
 10
31.115
 20
-29.1051
 11
31.115
 21
-29.115
  0
LINE
  8
0
 10
31.115
 20
-29.115
 11
69.345
 21
-29.115
  0
LINE
  8
0
 10
69.345
 20
-29.115
 11
69.345
 21
-29.1051
  0
LINE
  8
0
 10
48.2978
 20
-18.8111
 11
46.8839
 21
-18.6525
  0
LINE
  8
0
 10
46.8839
 20
-18.6525
 11
45.5736
 21
-18.3881
  0
LINE
  8
0
 10
45.5736
 20
-18.3881
 11
44.3671
 21
-18.0179
  0
LINE
  8
0
 10
44.3671
 20
-18.0179
 11
43.2642
 21
-17.5421
  0
LINE
  8
0
 10
43.2642
 20
-17.5421
 11
42.2649
 21
-16.9604
  0
LINE
  8
0
 10
42.2649
 20
-16.9604
 11
41.3694
 21
-16.273
  0
LINE
  8
0
 10
41.3694
 20
-16.273
 11
40.5859
 21
-15.4885
  0
LINE
  8
0
 10
40.5859
 20
-15.4885
 11
39.923
 21
-14.6151
  0
LINE
  8
0
 10
39.923
 20
-14.6151
 11
39.3806
 21
-13.6528
  0
LINE
  8
0
 10
39.3806
 20
-13.6528
 11
38.9588
 21
-12.6015
  0
LINE
  8
0
 10
38.9588
 20
-12.6015
 11
38.6574
 21
-11.4613
  0
LINE
  8
0
 10
38.6574
 20
-11.4613
 11
38.4767
 21
-10.2321
  0
LINE
  8
0
 10
38.4767
 20
-10.2321
 11
38.4164
 21
-8.91399
  0
LINE
  8
0
 10
38.4164
 20
-8.91399
 11
38.4361
 21
-8.31052
  0
LINE
  8
0
 10
38.4361
 20
-8.31052
 11
38.4954
 21
-7.70811
  0
LINE
  8
0
 10
38.4954
 20
-7.70811
 11
38.5942
 21
-7.10677
  0
LINE
  8
0
 10
38.5942
 20
-7.10677
 11
38.7325
 21
-6.50648
  0
LINE
  8
0
 10
38.7325
 20
-6.50648
 11
38.9103
 21
-5.90726
  0
LINE
  8
0
 10
38.9103
 20
-5.90726
 11
39.1276
 21
-5.3091
  0
LINE
  8
0
 10
39.1276
 20
-5.3091
 11
39.3844
 21
-4.71199
  0
LINE
  8
0
 10
39.3844
 20
-4.71199
 11
39.6799
 21
-4.11542
  0
LINE
  8
0
 10
39.6799
 20
-4.11542
 11
40.0139
 21
-3.51883
  0
LINE
  8
0
 10
40.0139
 20
-3.51883
 11
40.3863
 21
-2.92226
  0
LINE
  8
0
 10
40.3863
 20
-2.92226
 11
40.7971
 21
-2.3257
  0
LINE
  8
0
 10
40.7971
 20
-2.3257
 11
41.2464
 21
-1.72913
  0
LINE
  8
0
 10
41.2464
 20
-1.72913
 11
41.7342
 21
-1.13255
  0
LINE
  8
0
 10
41.7342
 20
-1.13255
 11
42.2604
 21
-0.53598
  0
LINE
  8
0
 10
42.2604
 20
-0.53598
 11
42.8766
 21
0.107391
  0
LINE
  8
0
 10
42.8766
 20
0.107391
 11
43.635
 21
0.844467
  0
LINE
  8
0
 10
43.635
 20
0.844467
 11
44.5356
 21
1.67522
  0
LINE
  8
0
 10
44.5356
 20
1.67522
 11
45.5783
 21
2.59966
  0
LINE
  8
0
 10
45.5783
 20
2.59966
 11
46.7632
 21
3.61775
  0
LINE
  8
0
 10
46.7632
 20
3.61775
 11
48.0902
 21
4.72952
  0
LINE
  8
0
 10
48.0902
 20
4.72952
 11
49.5594
 21
5.93498
  0
LINE
  8
0
 10
49.5594
 20
5.93498
 11
50.382
 21
6.61755
  0
LINE
  8
0
 10
50.382
 20
6.61755
 11
51.1553
 21
7.28069
  0
LINE
  8
0
 10
51.1553
 20
7.28069
 11
51.879
 21
7.92441
  0
LINE
  8
0
 10
51.879
 20
7.92441
 11
52.5533
 21
8.54871
  0
LINE
  8
0
 10
52.5533
 20
8.54871
 11
53.1781
 21
9.15356
  0
LINE
  8
0
 10
53.1781
 20
9.15356
 11
53.7535
 21
9.739
  0
LINE
  8
0
 10
53.7535
 20
9.739
 11
54.2794
 21
10.305
  0
LINE
  8
0
 10
54.2794
 20
10.305
 11
54.7605
 21
10.8581
  0
LINE
  8
0
 10
54.7605
 20
10.8581
 11
55.2017
 21
11.4054
  0
LINE
  8
0
 10
55.2017
 20
11.4054
 11
55.6028
 21
11.9469
  0
LINE
  8
0
 10
55.6028
 20
11.9469
 11
55.9639
 21
12.4826
  0
LINE
  8
0
 10
55.9639
 20
12.4826
 11
56.2851
 21
13.0125
  0
LINE
  8
0
 10
56.2851
 20
13.0125
 11
56.5662
 21
13.5367
  0
LINE
  8
0
 10
56.5662
 20
13.5367
 11
56.8074
 21
14.055
  0
LINE
  8
0
 10
56.8074
 20
14.055
 11
37.8484
 21
14.055
  0
LINE
  8
0
 10
37.8484
 20
14.055
 11
37.8484
 21
18
  0
LINE
  8
0
 10
37.8484
 20
18
 11
61.9124
 21
18
  0
LINE
  8
0
 10
61.9124
 20
18
 11
61.9124
 21
14.725
  0
LINE
  8
0
 10
61.9124
 20
14.725
 11
61.5246
 21
13.8777
  0
LINE
  8
0
 10
61.5246
 20
13.8777
 11
61.1131
 21
13.0594
  0
LINE
  8
0
 10
61.1131
 20
13.0594
 11
60.678
 21
12.2701
  0
LINE
  8
0
 10
60.678
 20
12.2701
 11
60.2193
 21
11.5096
  0
LINE
  8
0
 10
60.2193
 20
11.5096
 11
59.737
 21
10.7782
  0
LINE
  8
0
 10
59.737
 20
10.7782
 11
59.231
 21
10.0756
  0
LINE
  8
0
 10
59.231
 20
10.0756
 11
58.7014
 21
9.40199
  0
LINE
  8
0
 10
58.7014
 20
9.40199
 11
58.1557
 21
8.75179
  0
LINE
  8
0
 10
58.1557
 20
8.75179
 11
57.6022
 21
8.11946
  0
LINE
  8
0
 10
57.6022
 20
8.11946
 11
57.0408
 21
7.505
  0
LINE
  8
0
 10
57.0408
 20
7.505
 11
56.4715
 21
6.90843
  0
LINE
  8
0
 10
56.4715
 20
6.90843
 11
55.8943
 21
6.32974
  0
LINE
  8
0
 10
55.8943
 20
6.32974
 11
55.3093
 21
5.76892
  0
LINE
  8
0
 10
55.3093
 20
5.76892
 11
54.7164
 21
5.22598
  0
LINE
  8
0
 10
54.7164
 20
5.22598
 11
54.12
 21
4.69753
  0
LINE
  8
0
 10
54.12
 20
4.69753
 11
53.5253
 21
4.18011
  0
LINE
  8
0
 10
53.5253
 20
4.18011
 11
52.9323
 21
3.67375
  0
LINE
  8
0
 10
52.9323
 20
3.67375
 11
52.3408
 21
3.17847
  0
LINE
  8
0
 10
52.3408
 20
3.17847
 11
51.7511
 21
2.69424
  0
LINE
  8
0
 10
51.7511
 20
2.69424
 11
51.1629
 21
2.22108
  0
LINE
  8
0
 10
51.1629
 20
2.22108
 11
49.9986
 21
1.30214
  0
LINE
  8
0
 10
49.9986
 20
1.30214
 11
49.4371
 21
0.845337
  0
LINE
  8
0
 10
49.4371
 20
0.845337
 11
48.8919
 21
0.388596
  0
LINE
  8
0
 10
48.8919
 20
0.388596
 11
48.363
 21
-0.0680847
  0
LINE
  8
0
 10
48.363
 20
-0.0680847
 11
47.8505
 21
-0.52475
  0
LINE
  8
0
 10
47.8505
 20
-0.52475
 11
47.3543
 21
-0.981384
  0
LINE
  8
0
 10
47.3543
 20
-0.981384
 11
46.8744
 21
-1.43797
  0
LINE
  8
0
 10
46.8744
 20
-1.43797
 11
46.4156
 21
-1.89771
  0
LINE
  8
0
 10
46.4156
 20
-1.89771
 11
45.9825
 21
-2.36377
  0
LINE
  8
0
 10
45.9825
 20
-2.36377
 11
45.5753
 21
-2.83617
  0
LINE
  8
0
 10
45.5753
 20
-2.83617
 11
45.1939
 21
-3.31488
  0
LINE
  8
0
 10
45.1939
 20
-3.31488
 11
44.8383
 21
-3.79991
  0
LINE
  8
0
 10
44.8383
 20
-3.79991
 11
44.5084
 21
-4.29131
  0
LINE
  8
0
 10
44.5084
 20
-4.29131
 11
44.2044
 21
-4.78899
  0
LINE
  8
0
 10
44.2044
 20
-4.78899
 11
43.934
 21
-5.29932
  0
LINE
  8
0
 10
43.934
 20
-5.29932
 11
43.7053
 21
-5.82858
  0
LINE
  8
0
 10
43.7053
 20
-5.82858
 11
43.5181
 21
-6.37679
  0
LINE
  8
0
 10
43.5181
 20
-6.37679
 11
43.3725
 21
-6.94392
  0
LINE
  8
0
 10
43.3725
 20
-6.94392
 11
43.2686
 21
-7.53001
  0
LINE
  8
0
 10
43.2686
 20
-7.53001
 11
43.2062
 21
-8.13504
  0
LINE
  8
0
 10
43.2062
 20
-8.13504
 11
43.1854
 21
-8.75899
  0
LINE
  8
0
 10
43.1854
 20
-8.75899
 11
43.2212
 21
-9.58591
  0
LINE
  8
0
 10
43.2212
 20
-9.58591
 11
43.3286
 21
-10.3581
  0
LINE
  8
0
 10
43.3286
 20
-10.3581
 11
43.5077
 21
-11.0755
  0
LINE
  8
0
 10
43.5077
 20
-11.0755
 11
43.7584
 21
-11.7383
  0
LINE
  8
0
 10
43.7584
 20
-11.7383
 11
44.0808
 21
-12.3462
  0
LINE
  8
0
 10
44.0808
 20
-12.3462
 11
44.4748
 21
-12.8995
  0
LINE
  8
0
 10
44.4748
 20
-12.8995
 11
44.9404
 21
-13.398
  0
LINE
  8
0
 10
44.9404
 20
-13.398
 11
45.4694
 21
-13.8358
  0
LINE
  8
0
 10
45.4694
 20
-13.8358
 11
46.0543
 21
-14.2062
  0
LINE
  8
0
 10
46.0543
 20
-14.2062
 11
46.6951
 21
-14.5092
  0
LINE
  8
0
 10
46.6951
 20
-14.5092
 11
47.3917
 21
-14.7449
  0
LINE
  8
0
 10
47.3917
 20
-14.7449
 11
48.1441
 21
-14.9133
  0
LINE
  8
0
 10
48.1441
 20
-14.9133
 11
48.9523
 21
-15.0143
  0
LINE
  8
0
 10
48.9523
 20
-15.0143
 11
49.8164
 21
-15.048
  0
LINE
  8
0
 10
49.8164
 20
-15.048
 11
50.6425
 21
-15.0151
  0
LINE
  8
0
 10
50.6425
 20
-15.0151
 11
51.4261
 21
-14.9165
  0
LINE
  8
0
 10
51.4261
 20
-14.9165
 11
52.1671
 21
-14.7521
  0
LINE
  8
0
 10
52.1671
 20
-14.7521
 11
52.8655
 21
-14.522
  0
LINE
  8
0
 10
52.8655
 20
-14.522
 11
53.5213
 21
-14.2261
  0
LINE
  8
0
 10
53.5213
 20
-14.2261
 11
54.1346
 21
-13.8644
  0
LINE
  8
0
 10
54.1346
 20
-13.8644
 11
54.7054
 21
-13.437
  0
LINE
  8
0
 10
54.7054
 20
-13.437
 11
55.2221
 21
-12.9501
  0
LINE
  8
0
 10
55.2221
 20
-12.9501
 11
55.6741
 21
-12.4101
  0
LINE
  8
0
 10
55.6741
 20
-12.4101
 11
56.0613
 21
-11.817
  0
LINE
  8
0
 10
56.0613
 20
-11.817
 11
56.3837
 21
-11.1707
  0
LINE
  8
0
 10
56.3837
 20
-11.1707
 11
56.6414
 21
-10.4713
  0
LINE
  8
0
 10
56.6414
 20
-10.4713
 11
56.8343
 21
-9.7187
  0
LINE
  8
0
 10
56.8343
 20
-9.7187
 11
56.9624
 21
-8.91299
  0
LINE
  8
0
 10
56.9624
 20
-8.91299
 11
61.7054
 21
-9.351
  0
LINE
  8
0
 10
61.7054
 20
-9.351
 11
61.5035
 21
-10.5595
  0
LINE
  8
0
 10
61.5035
 20
-10.5595
 11
61.1926
 21
-11.6955
  0
LINE
  8
0
 10
61.1926
 20
-11.6955
 11
60.7729
 21
-12.7588
  0
LINE
  8
0
 10
60.7729
 20
-12.7588
 11
60.2441
 21
-13.7495
  0
LINE
  8
0
 10
60.2441
 20
-13.7495
 11
59.6065
 21
-14.6676
  0
LINE
  8
0
 10
59.6065
 20
-14.6676
 11
58.8599
 21
-15.5131
  0
LINE
  8
0
 10
58.8599
 20
-15.5131
 11
58.0043
 21
-16.286
  0
LINE
  8
0
 10
58.0043
 20
-16.286
 11
57.0572
 21
-16.97
  0
LINE
  8
0
 10
57.0572
 20
-16.97
 11
56.0359
 21
-17.5487
  0
LINE
  8
0
 10
56.0359
 20
-17.5487
 11
54.9402
 21
-18.0222
  0
LINE
  8
0
 10
54.9402
 20
-18.0222
 11
53.7704
 21
-18.3905
  0
LINE
  8
0
 10
53.7704
 20
-18.3905
 11
52.5263
 21
-18.6535
  0
LINE
  8
0
 10
52.5263
 20
-18.6535
 11
51.2079
 21
-18.8114
  0
LINE
  8
0
 10
51.2079
 20
-18.8114
 11
49.8154
 21
-18.864
  0
LINE
  8
0
 10
49.8154
 20
-18.864
 11
48.2978
 21
-18.8111
  0
LINE
  8
0
 10
169.805
 20
-29.1051
 11
170.119
 21
-29.1051
  0
LINE
  8
0
 10
170.119
 20
-29.1051
 11
170.742
 21
-29.0264
  0
LINE
  8
0
 10
170.742
 20
-29.0264
 11
171.35
 21
-28.8703
  0
LINE
  8
0
 10
171.35
 20
-28.8703
 11
171.934
 21
-28.6391
  0
LINE
  8
0
 10
171.934
 20
-28.6391
 11
172.484
 21
-28.3366
  0
LINE
  8
0
 10
172.484
 20
-28.3366
 11
172.992
 21
-27.9676
  0
LINE
  8
0
 10
172.992
 20
-27.9676
 11
173.45
 21
-27.5377
  0
LINE
  8
0
 10
173.45
 20
-27.5377
 11
173.85
 21
-27.0539
  0
LINE
  8
0
 10
173.85
 20
-27.0539
 11
174.187
 21
-26.5238
  0
LINE
  8
0
 10
174.187
 20
-26.5238
 11
174.454
 21
-25.9556
  0
LINE
  8
0
 10
174.454
 20
-25.9556
 11
174.648
 21
-25.3584
  0
LINE
  8
0
 10
174.648
 20
-25.3584
 11
174.766
 21
-24.7417
  0
LINE
  8
0
 10
174.766
 20
-24.7417
 11
174.805
 21
-24.115
  0
LINE
  8
0
 10
174.805
 20
-24.115
 11
174.805
 21
24.115
  0
LINE
  8
0
 10
174.805
 20
24.115
 11
174.766
 21
24.7417
  0
LINE
  8
0
 10
174.766
 20
24.7417
 11
174.648
 21
25.3584
  0
LINE
  8
0
 10
174.648
 20
25.3584
 11
174.454
 21
25.9556
  0
LINE
  8
0
 10
174.454
 20
25.9556
 11
174.187
 21
26.5238
  0
LINE
  8
0
 10
174.187
 20
26.5238
 11
173.85
 21
27.0539
  0
LINE
  8
0
 10
173.85
 20
27.0539
 11
173.45
 21
27.5377
  0
LINE
  8
0
 10
173.45
 20
27.5377
 11
172.992
 21
27.9676
  0
LINE
  8
0
 10
172.992
 20
27.9676
 11
172.484
 21
28.3366
  0
LINE
  8
0
 10
172.484
 20
28.3366
 11
171.934
 21
28.6391
  0
LINE
  8
0
 10
171.934
 20
28.6391
 11
171.35
 21
28.8703
  0
LINE
  8
0
 10
171.35
 20
28.8703
 11
170.742
 21
29.0264
  0
LINE
  8
0
 10
170.742
 20
29.0264
 11
170.119
 21
29.1051
  0
LINE
  8
0
 10
170.119
 20
29.1051
 11
169.805
 21
29.1051
  0
LINE
  8
0
 10
169.805
 20
29.1051
 11
169.805
 21
29.115
  0
LINE
  8
0
 10
169.805
 20
29.115
 11
159.261
 21
29.115
  0
LINE
  8
0
 10
159.261
 20
29.115
 11
159.297
 21
29.1355
  0
LINE
  8
0
 10
159.297
 20
29.1355
 11
157.011
 21
33.0945
  0
LINE
  8
0
 10
157.011
 20
33.0945
 11
156.976
 21
33.074
  0
LINE
  8
0
 10
156.976
 20
33.074
 11
156.976
 21
33.115
  0
LINE
  8
0
 10
156.976
 20
33.115
 11
152.404
 21
33.115
  0
LINE
  8
0
 10
152.404
 20
33.115
 11
152.404
 21
33.074
  0
LINE
  8
0
 10
152.404
 20
33.074
 11
152.369
 21
33.0945
  0
LINE
  8
0
 10
152.369
 20
33.0945
 11
150.083
 21
29.1355
  0
LINE
  8
0
 10
150.083
 20
29.1355
 11
150.119
 21
29.115
  0
LINE
  8
0
 10
150.119
 20
29.115
 11
131.575
 21
29.115
  0
LINE
  8
0
 10
131.575
 20
29.115
 11
131.575
 21
29.1051
  0
LINE
  8
0
 10
131.575
 20
29.1051
 11
131.261
 21
29.1051
  0
LINE
  8
0
 10
131.261
 20
29.1051
 11
130.638
 21
29.0264
  0
LINE
  8
0
 10
130.638
 20
29.0264
 11
130.03
 21
28.8703
  0
LINE
  8
0
 10
130.03
 20
28.8703
 11
129.446
 21
28.6391
  0
LINE
  8
0
 10
129.446
 20
28.6391
 11
128.896
 21
28.3366
  0
LINE
  8
0
 10
128.896
 20
28.3366
 11
128.388
 21
27.9676
  0
LINE
  8
0
 10
128.388
 20
27.9676
 11
127.93
 21
27.5377
  0
LINE
  8
0
 10
127.93
 20
27.5377
 11
127.53
 21
27.0539
  0
LINE
  8
0
 10
127.53
 20
27.0539
 11
127.193
 21
26.5238
  0
LINE
  8
0
 10
127.193
 20
26.5238
 11
126.926
 21
25.9556
  0
LINE
  8
0
 10
126.926
 20
25.9556
 11
126.732
 21
25.3584
  0
LINE
  8
0
 10
126.732
 20
25.3584
 11
126.614
 21
24.7417
  0
LINE
  8
0
 10
126.614
 20
24.7417
 11
126.575
 21
24.115
  0
LINE
  8
0
 10
126.575
 20
24.115
 11
126.575
 21
-24.115
  0
LINE
  8
0
 10
126.575
 20
-24.115
 11
126.614
 21
-24.7417
  0
LINE
  8
0
 10
126.614
 20
-24.7417
 11
126.732
 21
-25.3584
  0
LINE
  8
0
 10
126.732
 20
-25.3584
 11
126.926
 21
-25.9556
  0
LINE
  8
0
 10
126.926
 20
-25.9556
 11
127.193
 21
-26.5238
  0
LINE
  8
0
 10
127.193
 20
-26.5238
 11
127.53
 21
-27.0539
  0
LINE
  8
0
 10
127.53
 20
-27.0539
 11
127.93
 21
-27.5377
  0
LINE
  8
0
 10
127.93
 20
-27.5377
 11
128.388
 21
-27.9676
  0
LINE
  8
0
 10
128.388
 20
-27.9676
 11
128.896
 21
-28.3366
  0
LINE
  8
0
 10
128.896
 20
-28.3366
 11
129.446
 21
-28.6391
  0
LINE
  8
0
 10
129.446
 20
-28.6391
 11
130.03
 21
-28.8703
  0
LINE
  8
0
 10
130.03
 20
-28.8703
 11
130.638
 21
-29.0264
  0
LINE
  8
0
 10
130.638
 20
-29.0264
 11
131.261
 21
-29.1051
  0
LINE
  8
0
 10
131.261
 20
-29.1051
 11
131.575
 21
-29.1051
  0
LINE
  8
0
 10
131.575
 20
-29.1051
 11
131.575
 21
-29.115
  0
LINE
  8
0
 10
131.575
 20
-29.115
 11
169.805
 21
-29.115
  0
LINE
  8
0
 10
169.805
 20
-29.115
 11
169.805
 21
-29.1051
  0
LINE
  8
0
 10
142.306
 20
-18.602
 11
142.306
 21
5.84599
  0
LINE
  8
0
 10
142.306
 20
5.84599
 11
137.201
 21
5.84599
  0
LINE
  8
0
 10
137.201
 20
5.84599
 11
137.201
 21
9.50699
  0
LINE
  8
0
 10
137.201
 20
9.50699
 11
142.306
 21
9.50699
  0
LINE
  8
0
 10
142.306
 20
9.50699
 11
142.306
 21
17.75
  0
LINE
  8
0
 10
142.306
 20
17.75
 11
146.689
 21
17.75
  0
LINE
  8
0
 10
146.689
 20
17.75
 11
146.689
 21
9.50699
  0
LINE
  8
0
 10
146.689
 20
9.50699
 11
163.816
 21
9.50699
  0
LINE
  8
0
 10
163.816
 20
9.50699
 11
163.816
 21
5.89699
  0
LINE
  8
0
 10
163.816
 20
5.89699
 11
147.181
 21
-18.602
  0
LINE
  8
0
 10
147.181
 20
-18.602
 11
142.306
 21
-18.602
  0
LINE
  8
0
 10
146.717
 20
-13.3021
 11
146.77
 21
-13.1931
  0
LINE
  8
0
 10
146.77
 20
-13.1931
 11
146.848
 21
-13.041
  0
LINE
  8
0
 10
146.848
 20
-13.041
 11
146.951
 21
-12.8457
  0
LINE
  8
0
 10
146.951
 20
-12.8457
 11
147.233
 21
-12.3257
  0
LINE
  8
0
 10
147.233
 20
-12.3257
 11
147.597
 21
-11.6694
  0
LINE
  8
0
 10
147.597
 20
-11.6694
 11
147.768
 21
-11.3674
  0
LINE
  8
0
 10
147.768
 20
-11.3674
 11
147.925
 21
-11.0947
  0
LINE
  8
0
 10
147.925
 20
-11.0947
 11
148.069
 21
-10.8516
  0
LINE
  8
0
 10
148.069
 20
-10.8516
 11
148.199
 21
-10.6379
  0
LINE
  8
0
 10
148.199
 20
-10.6379
 11
148.316
 21
-10.4537
  0
LINE
  8
0
 10
148.316
 20
-10.4537
 11
148.418
 21
-10.299
  0
LINE
  8
0
 10
148.418
 20
-10.299
 11
157.731
 21
3.42198
  0
LINE
  8
0
 10
157.731
 20
3.42198
 11
159.124
 21
5.32997
  0
LINE
  8
0
 10
159.124
 20
5.32997
 11
159.537
 21
5.84599
  0
LINE
  8
0
 10
159.537
 20
5.84599
 11
146.689
 21
5.84599
  0
LINE
  8
0
 10
146.689
 20
5.84599
 11
146.689
 21
-13.368
  0
LINE
  8
0
 10
146.689
 20
-13.368
 11
146.717
 21
-13.3021
  0
LINE
  8
0
 10
119.575
 20
-29.1051
 11
119.889
 21
-29.1051
  0
LINE
  8
0
 10
119.889
 20
-29.1051
 11
120.512
 21
-29.0264
  0
LINE
  8
0
 10
120.512
 20
-29.0264
 11
121.12
 21
-28.8703
  0
LINE
  8
0
 10
121.12
 20
-28.8703
 11
121.704
 21
-28.6391
  0
LINE
  8
0
 10
121.704
 20
-28.6391
 11
122.254
 21
-28.3366
  0
LINE
  8
0
 10
122.254
 20
-28.3366
 11
122.762
 21
-27.9676
  0
LINE
  8
0
 10
122.762
 20
-27.9676
 11
123.22
 21
-27.5377
  0
LINE
  8
0
 10
123.22
 20
-27.5377
 11
123.62
 21
-27.0539
  0
LINE
  8
0
 10
123.62
 20
-27.0539
 11
123.957
 21
-26.5238
  0
LINE
  8
0
 10
123.957
 20
-26.5238
 11
124.224
 21
-25.9556
  0
LINE
  8
0
 10
124.224
 20
-25.9556
 11
124.418
 21
-25.3584
  0
LINE
  8
0
 10
124.418
 20
-25.3584
 11
124.536
 21
-24.7417
  0
LINE
  8
0
 10
124.536
 20
-24.7417
 11
124.575
 21
-24.115
  0
LINE
  8
0
 10
124.575
 20
-24.115
 11
124.575
 21
24.115
  0
LINE
  8
0
 10
124.575
 20
24.115
 11
124.536
 21
24.7417
  0
LINE
  8
0
 10
124.536
 20
24.7417
 11
124.418
 21
25.3584
  0
LINE
  8
0
 10
124.418
 20
25.3584
 11
124.224
 21
25.9556
  0
LINE
  8
0
 10
124.224
 20
25.9556
 11
123.957
 21
26.5238
  0
LINE
  8
0
 10
123.957
 20
26.5238
 11
123.62
 21
27.0539
  0
LINE
  8
0
 10
123.62
 20
27.0539
 11
123.22
 21
27.5377
  0
LINE
  8
0
 10
123.22
 20
27.5377
 11
122.762
 21
27.9676
  0
LINE
  8
0
 10
122.762
 20
27.9676
 11
122.254
 21
28.3366
  0
LINE
  8
0
 10
122.254
 20
28.3366
 11
121.704
 21
28.6391
  0
LINE
  8
0
 10
121.704
 20
28.6391
 11
121.12
 21
28.8703
  0
LINE
  8
0
 10
121.12
 20
28.8703
 11
120.512
 21
29.0264
  0
LINE
  8
0
 10
120.512
 20
29.0264
 11
119.889
 21
29.1051
  0
LINE
  8
0
 10
119.889
 20
29.1051
 11
119.575
 21
29.1051
  0
LINE
  8
0
 10
119.575
 20
29.1051
 11
119.575
 21
29.115
  0
LINE
  8
0
 10
119.575
 20
29.115
 11
101.031
 21
29.115
  0
LINE
  8
0
 10
101.031
 20
29.115
 11
101.067
 21
29.1355
  0
LINE
  8
0
 10
101.067
 20
29.1355
 11
98.7812
 21
33.0945
  0
LINE
  8
0
 10
98.7812
 20
33.0945
 11
98.7457
 21
33.074
  0
LINE
  8
0
 10
98.7457
 20
33.074
 11
98.7457
 21
33.115
  0
LINE
  8
0
 10
98.7457
 20
33.115
 11
94.1743
 21
33.115
  0
LINE
  8
0
 10
94.1743
 20
33.115
 11
94.1743
 21
33.074
  0
LINE
  8
0
 10
94.1743
 20
33.074
 11
94.1387
 21
33.0945
  0
LINE
  8
0
 10
94.1387
 20
33.0945
 11
91.853
 21
29.1355
  0
LINE
  8
0
 10
91.853
 20
29.1355
 11
91.8886
 21
29.115
  0
LINE
  8
0
 10
91.8886
 20
29.115
 11
81.345
 21
29.115
  0
LINE
  8
0
 10
81.345
 20
29.115
 11
81.345
 21
29.1051
  0
LINE
  8
0
 10
81.345
 20
29.1051
 11
81.0311
 21
29.1051
  0
LINE
  8
0
 10
81.0311
 20
29.1051
 11
80.4081
 21
29.0264
  0
LINE
  8
0
 10
80.4081
 20
29.0264
 11
79.7999
 21
28.8703
  0
LINE
  8
0
 10
79.7999
 20
28.8703
 11
79.2161
 21
28.6391
  0
LINE
  8
0
 10
79.2161
 20
28.6391
 11
78.6659
 21
28.3366
  0
LINE
  8
0
 10
78.6659
 20
28.3366
 11
78.1579
 21
27.9676
  0
LINE
  8
0
 10
78.1579
 20
27.9676
 11
77.7001
 21
27.5377
  0
LINE
  8
0
 10
77.7001
 20
27.5377
 11
77.2999
 21
27.0539
  0
LINE
  8
0
 10
77.2999
 20
27.0539
 11
76.9635
 21
26.5238
  0
LINE
  8
0
 10
76.9635
 20
26.5238
 11
76.6961
 21
25.9556
  0
LINE
  8
0
 10
76.6961
 20
25.9556
 11
76.5021
 21
25.3584
  0
LINE
  8
0
 10
76.5021
 20
25.3584
 11
76.3844
 21
24.7417
  0
LINE
  8
0
 10
76.3844
 20
24.7417
 11
76.345
 21
24.115
  0
LINE
  8
0
 10
76.345
 20
24.115
 11
76.345
 21
-24.115
  0
LINE
  8
0
 10
76.345
 20
-24.115
 11
76.3844
 21
-24.7417
  0
LINE
  8
0
 10
76.3844
 20
-24.7417
 11
76.5021
 21
-25.3584
  0
LINE
  8
0
 10
76.5021
 20
-25.3584
 11
76.6961
 21
-25.9556
  0
LINE
  8
0
 10
76.6961
 20
-25.9556
 11
76.9635
 21
-26.5238
  0
LINE
  8
0
 10
76.9635
 20
-26.5238
 11
77.2999
 21
-27.0539
  0
LINE
  8
0
 10
77.2999
 20
-27.0539
 11
77.7001
 21
-27.5377
  0
LINE
  8
0
 10
77.7001
 20
-27.5377
 11
78.1579
 21
-27.9676
  0
LINE
  8
0
 10
78.1579
 20
-27.9676
 11
78.6659
 21
-28.3366
  0
LINE
  8
0
 10
78.6659
 20
-28.3366
 11
79.2161
 21
-28.6391
  0
LINE
  8
0
 10
79.2161
 20
-28.6391
 11
79.7999
 21
-28.8703
  0
LINE
  8
0
 10
79.7999
 20
-28.8703
 11
80.4081
 21
-29.0264
  0
LINE
  8
0
 10
80.4081
 20
-29.0264
 11
81.0311
 21
-29.1051
  0
LINE
  8
0
 10
81.0311
 20
-29.1051
 11
81.345
 21
-29.1051
  0
LINE
  8
0
 10
81.345
 20
-29.1051
 11
81.345
 21
-29.115
  0
LINE
  8
0
 10
81.345
 20
-29.115
 11
119.575
 21
-29.115
  0
LINE
  8
0
 10
119.575
 20
-29.115
 11
119.575
 21
-29.1051
  0
LINE
  8
0
 10
98.7651
 20
-19.0621
 11
97.3523
 21
-18.9066
  0
LINE
  8
0
 10
97.3523
 20
-18.9066
 11
96.039
 21
-18.6473
  0
LINE
  8
0
 10
96.039
 20
-18.6473
 11
94.8251
 21
-18.2843
  0
LINE
  8
0
 10
94.8251
 20
-18.2843
 11
93.7107
 21
-17.8176
  0
LINE
  8
0
 10
93.7107
 20
-17.8176
 11
92.6958
 21
-17.2471
  0
LINE
  8
0
 10
92.6958
 20
-17.2471
 11
91.7804
 21
-16.573
  0
LINE
  8
0
 10
91.7804
 20
-16.573
 11
90.9762
 21
-15.8062
  0
LINE
  8
0
 10
90.9762
 20
-15.8062
 11
90.2958
 21
-14.9577
  0
LINE
  8
0
 10
90.2958
 20
-14.9577
 11
89.7391
 21
-14.0276
  0
LINE
  8
0
 10
89.7391
 20
-14.0276
 11
89.3061
 21
-13.0159
  0
LINE
  8
0
 10
89.3061
 20
-13.0159
 11
88.9968
 21
-11.9226
  0
LINE
  8
0
 10
88.9968
 20
-11.9226
 11
88.8112
 21
-10.7476
  0
LINE
  8
0
 10
88.8112
 20
-10.7476
 11
88.7494
 21
-9.491
  0
LINE
  8
0
 10
88.7494
 20
-9.491
 11
88.7891
 21
-8.52245
  0
LINE
  8
0
 10
88.7891
 20
-8.52245
 11
88.9083
 21
-7.60707
  0
LINE
  8
0
 10
88.9083
 20
-7.60707
 11
89.107
 21
-6.74489
  0
LINE
  8
0
 10
89.107
 20
-6.74489
 11
89.3851
 21
-5.9359
  0
LINE
  8
0
 10
89.3851
 20
-5.9359
 11
89.7428
 21
-5.18007
  0
LINE
  8
0
 10
89.7428
 20
-5.18007
 11
90.1798
 21
-4.47745
  0
LINE
  8
0
 10
90.1798
 20
-4.47745
 11
90.6964
 21
-3.82797
  0
LINE
  8
0
 10
90.6964
 20
-3.82797
 11
91.2887
 21
-3.23381
  0
LINE
  8
0
 10
91.2887
 20
-3.23381
 11
91.9532
 21
-2.69704
  0
LINE
  8
0
 10
91.9532
 20
-2.69704
 11
92.6898
 21
-2.21765
  0
LINE
  8
0
 10
92.6898
 20
-2.21765
 11
93.4985
 21
-1.79565
  0
LINE
  8
0
 10
93.4985
 20
-1.79565
 11
94.3793
 21
-1.43105
  0
LINE
  8
0
 10
94.3793
 20
-1.43105
 11
95.3323
 21
-1.12381
  0
LINE
  8
0
 10
95.3323
 20
-1.12381
 11
96.3574
 21
-0.873978
  0
LINE
  8
0
 10
96.3574
 20
-0.873978
 11
96.3574
 21
-0.770981
  0
LINE
  8
0
 10
96.3574
 20
-0.770981
 11
95.2299
 21
-0.608002
  0
LINE
  8
0
 10
95.2299
 20
-0.608002
 11
94.1762
 21
-0.369339
  0
LINE
  8
0
 10
94.1762
 20
-0.369339
 11
93.1962
 21
-0.0550232
  0
LINE
  8
0
 10
93.1962
 20
-0.0550232
 11
92.2899
 21
0.33493
  0
LINE
  8
0
 10
92.2899
 20
0.33493
 11
91.4574
 21
0.800613
  0
LINE
  8
0
 10
91.4574
 20
0.800613
 11
90.6985
 21
1.34195
  0
LINE
  8
0
 10
90.6985
 20
1.34195
 11
90.0134
 21
1.95898
  0
LINE
  8
0
 10
90.0134
 20
1.95898
 11
89.4111
 21
2.63802
  0
LINE
  8
0
 10
89.4111
 20
2.63802
 11
88.9015
 21
3.36543
  0
LINE
  8
0
 10
88.9015
 20
3.36543
 11
88.4846
 21
4.14122
  0
LINE
  8
0
 10
88.4846
 20
4.14122
 11
88.1603
 21
4.96535
  0
LINE
  8
0
 10
88.1603
 20
4.96535
 11
87.9287
 21
5.83788
  0
LINE
  8
0
 10
87.9287
 20
5.83788
 11
87.7897
 21
6.75874
  0
LINE
  8
0
 10
87.7897
 20
6.75874
 11
87.7434
 21
7.728
  0
LINE
  8
0
 10
87.7434
 20
7.728
 11
87.8086
 21
9.11661
  0
LINE
  8
0
 10
87.8086
 20
9.11661
 11
88.0044
 21
10.4127
  0
LINE
  8
0
 10
88.0044
 20
10.4127
 11
88.3308
 21
11.6164
  0
LINE
  8
0
 10
88.3308
 20
11.6164
 11
88.7876
 21
12.7275
  0
LINE
  8
0
 10
88.7876
 20
12.7275
 11
89.375
 21
13.7462
  0
LINE
  8
0
 10
89.375
 20
13.7462
 11
90.0929
 21
14.6723
  0
LINE
  8
0
 10
90.0929
 20
14.6723
 11
90.9414
 21
15.506
  0
LINE
  8
0
 10
90.9414
 20
15.506
 11
91.9109
 21
16.2372
  0
LINE
  8
0
 10
91.9109
 20
16.2372
 11
92.992
 21
16.8559
  0
LINE
  8
0
 10
92.992
 20
16.8559
 11
94.1847
 21
17.3621
  0
LINE
  8
0
 10
94.1847
 20
17.3621
 11
95.489
 21
17.7558
  0
LINE
  8
0
 10
95.489
 20
17.7558
 11
96.9049
 21
18.037
  0
LINE
  8
0
 10
96.9049
 20
18.037
 11
98.4323
 21
18.2057
  0
LINE
  8
0
 10
98.4323
 20
18.2057
 11
100.071
 21
18.262
  0
LINE
  8
0
 10
100.071
 20
18.262
 11
101.603
 21
18.2112
  0
LINE
  8
0
 10
101.603
 20
18.2112
 11
103.043
 21
18.0589
  0
LINE
  8
0
 10
103.043
 20
18.0589
 11
104.392
 21
17.805
  0
LINE
  8
0
 10
104.392
 20
17.805
 11
105.651
 21
17.4496
  0
LINE
  8
0
 10
105.651
 20
17.4496
 11
106.818
 21
16.9926
  0
LINE
  8
0
 10
106.818
 20
16.9926
 11
107.894
 21
16.4341
  0
LINE
  8
0
 10
107.894
 20
16.4341
 11
108.879
 21
15.774
  0
LINE
  8
0
 10
108.879
 20
15.774
 11
109.764
 21
15.0145
  0
LINE
  8
0
 10
109.764
 20
15.0145
 11
110.54
 21
14.1576
  0
LINE
  8
0
 10
110.54
 20
14.1576
 11
111.207
 21
13.2034
  0
LINE
  8
0
 10
111.207
 20
13.2034
 11
111.766
 21
12.1518
  0
LINE
  8
0
 10
111.766
 20
12.1518
 11
112.215
 21
11.0029
  0
LINE
  8
0
 10
112.215
 20
11.0029
 11
112.555
 21
9.75661
  0
LINE
  8
0
 10
112.555
 20
9.75661
 11
112.786
 21
8.41299
  0
LINE
  8
0
 10
112.786
 20
8.41299
 11
107.991
 21
7.97499
  0
LINE
  8
0
 10
107.991
 20
7.97499
 11
107.602
 21
9.68515
  0
LINE
  8
0
 10
107.602
 20
9.68515
 11
106.966
 21
11.1322
  0
LINE
  8
0
 10
106.966
 20
11.1322
 11
106.082
 21
12.3162
  0
LINE
  8
0
 10
106.082
 20
12.3162
 11
104.951
 21
13.237
  0
LINE
  8
0
 10
104.951
 20
13.237
 11
103.572
 21
13.8948
  0
LINE
  8
0
 10
103.572
 20
13.8948
 11
101.946
 21
14.2894
  0
LINE
  8
0
 10
101.946
 20
14.2894
 11
100.072
 21
14.421
  0
LINE
  8
0
 10
100.072
 20
14.421
 11
99.1006
 21
14.3858
  0
LINE
  8
0
 10
99.1006
 20
14.3858
 11
98.1905
 21
14.2802
  0
LINE
  8
0
 10
98.1905
 20
14.2802
 11
97.342
 21
14.1042
  0
LINE
  8
0
 10
97.342
 20
14.1042
 11
96.5552
 21
13.8577
  0
LINE
  8
0
 10
96.5552
 20
13.8577
 11
95.8299
 21
13.5409
  0
LINE
  8
0
 10
95.8299
 20
13.5409
 11
95.1663
 21
13.1536
  0
LINE
  8
0
 10
95.1663
 20
13.1536
 11
94.5644
 21
12.696
  0
LINE
  8
0
 10
94.5644
 20
12.696
 11
94.034
 21
12.169
  0
LINE
  8
0
 10
94.034
 20
12.169
 11
93.5853
 21
11.5737
  0
LINE
  8
0
 10
93.5853
 20
11.5737
 11
93.2181
 21
10.9101
  0
LINE
  8
0
 10
93.2181
 20
10.9101
 11
92.9325
 21
10.1783
  0
LINE
  8
0
 10
92.9325
 20
10.1783
 11
92.7286
 21
9.37813
  0
LINE
  8
0
 10
92.7286
 20
9.37813
 11
92.6062
 21
8.5097
  0
LINE
  8
0
 10
92.6062
 20
8.5097
 11
92.5654
 21
7.573
  0
LINE
  8
0
 10
92.5654
 20
7.573
 11
92.612
 21
6.75381
  0
LINE
  8
0
 10
92.612
 20
6.75381
 11
92.7517
 21
5.98767
  0
LINE
  8
0
 10
92.7517
 20
5.98767
 11
92.9847
 21
5.27461
  0
LINE
  8
0
 10
92.9847
 20
5.27461
 11
93.3109
 21
4.61461
  0
LINE
  8
0
 10
93.3109
 20
4.61461
 11
93.7302
 21
4.00768
  0
LINE
  8
0
 10
93.7302
 20
4.00768
 11
94.2427
 21
3.4538
  0
LINE
  8
0
 10
94.2427
 20
3.4538
 11
94.8484
 21
2.95297
  0
LINE
  8
0
 10
94.8484
 20
2.95297
 11
95.5417
 21
2.5123
  0
LINE
  8
0
 10
95.5417
 20
2.5123
 11
96.3178
 21
2.13942
  0
LINE
  8
0
 10
96.3178
 20
2.13942
 11
97.1765
 21
1.83435
  0
LINE
  8
0
 10
97.1765
 20
1.83435
 11
98.118
 21
1.59706
  0
LINE
  8
0
 10
98.118
 20
1.59706
 11
99.1421
 21
1.42757
  0
LINE
  8
0
 10
99.1421
 20
1.42757
 11
100.249
 21
1.32588
  0
LINE
  8
0
 10
100.249
 20
1.32588
 11
101.438
 21
1.29198
  0
LINE
  8
0
 10
101.438
 20
1.29198
 11
104.069
 21
1.29198
  0
LINE
  8
0
 10
104.069
 20
1.29198
 11
104.069
 21
-2.72998
  0
LINE
  8
0
 10
104.069
 20
-2.72998
 11
101.541
 21
-2.72998
  0
LINE
  8
0
 10
101.541
 20
-2.72998
 11
100.486
 21
-2.76393
  0
LINE
  8
0
 10
100.486
 20
-2.76393
 11
99.4998
 21
-2.86581
  0
LINE
  8
0
 10
99.4998
 20
-2.86581
 11
98.584
 21
-3.03561
  0
LINE
  8
0
 10
98.584
 20
-3.03561
 11
97.7383
 21
-3.27333
  0
LINE
  8
0
 10
97.7383
 20
-3.27333
 11
96.9626
 21
-3.57896
  0
LINE
  8
0
 10
96.9626
 20
-3.57896
 11
96.257
 21
-3.95251
  0
LINE
  8
0
 10
96.257
 20
-3.95251
 11
95.6214
 21
-4.394
  0
LINE
  8
0
 10
95.6214
 20
-4.394
 11
95.0634
 21
-4.89577
  0
LINE
  8
0
 10
95.0634
 20
-4.89577
 11
94.5913
 21
-5.44966
  0
LINE
  8
0
 10
94.5913
 20
-5.44966
 11
94.2051
 21
-6.05568
  0
LINE
  8
0
 10
94.2051
 20
-6.05568
 11
93.9046
 21
-6.71384
  0
LINE
  8
0
 10
93.9046
 20
-6.71384
 11
93.69
 21
-7.42409
  0
LINE
  8
0
 10
93.69
 20
-7.42409
 11
93.5613
 21
-8.18648
  0
LINE
  8
0
 10
93.5613
 20
-8.18648
 11
93.5184
 21
-9.00099
  0
LINE
  8
0
 10
93.5184
 20
-9.00099
 11
93.5534
 21
-9.80911
  0
LINE
  8
0
 10
93.5534
 20
-9.80911
 11
93.6585
 21
-10.5672
  0
LINE
  8
0
 10
93.6585
 20
-10.5672
 11
93.8336
 21
-11.2752
  0
LINE
  8
0
 10
93.8336
 20
-11.2752
 11
94.0787
 21
-11.9332
  0
LINE
  8
0
 10
94.0787
 20
-11.9332
 11
94.3939
 21
-12.5412
  0
LINE
  8
0
 10
94.3939
 20
-12.5412
 11
94.7791
 21
-13.0991
  0
LINE
  8
0
 10
94.7791
 20
-13.0991
 11
95.2344
 21
-13.607
  0
LINE
  8
0
 10
95.2344
 20
-13.607
 11
95.7584
 21
-14.0556
  0
LINE
  8
0
 10
95.7584
 20
-14.0556
 11
96.3503
 21
-14.4352
  0
LINE
  8
0
 10
96.3503
 20
-14.4352
 11
97.0102
 21
-14.7458
  0
LINE
  8
0
 10
97.0102
 20
-14.7458
 11
97.7381
 21
-14.9874
  0
LINE
  8
0
 10
97.7381
 20
-14.9874
 11
98.5339
 21
-15.16
  0
LINE
  8
0
 10
98.5339
 20
-15.16
 11
99.3977
 21
-15.2635
  0
LINE
  8
0
 10
99.3977
 20
-15.2635
 11
100.329
 21
-15.298
  0
LINE
  8
0
 10
100.329
 20
-15.298
 11
101.183
 21
-15.2659
  0
LINE
  8
0
 10
101.183
 20
-15.2659
 11
101.988
 21
-15.1696
  0
LINE
  8
0
 10
101.988
 20
-15.1696
 11
102.745
 21
-15.0091
  0
LINE
  8
0
 10
102.745
 20
-15.0091
 11
103.455
 21
-14.7844
  0
LINE
  8
0
 10
103.455
 20
-14.7844
 11
104.116
 21
-14.4954
  0
LINE
  8
0
 10
104.116
 20
-14.4954
 11
104.73
 21
-14.1423
  0
LINE
  8
0
 10
104.73
 20
-14.1423
 11
105.295
 21
-13.725
  0
LINE
  8
0
 10
105.295
 20
-13.725
 11
105.805
 21
-13.2495
  0
LINE
  8
0
 10
105.805
 20
-13.2495
 11
106.249
 21
-12.7215
  0
LINE
  8
0
 10
106.249
 20
-12.7215
 11
106.629
 21
-12.1408
  0
LINE
  8
0
 10
106.629
 20
-12.1408
 11
106.944
 21
-11.5075
  0
LINE
  8
0
 10
106.944
 20
-11.5075
 11
107.195
 21
-10.8216
  0
LINE
  8
0
 10
107.195
 20
-10.8216
 11
107.38
 21
-10.0831
  0
LINE
  8
0
 10
107.38
 20
-10.0831
 11
107.501
 21
-9.29199
  0
LINE
  8
0
 10
107.501
 20
-9.29199
 11
112.167
 21
-9.653
  0
LINE
  8
0
 10
112.167
 20
-9.653
 11
111.965
 21
-10.8873
  0
LINE
  8
0
 10
111.965
 20
-10.8873
 11
111.655
 21
-12.0416
  0
LINE
  8
0
 10
111.655
 20
-12.0416
 11
111.235
 21
-13.1158
  0
LINE
  8
0
 10
111.235
 20
-13.1158
 11
110.706
 21
-14.1101
  0
LINE
  8
0
 10
110.706
 20
-14.1101
 11
110.068
 21
-15.0244
  0
LINE
  8
0
 10
110.068
 20
-15.0244
 11
109.322
 21
-15.8587
  0
LINE
  8
0
 10
109.322
 20
-15.8587
 11
108.466
 21
-16.613
  0
LINE
  8
0
 10
108.466
 20
-16.613
 11
107.519
 21
-17.2765
  0
LINE
  8
0
 10
107.519
 20
-17.2765
 11
106.498
 21
-17.838
  0
LINE
  8
0
 10
106.498
 20
-17.838
 11
105.402
 21
-18.2973
  0
LINE
  8
0
 10
105.402
 20
-18.2973
 11
104.232
 21
-18.6546
  0
LINE
  8
0
 10
104.232
 20
-18.6546
 11
102.988
 21
-18.9098
  0
LINE
  8
0
 10
102.988
 20
-18.9098
 11
101.67
 21
-19.063
  0
LINE
  8
0
 10
101.67
 20
-19.063
 11
100.277
 21
-19.114
  0
LINE
  8
0
 10
100.277
 20
-19.114
 11
98.7651
 21
-19.0621
  0
ENDSEC
  0
SECTION
  2
OBJECTS
  0
DICTIONARY
  0
ENDSEC
  0
EOF
