  0
SECTION
  2
BLOCKS
  0
ENDSEC
  0
SECTION
  2
ENTITIES
  0
LINE
  8
0
 10
23.615
 20
-28.6051
 11
23.9289
 21
-28.6051
  0
LINE
  8
0
 10
23.9289
 20
-28.6051
 11
24.5519
 21
-28.5264
  0
LINE
  8
0
 10
24.5519
 20
-28.5264
 11
25.1601
 21
-28.3703
  0
LINE
  8
0
 10
25.1601
 20
-28.3703
 11
25.7439
 21
-28.1391
  0
LINE
  8
0
 10
25.7439
 20
-28.1391
 11
26.2941
 21
-27.8366
  0
LINE
  8
0
 10
26.2941
 20
-27.8366
 11
26.8021
 21
-27.4676
  0
LINE
  8
0
 10
26.8021
 20
-27.4676
 11
27.2598
 21
-27.0377
  0
LINE
  8
0
 10
27.2598
 20
-27.0377
 11
27.6601
 21
-26.5539
  0
LINE
  8
0
 10
27.6601
 20
-26.5539
 11
27.9965
 21
-26.0238
  0
LINE
  8
0
 10
27.9965
 20
-26.0238
 11
28.2639
 21
-25.4556
  0
LINE
  8
0
 10
28.2639
 20
-25.4556
 11
28.4579
 21
-24.8584
  0
LINE
  8
0
 10
28.4579
 20
-24.8584
 11
28.5756
 21
-24.2417
  0
LINE
  8
0
 10
28.5756
 20
-24.2417
 11
28.615
 21
-23.615
  0
LINE
  8
0
 10
28.615
 20
-23.615
 11
28.615
 21
-18.5775
  0
LINE
  8
0
 10
28.615
 20
-18.5775
 11
31.8225
 21
-18.5775
  0
LINE
  8
0
 10
31.8225
 20
-18.5775
 11
31.8225
 21
-8.0425
  0
LINE
  8
0
 10
31.8225
 20
-8.0425
 11
28.615
 21
-8.0425
  0
LINE
  8
0
 10
28.615
 20
-8.0425
 11
28.615
 21
2.03249
  0
LINE
  8
0
 10
28.615
 20
2.03249
 11
31.8225
 21
2.03249
  0
LINE
  8
0
 10
31.8225
 20
2.03249
 11
31.8225
 21
12.5675
  0
LINE
  8
0
 10
31.8225
 20
12.5675
 11
28.615
 21
12.5675
  0
LINE
  8
0
 10
28.615
 20
12.5675
 11
28.615
 21
22.6425
  0
LINE
  8
0
 10
28.615
 20
22.6425
 11
31.8225
 21
22.6425
  0
LINE
  8
0
 10
31.8225
 20
22.6425
 11
31.8225
 21
33.1775
  0
LINE
  8
0
 10
31.8225
 20
33.1775
 11
28.615
 21
33.1775
  0
LINE
  8
0
 10
28.615
 20
33.1775
 11
28.615
 21
38.215
  0
LINE
  8
0
 10
28.615
 20
38.215
 11
23.9608
 21
38.215
  0
LINE
  8
0
 10
23.9608
 20
38.215
 11
23.9608
 21
41.4225
  0
LINE
  8
0
 10
23.9608
 20
41.4225
 11
14.1925
 21
41.4225
  0
LINE
  8
0
 10
14.1925
 20
41.4225
 11
14.1925
 21
38.215
  0
LINE
  8
0
 10
14.1925
 20
38.215
 11
4.88416
 21
38.215
  0
LINE
  8
0
 10
4.88416
 20
38.215
 11
4.88416
 21
41.4225
  0
LINE
  8
0
 10
4.88416
 20
41.4225
 11
-4.88416
 21
41.4225
  0
LINE
  8
0
 10
-4.88416
 20
41.4225
 11
-4.88416
 21
38.215
  0
LINE
  8
0
 10
-4.88416
 20
38.215
 11
-14.1925
 21
38.215
  0
LINE
  8
0
 10
-14.1925
 20
38.215
 11
-14.1925
 21
41.4225
  0
LINE
  8
0
 10
-14.1925
 20
41.4225
 11
-23.9608
 21
41.4225
  0
LINE
  8
0
 10
-23.9608
 20
41.4225
 11
-23.9608
 21
38.215
  0
LINE
  8
0
 10
-23.9608
 20
38.215
 11
-28.615
 21
38.215
  0
LINE
  8
0
 10
-28.615
 20
38.215
 11
-28.615
 21
33.1775
  0
LINE
  8
0
 10
-28.615
 20
33.1775
 11
-31.8225
 21
33.1775
  0
LINE
  8
0
 10
-31.8225
 20
33.1775
 11
-31.8225
 21
22.6425
  0
LINE
  8
0
 10
-31.8225
 20
22.6425
 11
-28.615
 21
22.6425
  0
LINE
  8
0
 10
-28.615
 20
22.6425
 11
-28.615
 21
12.5675
  0
LINE
  8
0
 10
-28.615
 20
12.5675
 11
-31.8225
 21
12.5675
  0
LINE
  8
0
 10
-31.8225
 20
12.5675
 11
-31.8225
 21
2.03249
  0
LINE
  8
0
 10
-31.8225
 20
2.03249
 11
-28.615
 21
2.03249
  0
LINE
  8
0
 10
-28.615
 20
2.03249
 11
-28.615
 21
-8.0425
  0
LINE
  8
0
 10
-28.615
 20
-8.0425
 11
-31.8225
 21
-8.0425
  0
LINE
  8
0
 10
-31.8225
 20
-8.0425
 11
-31.8225
 21
-18.5775
  0
LINE
  8
0
 10
-31.8225
 20
-18.5775
 11
-28.615
 21
-18.5775
  0
LINE
  8
0
 10
-28.615
 20
-18.5775
 11
-28.615
 21
-23.615
  0
LINE
  8
0
 10
-28.615
 20
-23.615
 11
-28.5756
 21
-24.2417
  0
LINE
  8
0
 10
-28.5756
 20
-24.2417
 11
-28.4579
 21
-24.8584
  0
LINE
  8
0
 10
-28.4579
 20
-24.8584
 11
-28.2639
 21
-25.4556
  0
LINE
  8
0
 10
-28.2639
 20
-25.4556
 11
-27.9965
 21
-26.0238
  0
LINE
  8
0
 10
-27.9965
 20
-26.0238
 11
-27.6601
 21
-26.5539
  0
LINE
  8
0
 10
-27.6601
 20
-26.5539
 11
-27.2598
 21
-27.0377
  0
LINE
  8
0
 10
-27.2598
 20
-27.0377
 11
-26.8021
 21
-27.4676
  0
LINE
  8
0
 10
-26.8021
 20
-27.4676
 11
-26.2941
 21
-27.8366
  0
LINE
  8
0
 10
-26.2941
 20
-27.8366
 11
-25.7439
 21
-28.1391
  0
LINE
  8
0
 10
-25.7439
 20
-28.1391
 11
-25.1601
 21
-28.3703
  0
LINE
  8
0
 10
-25.1601
 20
-28.3703
 11
-24.5519
 21
-28.5264
  0
LINE
  8
0
 10
-24.5519
 20
-28.5264
 11
-23.9289
 21
-28.6051
  0
LINE
  8
0
 10
-23.9289
 20
-28.6051
 11
-23.615
 21
-28.6051
  0
LINE
  8
0
 10
-23.615
 20
-28.6051
 11
-23.615
 21
-28.615
  0
LINE
  8
0
 10
-23.615
 20
-28.615
 11
23.615
 21
-28.615
  0
LINE
  8
0
 10
23.615
 20
-28.615
 11
23.615
 21
-28.6051
  0
ENDSEC
  0
SECTION
  2
OBJECTS
  0
DICTIONARY
  0
ENDSEC
  0
EOF
